<?xml version="1.0" standalone="no"?>
<!DOCTYPE svg PUBLIC "-//W3C//DTD SVG 1.1//EN" "http://www.w3.org/Graphics/SVG/1.1/DTD/svg11.dtd" >
<svg xmlns="http://www.w3.org/2000/svg">
<metadata></metadata>
<defs>
<font id="la_belle_auroreregular" horiz-adv-x="686" >
<font-face units-per-em="2048" ascent="1638" descent="-410" />
<missing-glyph horiz-adv-x="1024" />
<glyph horiz-adv-x="2048" />
<glyph horiz-adv-x="2048" />
<glyph unicode="&#xd;" horiz-adv-x="1024" />
<glyph unicode=" "  horiz-adv-x="1024" />
<glyph unicode="&#x09;" horiz-adv-x="1024" />
<glyph unicode="&#xa0;" horiz-adv-x="1024" />
<glyph unicode="!" horiz-adv-x="774" d="M270 130q0 4 10 14t16 12q8 2 30 3t47 3t47 3t30 1q0 -56 -19 -105t-83 -61q-26 -4 -41 12t-23 40t-11 47t-3 31zM346 864q0 60 14 115t34 107t43 104t41 106q8 24 27 87t40 133t39 133t24 87q8 56 51 79t91 23q0 -144 -43 -273t-99 -253t-109 -249t-73 -261h-12 q-68 0 -68 62z" />
<glyph unicode="&#x22;" horiz-adv-x="724" d="M36 1438q0 56 15 123t48 124t83 95t120 38q0 -54 -21 -102t-46 -95t-46 -94t-21 -99q0 -22 9 -35t19 -25t19 -26t9 -36q0 -10 -1 -22t-6 -22t-16 -15t-33 -1q-46 8 -73 25t-40 41t-16 56t-3 70zM426 1507v49q0 58 15 110t45 91t78 62t114 23q0 -56 -30 -90t-62 -74 t-52 -102t-2 -176q0 -6 -10 -16t-16 -10q-34 0 -51 22t-23 51t-6 60z" />
<glyph unicode="#" horiz-adv-x="1440" d="M66 766q0 40 31 49t79 8t106 -6t113 6t100 47t67 116h-416q-12 0 -18 9t-10 21t-5 23t-1 15q150 0 251 12t172 55t124 127t109 230h12q28 0 48 -10t20 -38q0 -40 -15 -75t-34 -67t-34 -61t-15 -57q110 0 176 36t107 98t68 147t57 183h84q0 -46 -22 -101t-50 -112 t-54 -110t-36 -93q4 0 12 -1t12 -1q64 0 125 15t125 15q40 0 66 -6t26 -52q0 -4 -1 -12t-3 -8l-390 -78q-24 -6 -41 -39t-30 -76t-21 -84t-12 -61h294q0 -18 -5 -44t-29 -34q-14 0 -51 -3t-78 -7t-79 -8t-52 -6q-44 -8 -62 -40t-30 -68t-29 -64t-59 -28v172h-162 q-38 -40 -53 -78t-20 -70t-4 -55t-4 -32t-22 -1t-57 38l10 210h-362q-4 0 -13 16t-13 24q0 2 -1 6t-1 8zM632 856h214q2 0 11 20t13 32q4 8 12 31t17 47t16 46t9 30q-4 0 -20 1t-20 1q-52 0 -97 -8t-80 -31t-55 -63t-20 -106z" />
<glyph unicode="$" horiz-adv-x="1178" d="M10 442q0 32 4 71t18 71t41 54t73 22q0 -26 -5 -48t-12 -44t-12 -47t-5 -55q0 -134 61 -231t189 -125q18 102 38 222t42 250t45 264t45 262q-40 52 -67 98t-27 82q2 66 45 116t113 78l28 170q10 40 21 52t27 12q28 0 28 -64q-2 -20 -5 -57t-9 -87q84 14 192 2l20 102 q10 40 20 52t26 12q28 0 28 -64l-12 -120q40 -10 82 -24t82 -32q54 -16 62 -40t-6 -50t-40 -51t-40 -41q-22 46 -63 73t-93 37q-14 -94 -32 -211t-42 -253q74 -76 128 -143t54 -115q0 -206 -87 -354t-247 -224l-36 -184q-4 -28 -21 -46t-33 -18q-10 0 -15 21t-5 43v32 l18 116q-90 -26 -202 -30l-14 -78q-4 -26 -22 -45t-32 -19q-10 0 -15 21t-5 43v32q2 14 3 26t5 24q-80 12 -142 53t-105 102t-65 135t-22 150zM446 104q40 2 96 21t110 41l114 682q-38 42 -77 84t-77 84q-34 -204 -76 -438t-90 -474zM632 1146q32 -38 73 -80t83 -88l68 396 q-52 2 -103 -7t-91 -25zM748 210l42 24q44 24 70 67t40 94t18 104t4 95q0 34 -21 73t-55 85q-22 -130 -46 -265t-52 -277z" />
<glyph unicode="%" horiz-adv-x="1270" d="M24 814q0 112 67 186t164 117t204 61t189 18q44 0 91 -4t85 -20t62 -47t24 -85q0 -58 -6 -101t-22 -109q-44 -88 -93 -189t-104 -205t-116 -203t-127 -181q-16 -20 -29 -37t-37 -17q-22 0 -31 17t-9 39v13t2 11l492 856q2 0 3 17t1 27q0 64 -30 88t-104 24 q-138 0 -215 -29t-116 -73t-54 -94t-32 -94t-46 -73t-97 -29q-50 0 -83 34t-33 82zM854 154q0 58 27 105t66 87t85 76t84 72q4 0 12 1t12 1q26 0 42 -13t25 -33t12 -44t3 -44q0 -46 -19 -100t-50 -101t-74 -79t-91 -32q-58 0 -96 21t-38 83zM952 174q28 0 55 21t48 51t33 63 t12 57q-42 0 -70 -17t-45 -44t-25 -62t-8 -69z" />
<glyph unicode="&#x26;" horiz-adv-x="1140" d="M24 506q0 36 18 55t45 27t58 9t55 1q68 0 107 -9t59 -25t28 -36t18 -44t27 -48t55 -46q28 18 55 68t52 113t49 132t48 126t46 94t46 37q20 0 30 -11t13 -27t2 -33t-1 -29q0 -10 -1 -32t-3 -26l-180 -362v-22q68 0 136 37t128 82t109 83t79 38q0 -64 -36 -114t-91 -89 t-119 -69t-121 -53t-96 -40t-43 -33l-76 -260q0 -2 -9 -2h-13q-10 0 -28 4t-36 11t-31 17t-13 22v208q-48 2 -111 16t-120 43t-96 75t-39 112zM146 502q0 -34 27 -55t63 -33t73 -18t55 -6q0 2 1 6t1 6q0 34 -28 54t-65 30t-73 13t-54 3z" />
<glyph unicode="'" horiz-adv-x="564" d="M282 1198q0 18 11 34t39 16q54 0 91 -31t59 -75t32 -91t10 -79q0 -30 -7 -62t-25 -60t-48 -46t-76 -18q0 28 6 51t14 46t14 48t6 55q0 60 -20 95t-43 56t-43 33t-20 28z" />
<glyph unicode="(" horiz-adv-x="480" d="M36 270q0 44 15 131t41 191t63 212t83 196t98 145t110 57q0 -64 -10 -96t-27 -54t-39 -46t-46 -72q-34 -72 -66 -146t-59 -149t-43 -153t-16 -158q0 -70 21 -116t46 -78t46 -53t21 -41q0 -24 -16 -33t-36 -9q-56 0 -92 27t-57 67t-29 88t-8 90z" />
<glyph unicode=")" horiz-adv-x="662" d="M26 26q100 64 186 144t149 175t99 202t36 225q0 102 -27 192t-79 176q-12 22 -31 32t-37 19t-31 24t-13 45q114 0 182 -60t104 -148t47 -191t11 -187q0 -48 -29 -117t-76 -144t-106 -149t-121 -133t-121 -96t-103 -37q-16 0 -24 6t-16 22z" />
<glyph unicode="*" horiz-adv-x="1414" d="M24 662v6q0 2 2 6q30 2 79 6t101 12t101 23t83 37v4q0 2 1 3t1 3q0 28 -9 51t-21 44t-21 41t-9 42q24 0 44 -13t38 -29t37 -29t43 -13q18 0 32 31t27 78t28 102t36 102t47 78t64 31v-188q24 48 66 72t92 24q0 -42 -21 -89t-51 -92t-62 -84t-52 -65q8 0 33 -1t33 -1 q76 0 153 9t154 19t155 19t156 9q0 -20 -41 -40t-106 -39t-144 -36t-155 -33t-140 -32t-98 -30q34 -46 92 -81t114 -71t97 -80t41 -110q-64 0 -120 28t-109 67t-106 79t-113 64q-12 -28 -15 -76t-8 -95t-18 -81t-49 -34q-12 0 -23 9t-19 22t-14 26t-8 23q-18 -16 -48 -38 t-62 -22q0 40 11 75t25 70t25 71t11 76h-350q-16 0 -23 15t-7 25z" />
<glyph unicode="+" horiz-adv-x="998" d="M20 600q0 6 2 14t4 8l390 78q12 2 21 18t16 35t10 35l3 16q2 8 7 31t9 47t8 46t4 32h6q2 0 3 1t3 1q34 0 63 -29t29 -63q0 -14 -7 -33t-16 -39t-18 -39t-13 -31q10 0 34 -2t32 -2q84 0 164 15t164 15q18 0 35 -10t17 -32q0 -12 -19 -22t-43 -19t-45 -15t-27 -6 q-20 -4 -68 -12t-101 -16t-101 -15t-66 -9l-78 -312q-6 -22 -21 -25t-31 -3q-40 0 -47 22t-7 56q0 54 12 105t12 103h-282q-30 0 -44 17t-14 39z" />
<glyph unicode="," horiz-adv-x="606" d="M104 -262q0 28 24 56t60 58t77 63t77 73t60 90t24 112q0 30 -6 47t-12 31t-12 30t-6 44q36 0 76 -12t62 -46q0 -6 1 -21t2 -31t2 -31t1 -21q0 -74 -37 -152t-98 -143t-138 -106t-157 -41z" />
<glyph unicode="-" horiz-adv-x="838" d="M152 466v54q54 6 117 15t129 18t131 15t123 6q16 0 34 1t35 -4t31 -16t20 -35q-12 -22 -48 -39t-86 -29t-106 -19t-104 -12t-83 -6t-41 -1q-18 0 -44 3t-50 10t-41 17t-17 22z" />
<glyph unicode="." horiz-adv-x="528" d="M280 26v138h51t61 -6t52 -20t22 -44q0 -44 -24 -70t-68 -26h-21t-31 3t-29 9t-13 16z" />
<glyph unicode="/" horiz-adv-x="908" d="M36 51v17q0 30 7 51t47 37q16 28 50 87t77 133t91 156t92 156t79 133t53 87q20 34 56 87t78 108t88 107t88 86q4 2 16 5t16 3q0 -30 -27 -88t-69 -129t-94 -149t-102 -152t-91 -138t-63 -104q-24 -42 -59 -113t-77 -146t-87 -146t-89 -113q-6 -6 -26 -16t-24 -10 q-12 0 -19 9t-9 20t-2 22z" />
<glyph unicode="0" horiz-adv-x="934" d="M24 260q0 2 1 11t1 13q44 140 94 290t119 289t161 260t220 203q24 0 31 -4t23 -26q50 -66 89 -123t65 -116t40 -126t14 -153q-2 -90 -34 -187t-87 -187t-129 -168t-160 -131t-180 -76t-188 -3q-26 18 -41 46t-24 61t-12 67t-3 60zM156 192q0 -16 8 -24t20 -11t26 -3h26 q114 0 209 70t165 174t109 221t39 211q0 64 -5 111t-22 87t-49 79t-86 85q-50 -36 -103 -110t-102 -167t-92 -198t-75 -204t-50 -184t-18 -137z" />
<glyph unicode="1" horiz-adv-x="558" d="M36 52q0 4 1 13t1 13q44 120 94 266t102 298t102 297t96 265q16 34 33 44t45 10q54 0 54 -54q-4 -46 -28 -146t-72 -248t-121 -339t-175 -419q-8 -22 -39 -38t-51 -16q-22 0 -32 17t-10 37z" />
<glyph unicode="2" horiz-adv-x="1062" d="M48 78q0 6 2 25t4 27q116 98 199 184t153 175t138 190t156 229q48 96 45 129t-39 25t-97 -44t-130 -75t-137 -70t-116 -27q0 30 31 67t80 75t109 75t119 66t109 47t80 18q24 0 47 -9t41 -25t30 -37t12 -45q0 -70 -35 -148t-87 -154t-113 -149t-113 -133t-87 -105t-35 -65 q74 -50 140 -88q56 -34 108 -60t74 -26q40 0 73 13t64 22t64 6t75 -35q0 -2 -15 -14t-35 -29t-43 -34t-37 -27q-78 -50 -146 -43t-132 39t-127 74t-129 62q-54 0 -79 -29t-44 -64t-41 -64t-68 -29q-44 0 -56 20t-12 60z" />
<glyph unicode="3" horiz-adv-x="1154" d="M38 312q0 22 21 25t31 3q30 0 51 -18t39 -44t34 -58t37 -58t49 -44t70 -18q104 0 199 45t167 120t115 172t43 199q0 44 -20 81t-72 37q-2 0 -6 -1t-6 -1q-6 -2 -29 -14t-49 -26t-49 -25t-29 -13q-4 -2 -20 3t-33 13t-32 17t-17 17q30 46 86 100t116 107t112 101t74 82 q0 54 -27 59t-70 -11t-96 -42t-107 -32h-6q-2 0 -6 2t-15 9t-23 15t-23 15t-15 11q34 42 82 81t103 67t112 45t111 17q40 0 71 -4t52 -17t32 -38t11 -69q0 -6 -4 -19t-24 -49t-63 -101t-121 -173q24 -18 47 -42t42 -53t31 -60t12 -63q0 -128 -52 -248t-139 -212t-202 -148 t-243 -56q-70 0 -133 20t-112 60t-78 99t-29 135z" />
<glyph unicode="4" horiz-adv-x="1206" d="M24 530q0 14 35 72t90 135t121 163t129 159t113 120t72 47q0 -56 -22 -114t-55 -118t-72 -121t-71 -121q0 -2 21 -5t50 -8t59 -9t50 -6h84q4 0 19 -2t32 0t31 8t18 22q6 16 22 49t36 74t43 86t44 86t37 73l24 48q24 44 43 79t41 60t52 38t78 13q0 -16 -19 -59t-43 -91 t-46 -90t-28 -56q-2 -14 -18 -45t-37 -70t-44 -82t-40 -79t-23 -60t6 -28q34 0 59 16t59 16q22 0 43 -8t21 -36q0 -30 -21 -47t-53 -28t-72 -21t-78 -24t-69 -38t-45 -62q-16 -46 -42 -125t-63 -155t-88 -132t-117 -56q-18 0 -32 3t-20 25q42 52 82 120t78 139t69 139 t55 120v6q0 4 1 5t1 3q0 32 -31 46t-71 18t-79 3t-55 -1q-76 0 -115 -25t-63 -55t-45 -55t-61 -25q-28 0 -54 18t-26 48z" />
<glyph unicode="5" horiz-adv-x="1386" d="M24 174q0 10 1 37t4 55t9 50t16 22h50q10 -60 25 -100t41 -65t66 -36t100 -11q94 0 180 33t151 92t103 140t38 179q0 40 -5 81t-20 75t-44 56t-77 22q-52 0 -80 -29t-51 -63t-47 -63t-68 -29q-34 0 -57 23t-23 57v14t2 10l270 488l610 240q56 22 85 -2t29 -64 q0 -22 -46 -43t-117 -46t-158 -57t-169 -75t-149 -100t-97 -131q50 4 106 2t102 -28q44 -40 66 -75t31 -71t10 -75t1 -87q0 -132 -39 -242t-115 -190t-186 -125t-252 -45q-44 0 -95 5t-96 23t-75 53t-30 95z" />
<glyph unicode="6" horiz-adv-x="946" d="M36 260q0 38 4 65t26 65l518 934h8q4 0 7 1t7 1q28 0 56 -10t28 -44q0 -20 -3 -30t-10 -19t-18 -20t-25 -35q-98 -180 -189 -353t-199 -349q-30 -46 -54 -90t-24 -106q0 -46 16 -73t45 -41t67 -19t80 -7q-10 -6 -13 31t7 97t38 131t79 134t128 107t187 48q72 0 97 -29 t25 -99q0 -100 -52 -198t-134 -176t-184 -127t-204 -49q-70 0 -128 13t-99 43t-64 80t-23 124zM502 234q0 -6 1 -27t3 -25q48 18 103 50t102 74t78 94t31 110q0 34 -12 52t-68 8q-46 -8 -89 -48t-76 -93t-53 -106t-20 -89z" />
<glyph unicode="7" horiz-adv-x="1076" d="M38 986q30 30 57 73t55 88t57 85t65 64q148 68 318 88t330 16q38 -6 60 -15t32 -25t13 -40t3 -60q-148 -318 -270 -560t-211 -403t-140 -237t-57 -62q-20 0 -37 9t-17 31v2q0 4 2 6q0 4 2 6q120 264 246 523t272 515q4 8 12 29t16 46t14 48t8 33h-28t-43 1t-44 1h-29 q-46 0 -102 -5t-113 -15t-112 -25t-97 -35q-34 -16 -53 -37t-31 -41t-22 -39t-26 -33t-43 -23t-73 -9h-14z" />
<glyph unicode="8" horiz-adv-x="1050" d="M36 212q0 72 35 149t84 148t103 134t92 109q-4 24 -16 83t-24 125t-23 125t-15 83q-2 2 -2 6v8q0 42 30 83t78 77t107 66t117 52t108 34t82 12q8 0 41 -12t70 -28t66 -34t29 -32q-4 -80 -11 -130t-16 -78t-16 -39t-9 -13q-20 -40 -75 -100t-119 -123t-126 -122t-94 -95 q20 -46 32 -82t16 -71t5 -72t1 -81q0 -74 -12 -145t-44 -127t-88 -90t-142 -34q-58 0 -107 11t-84 36t-54 66t-19 101zM168 246q0 -72 29 -96t91 -24q42 0 78 26t63 66t40 86t11 86q0 12 -10 42t-22 63t-25 62t-21 39q-36 -24 -77 -64t-76 -87t-58 -99t-23 -100zM428 1192 q0 -84 2 -169t50 -167l362 312q-26 12 -26 38q0 20 13 33t28 24t28 23t13 34q0 46 -29 51t-69 5q-48 0 -103 -12t-106 -35t-94 -58t-69 -79z" />
<glyph unicode="9" horiz-adv-x="958" d="M50 1054q0 58 31 111t83 97t117 79t133 60t132 38t114 13q24 0 59 -2t71 -10t68 -24t50 -42q0 -8 1 -28t2 -43t2 -44t1 -29q0 -20 -16 -83t-44 -153t-64 -199t-75 -220t-79 -215t-75 -184t-63 -129t-44 -49q-44 0 -69 28t-25 68v19t2 17l336 828v20q-52 0 -108 -23 t-115 -51t-119 -51t-122 -23q-42 0 -76 22t-58 55t-37 73t-13 74zM178 1064q0 -32 5 -49t17 -24t33 -7h53q36 0 89 10t111 29t115 47t102 64t73 80t28 96q0 18 -17 26t-39 11t-44 3h-32q-28 0 -75 -10t-102 -28t-111 -44t-102 -57t-75 -69t-29 -78z" />
<glyph unicode=":" horiz-adv-x="438" d="M188 478q0 72 33 92t109 20q0 -20 2 -50t-1 -58t-16 -48t-45 -20q-36 0 -59 12t-23 52zM216 1050q0 52 29 73t71 21h25t28 -4t22 -12t9 -26q0 -12 -8 -30t-20 -36t-26 -33t-26 -17q-10 -2 -27 2t-34 13t-30 22t-13 27z" />
<glyph unicode=";" horiz-adv-x="488" d="M34 -336l234 258q0 2 4 14t8 29l8 34t6 27v14q0 18 -8 33t-19 29t-19 29t-8 37t6 45t34 23q42 0 70 -23t45 -57t24 -73t7 -71q0 -66 -37 -134t-94 -123t-126 -90t-135 -35v34zM268 606v172q0 8 10 14t23 8t26 3t19 1q46 0 64 -16t18 -60q0 -74 -46 -98t-114 -24z" />
<glyph unicode="&#x3c;" horiz-adv-x="830" d="M10 454q0 22 18 38t36 28q20 12 63 38t96 59t113 70t113 70t96 59t63 40l42 28t36 19t39 11t53 4q0 -50 -26 -80t-66 -60q-24 -16 -87 -57t-133 -86t-132 -86t-88 -55q-28 -16 -28 -42v-6q0 -2 2 -4l492 -78q0 -4 2 -8q0 -4 1 -7t1 -5q0 -56 -56 -84h-25t-40 -1t-39 -1 h-26q-26 0 -75 3t-107 12t-118 23t-109 36t-80 52t-31 70z" />
<glyph unicode="=" horiz-adv-x="778" d="M52 518l50 52q2 2 53 8t121 15t145 17t123 12h68q12 0 27 1t29 -2t23 -11t9 -26q0 -4 -1 -8t-1 -6q-120 -44 -263 -76t-273 -32q-34 0 -65 5t-45 51zM96 202q0 48 29 75t71 39t87 15t79 5q20 2 73 3t112 3t112 3t73 1q0 -20 -7 -36t-27 -26q-20 -4 -62 -10t-96 -13 t-113 -16t-112 -16t-96 -14t-63 -9q-6 -2 -31 -3t-29 -1z" />
<glyph unicode="&#x3e;" horiz-adv-x="880" d="M49 769q3 29 27 45t61 20t74 -3t65 -27t36 -52l464 -180q82 -34 82 -104q0 -32 -21 -48t-51 -22t-61 -7t-51 -1l-544 -234q-4 0 -7 -1t-7 -1q-18 0 -33 7t-31 21q14 38 51 72t88 64t111 54t118 43t111 32t89 19q0 2 1 7t1 7q0 26 -30 42t-48 22q-26 10 -92 32l-141 47 l-141 47t-92 30q-32 40 -29 69z" />
<glyph unicode="?" horiz-adv-x="914" d="M226 90q0 30 21 37t43 7q14 0 37 -4t43 -14t33 -26t7 -38q-8 -32 -32 -43t-46 -11q-38 0 -72 27t-34 65zM356 1554q0 4 21 20t50 37t60 42t51 33q34 18 76 22t80 4q84 0 134 -34t50 -124q-6 -56 -42 -130t-85 -157t-104 -172t-96 -174t-62 -162t-1 -137q-20 -12 -34 -19 t-32 -7t-27 10t-12 24t-3 29v25q0 108 40 218t99 216t127 204t126 182q0 2 1 6t1 8q0 36 -31 51t-59 15q-48 0 -87 -17t-76 -31t-77 -15t-88 33z" />
<glyph unicode="@" horiz-adv-x="1452" d="M36 516q0 124 43 240t116 218t172 187t212 147t233 100t238 44q166 10 266 -61t100 -227q0 -64 -15 -140t-43 -154t-70 -151t-95 -130t-118 -91t-141 -34q-44 0 -80 15t-78 15q-28 0 -53 -17t-50 -36t-53 -36t-62 -17q-68 0 -100 25t-32 91q0 88 46 183t121 173t167 129 t186 51q32 0 56 -3t48 -25q0 -6 1 -21t2 -31t2 -31t1 -21q0 -56 -24 -93t-53 -68t-53 -64t-24 -81q100 0 181 52t138 133t87 179t30 192q0 120 -62 169t-188 49q-110 0 -224 -29t-218 -84t-196 -131t-160 -170t-107 -203t-39 -229q0 -106 44 -186t116 -134t163 -82t185 -28 q56 0 110 13t108 29t107 29t107 13q0 -58 -59 -94t-138 -56t-158 -28t-119 -8q-108 0 -212 37t-184 105t-129 163t-49 213zM552 512q52 0 90 23t67 60t53 83t50 90t58 81t76 59v32q-76 0 -147 -39t-126 -101t-88 -138t-33 -150z" />
<glyph unicode="A" horiz-adv-x="1756" d="M24 352q0 32 11 49t47 17q18 0 32 -33t37 -74t59 -74t98 -33q76 0 149 29t140 74t126 101t107 110q-6 50 -36 74t-63 48t-59 64t-26 126q0 122 74 191t202 69q38 0 75 -8t75 -19t75 -19t75 -8q24 0 39 6t27 18t26 32t36 48q12 16 37 51t55 78t64 91t64 92t54 78t34 52 q22 18 40 23t42 5t36 -17t15 -41q2 -18 2 -37v-12q-1 -25 -1 -39v-19t-1 -27t-1 -27v-17q-6 -20 -19 -60t-29 -91t-33 -107t-32 -108t-27 -92t-16 -60q-2 -10 -6 -32t-8 -47t-8 -47t-4 -30q18 -4 36 -12t18 -26q0 -20 -15 -32t-35 -22t-37 -24t-19 -40q-4 -24 -14 -87 t-23 -134t-24 -133t-17 -86q-2 -6 -8 -22t-14 -32t-16 -30t-12 -20q-48 10 -78 25t-30 65t7 100t16 99t16 100t7 103q-66 0 -114 -6t-94 -12t-98 -9q-22 -1 -49 -1q-35 0 -77 2q-54 -60 -123 -128t-147 -126t-164 -97t-174 -39q-60 0 -115 20t-97 56t-66 87t-24 113z M724 856q0 -28 20 -64t50 -68t64 -54t64 -22q28 0 66 34t73 79t59 87t24 58q0 34 -23 51t-54 24t-65 7h-56q-28 0 -67 -5t-73 -19t-58 -40t-24 -68zM1028 588q12 0 47 1t74 2t74 3t49 2q8 0 25 4t33 8t29 8t15 6q2 0 2 13v21q0 16 -5 50t-16 68t-28 59t-41 25t-67 -34 t-85 -79t-74 -90t-32 -67zM1324 958q44 -52 82 -112t72 -122l178 640z" />
<glyph unicode="B" horiz-adv-x="1414" d="M26 362v6q0 11 6 22q8 14 20 24t26 17t26 9q2 -6 7 -27t14 -44t21 -42t24 -19q8 0 16 8t23 36t41 80t70 138t111 214t165 306q18 30 65 77t110 98t136 103t144 94t133 68t102 26q16 0 37 -1t27 -25v-17t1 -28t1 -28v-17q0 -74 -24 -133t-64 -108t-93 -94t-109 -93 q0 -2 -1 -6t-1 -8q0 -2 25 -31t54 -74t54 -102t25 -117q0 -126 -73 -247t-184 -217t-243 -154t-252 -58q-36 8 -80 9t-90 5t-89 13t-74 30t-47 57q-11 24 -11 58q0 17 3 36l-10 30t-17 50t-17 48t-8 28zM282 182q0 -28 22 -41t50 -16q17 -2 34 -2q11 0 23 1q29 2 41 2 q126 0 228 37t180 106t135 165t95 214q0 4 1 19t1 19q0 78 -23 121t-64 64t-99 27t-128 10q-10 2 -29 21t-21 29q-4 10 6 30t18 24q80 2 164 35t153 89t113 132t44 164q-74 0 -157 -51t-160 -124t-139 -155t-96 -144q-14 -28 -45 -86t-70 -132t-81 -156t-80 -156t-68 -134 l-44 -88q-2 -4 -3 -12t-1 -12z" />
<glyph unicode="C" horiz-adv-x="884" d="M26 222q14 116 50 221t88 204t116 195t136 194q42 54 92 110t108 102t125 75t141 29q40 0 62 -5t33 -20t13 -43q1 -14 1 -32t-1 -40q0 -50 -18 -102t-50 -98t-76 -81t-94 -51v28q0 42 19 80t43 77t43 81t19 90q-22 0 -38 3t-29 4t-26 -4t-31 -21q-98 -80 -201 -187 t-187 -231t-137 -259t-53 -271q0 -6 1 -20l2 -28t3 -26t2 -14q22 -22 53 -26t47 -4q86 0 161 30t147 65t145 65t155 30q0 -32 -37 -71t-96 -77t-131 -73t-141 -63t-126 -44t-87 -16q-44 0 -88 17t-79 47t-57 71t-22 89z" />
<glyph unicode="D" horiz-adv-x="1504" d="M12 52q0 30 20 67t47 70t52 59t37 36l440 806q20 16 36 41t33 48t38 39t51 16q0 -32 -7 -77t-21 -67l-378 -674q44 17 83 17q15 0 28 -2q51 -9 95 -35t83 -63t74 -71t67 -58t64 -24q70 0 136 70t126 180t110 244t86 261t56 232t20 157q0 28 -5 61t-19 60t-37 45t-59 18 q-54 0 -98 -46t-80 -118t-63 -161t-46 -173t-28 -154t-9 -106q0 -40 9 -76t21 -70t21 -69t9 -73q-56 0 -89 28t-49 70t-21 91t-5 91q0 48 13 134t38 185t62 201t86 185t110 136t133 53q6 0 27 -2t27 -2q32 -40 56 -76t41 -72t25 -76t8 -90q0 -62 -19 -180t-55 -259t-88 -288 t-120 -267t-150 -197t-176 -77q-64 0 -109 20t-79 49t-62 64t-58 64t-66 49t-88 20q-54 0 -94 -34t-70 -84t-52 -104t-38 -94q-4 0 -13 -1t-13 -1q-10 0 -27 4t-34 11t-30 17t-13 22z" />
<glyph unicode="E" horiz-adv-x="870" d="M24 262q6 96 58 181t123 159t150 137t139 117q0 12 -11 32t-17 70q0 88 40 161t105 124t146 79t165 28q36 0 60 -27t38 -65t19 -78t5 -66h-70q0 22 -5 46t-16 43t-28 32t-43 13q-46 0 -100 -25t-101 -64t-79 -89t-32 -100q0 -26 17 -37t44 -15t57 -4t57 -3t44 -15t17 -38 q0 -16 -4 -31t-24 -25q-116 -30 -209 -71t-169 -98t-141 -135t-127 -186q0 -4 -1 -20t-1 -20q0 -72 41 -109t109 -37q76 0 171 24t185 52t165 52t111 24q-2 -44 -38 -84t-94 -73t-131 -59t-148 -42t-146 -22q-36 -3 -67 -3t-58 3q-52 0 -91 24t-64 62t-38 85t-13 93z" />
<glyph unicode="F" horiz-adv-x="1406" d="M24 182v30t4 35t12 29t24 12t35 -29t49 -64t75 -64t113 -29q52 0 124 16t149 45t152 70t135 90t97 104t37 115q-72 0 -138 -16t-146 -16q0 18 6 35t26 25l362 154l54 54q8 20 30 68t47 101t47 101t32 66q0 2 8 14t17 25t16 24t9 15q0 16 -2 28t-24 26q-190 -70 -366 -129 t-358 -131q-2 0 -7 -1t-9 -1q-16 0 -27 12t-11 28q0 20 67 61t169 88t225 97t235 91t198 67t116 26q42 0 74 -20t32 -72q0 -16 -9 -26t-22 -17t-26 -12t-21 -11q-12 -10 -32 -30t-41 -40t-37 -37t-18 -21q-18 -30 -45 -83t-51 -107t-42 -97t-18 -51v-38q8 0 29 5t43 7t39 -6 t17 -34q0 -24 -26 -40q-10 -4 -35 -15t-54 -23t-55 -23t-36 -15q-88 -144 -185 -264t-214 -205t-260 -133t-319 -48q-38 0 -85 10t-88 33t-69 58t-28 83z" />
<glyph unicode="G" horiz-adv-x="1398" d="M12 390q0 22 11 50t29 52t42 40t48 16q4 0 13 -2t13 -2q-32 -40 -44 -71t-12 -71q0 -20 14 -53t36 -65t48 -55t48 -23h14q16 12 57 45t87 71t86 71t56 47q14 12 50 48t77 78t78 80t53 54q4 2 12 13t16 24t15 24t9 17v12q0 32 -14 57t-14 59q0 60 38 154t100 201t141 215 t160 195t157 142t134 55q40 0 59 -28t19 -62q0 -44 -28 -103t-67 -119t-78 -116t-61 -92q-8 -12 -39 -57t-67 -98t-66 -99t-38 -58q-4 -4 -13 -24t-11 -26q74 28 150 82t134 100h26q36 0 58 -13t22 -53q0 -6 -1 -22t-3 -18l-308 -700q-44 -98 -113 -160t-154 -99t-181 -52 t-194 -19q-78 -3 -155 -3h-38h-37q-74 0 -140 -3q-4 0 -19 -4t-33 -8t-33 -9t-19 -5q-6 0 -22 -1t-34 -2t-34 -2t-22 -1q0 48 14 59t32 13t37 5t29 33q-6 12 -21 41t-32 62t-31 63t-20 42t-16 42t-10 36zM374 130h156q112 0 206 12t174 48t146 102t124 174q12 24 39 86 t56 133t53 134t32 89h-6h-4q-2 0 -2 2q-66 0 -135 -28t-133 -71t-119 -94t-93 -95q-14 -16 -44 -48t-68 -73t-81 -87t-81 -87t-69 -73t-45 -48q-34 -10 -59 -30t-47 -46zM996 972q0 -4 1 -19t1 -19q14 16 47 60t70 93t70 95t45 64q30 44 74 116t85 143t71 123t30 58v50 q-42 -36 -94 -91t-107 -123t-108 -143t-94 -148t-66 -140t-25 -119z" />
<glyph unicode="H" horiz-adv-x="2026" d="M8 140q0 16 10 34t26 34t34 26t34 10h13t13 -2q-24 -26 -27 -52t-3 -56q0 -46 21 -75t53 -46t71 -24t75 -7q150 0 276 41t231 112t191 168t159 210t134 235t115 246h-6h-4q-2 0 -2 2q-60 0 -116 -33t-112 -74t-114 -74t-120 -33q0 16 47 60t119 102t155 122t154 117 t119 88l48 35q38 0 54 -31t16 -63q0 -6 -1 -20t-3 -16q-88 -190 -146 -316t-94 -202t-53 -113t-22 -49t-2 -9t9 5q20 8 79 21t126 27t126 25t81 15l24 24q88 184 181 365t183 363q25 21 39 21q7 0 11 -6q11 -16 11 -49v-6q-1 -38 -13 -81t-22 -63l-492 -1086 q-18 -40 -38 -48t-50 -8q-18 0 -40 2t-28 26q38 34 71 87t57 110t37 114t13 101q-4 0 -11 2t-11 0q-62 -20 -132 -31t-140 -24t-134 -35t-112 -64q-116 -98 -200 -175t-172 -131t-198 -82t-274 -28q-66 0 -124 13t-103 43t-71 80t-26 126z" />
<glyph unicode="I" horiz-adv-x="1642" d="M26 466q-1 4 -1 10t1 13q2 15 6 32t10 31t12 18q0 2 13 5t21 3q32 0 50 -18t35 -39t40 -39t65 -18q112 0 207 38t178 83t158 83t147 38q0 -28 -25 -60t-60 -62t-72 -54t-59 -36q-66 -40 -120 -67t-110 -46t-118 -29t-144 -14q8 -10 30 -32l47 -47l47 -47t32 -30 q18 -16 42 -23t49 -8t50 1t47 2q50 0 117 7t131 26t115 55t71 96q4 12 15 50t27 88t34 108t34 108t29 88t17 50q36 72 85 151t109 148t128 122t142 73q70 0 101 -48t31 -108q0 -150 -62 -292t-157 -270t-210 -236t-221 -188q0 -6 -3 -17t-7 -23t-8 -23t-6 -15q-2 -2 -4 -2 h-6q-4 0 -9 1t-7 1q-10 2 -39 12t-39 14q-18 -6 -62 -22t-94 -32t-94 -30t-62 -20q-4 -2 -20 -5t-37 -7t-41 -8l-30 -6h-14q-92 0 -174 45t-149 114t-120 151t-89 156zM1166 376q0 -4 1 -8t1 -6q114 68 210 157t167 197t111 230t40 256q-66 0 -131 -45t-124 -117t-109 -163 t-87 -182t-58 -176t-21 -143z" />
<glyph unicode="J" horiz-adv-x="1282" d="M-105 -586q3 12 21 20q88 30 168 64t149 81t126 113t99 158l728 1554h-26q-4 0 -44 -18t-93 -42t-109 -50t-90 -44q-48 -24 -111 -67t-130 -99t-131 -121t-115 -132t-82 -133t-31 -122q0 -22 9 -38t21 -31t21 -32t9 -37q-42 0 -72 15t-49 40t-28 57t-9 66q0 52 18 99 t47 90t65 82t74 77q32 32 86 83t108 101t96 87t48 41l622 336q44 26 77 74t66 95t75 82t106 35q18 0 32 -7t32 -19q2 -8 3 -33t1 -33v-41t-5 -26t-16 -21t-35 -28q-18 -14 -63 -48t-97 -79t-99 -94t-65 -91l-454 -906q-2 -10 -11 -39t-13 -39q-16 -32 -41 -85t-54 -114 t-60 -126t-58 -121t-47 -97t-28 -53q-34 -66 -97 -148t-143 -152t-172 -112q-72 -33 -143 -33l-41 3q-14 4 -26 13t-17 21q-3 8 -3 15q0 5 1 9z" />
<glyph unicode="K" horiz-adv-x="980" d="M52 104q36 58 92 151t123 207t141 241t147 250t139 235t118 196q18 8 29 8t16 -4t6 -9t1 -7q0 -54 -27 -130t-66 -155t-80 -148t-71 -107q60 14 129 52t138 86t136 102t126 98t107 73t80 29q10 0 20 -10t18 -25t13 -30t5 -23q-34 0 -92 -35t-152 -101t-229 -159 t-321 -207q22 -30 49 -72t50 -88t39 -94t16 -90q4 -78 4 -157q0 -125 -10 -249q-16 -202 -22 -396q82 -18 115 -39t31 -38t-31 -27q-22 -8 -51 -8q-8 0 -17 1q-39 3 -81 22t-70 61q0 156 5 296t23 300q-6 60 -14 131t-25 140t-46 127t-75 90q-92 -110 -151 -201t-96 -160 t-59 -114t-40 -63t-38 -6t-52 56z" />
<glyph unicode="L" horiz-adv-x="1378" d="M26 134q0 70 43 127t112 103t154 80t169 58t158 39t120 23l390 622q26 42 70 88t96 85t109 65t109 26q10 0 37 -4t54 -28t48 -78t21 -154q-14 -4 -26 -13t-27 -18t-34 -16t-43 -7q25 52 25 87q0 10 -2 18q-9 39 -41 53q-20 9 -47 9q-15 0 -33 -3q-48 -8 -96 -33t-87 -65 t-55 -90l-338 -572v-26q82 -58 125 -126t66 -137t35 -135t31 -119t54 -88t105 -43q0 -2 1 -6t1 -6q0 -24 -19 -37t-45 -20t-53 -9t-43 -2q-42 36 -69 96t-47 129t-37 140t-39 128t-52 95t-78 40q-28 0 -56 -31t-61 -77t-73 -101t-91 -101t-115 -77t-146 -31q-38 0 -87 3 t-92 16t-72 42t-29 81zM134 162q0 -24 17 -38t41 -20t49 -8t39 -2q54 0 120 29t123 75t96 103t39 115q-156 0 -291 -55t-231 -187q0 -2 -1 -6t-1 -6z" />
<glyph unicode="M" horiz-adv-x="1908" d="M40 136q0 16 19 41t33 35q28 -46 47 -61t55 -15q60 0 127 19t130 51t119 74t94 88q30 40 73 103t92 138t101 153t101 149t91 127t72 84q28 0 42 -9t20 -25t6 -38v-46q0 -84 -25 -164t-55 -155t-55 -147t-25 -142q0 -4 1 -14t1 -14q188 208 324 360t231 259t155 174 t96 104t55 51t31 14q20 0 30 -12t13 -28q2 -12 2 -25v-9q-1 -18 -1 -30q0 -84 -31 -171t-78 -178t-102 -184t-102 -191t-78 -199t-31 -207q0 -54 2 -79t12 -42t32 -36t62 -61q-39 -22 -75 -22q-7 0 -14 1q-43 5 -74 35t-45 82q-8 28 -8 60q0 27 6 58q0 116 31 235t78 235 t101 225t102 205v26q-22 -24 -69 -75t-106 -115t-124 -135t-124 -135t-105 -115t-68 -75t-42 -71t-44 -95t-53 -84t-65 -36q-30 0 -47 6t-25 19t-10 33t-2 48q0 148 43 287t91 283v26q-4 -4 -14 -13t-12 -13q-48 -72 -98 -155t-104 -164t-116 -155t-134 -131t-157 -91 t-187 -34q-22 0 -59 2t-72 12t-60 32t-25 62z" />
<glyph unicode="N" horiz-adv-x="1782" d="M12 494q0 10 10 39t16 37q32 -26 56 -65t45 -83t42 -87t48 -78t63 -57t88 -22q68 0 119 25t93 66t82 92t90 105q16 28 49 84t75 128t87 151t85 150t72 128t48 85q4 8 19 42t32 74t32 74t19 44q12 26 38 26q36 0 51 -38t19 -86q2 -27 2 -53q0 -19 -1 -37q-3 -42 -3 -50 q0 -142 -14 -282t-14 -284v-170q14 32 44 104t68 164t80 195t81 195t69 163t46 101q30 58 74 131t99 137t123 107t146 43q-114 -76 -212 -213t-180 -306t-151 -353t-126 -352t-104 -305t-86 -209q-36 -66 -65 -66h-5q-31 6 -57 124q0 110 8 221t19 221t19 221t8 223v142 q-4 -4 -12 -15t-17 -23t-16 -23t-9 -17q-8 -14 -31 -57t-55 -102t-68 -125t-68 -125t-57 -102t-33 -57q-40 -68 -86 -150t-103 -154t-129 -120t-164 -48q-94 0 -167 41t-125 108t-79 151t-27 172z" />
<glyph unicode="O" horiz-adv-x="1010" d="M29 170q1 46 9 90q104 316 200 535t182 358t162 210t141 93q37 12 70 12q25 0 48 -7q53 -17 95 -53t71 -81t45 -79q-8 -200 -76 -396t-185 -364t-276 -296t-347 -194q-54 2 -85 27t-43 62q-11 34 -11 76v7zM134 120q74 0 163 44t169 109t140 139t80 132v6q0 4 1 5t1 3 t-1 4t-1 4v4q-44 78 -67 168t-23 182t22 182t68 168q-44 -10 -99 -82t-112 -180t-113 -239t-102 -255t-80 -230t-46 -164zM692 1037q-6 -43 -6 -88q0 -57 10 -116q18 -105 54 -187q214 234 224 560q0 18 1 38v10q0 14 -2 27q-3 17 -15 30t-38 15q-108 -32 -161 -111 t-67 -178z" />
<glyph unicode="P" horiz-adv-x="780" d="M10 52q0 74 41 160t90 173t90 171t41 156q0 28 -13 53t-28 50t-27 50t-12 55q0 34 27 66t61 32q0 -18 2 -43t9 -49t21 -43t38 -27q20 54 61 141t98 186t124 198t138 179t143 130t136 50q48 0 83 -20t57 -53t32 -75t10 -86q0 -162 -69 -303t-182 -248t-257 -174t-296 -81 l-54 -78l-232 -570q-16 -34 -33 -44t-43 -10q-56 0 -56 54zM504 880q0 -4 1 -24t1 -26q126 6 236 69t190 161t126 219t46 241q0 56 -12 73t-68 17t-115 -41t-117 -107t-110 -148t-92 -163t-63 -153t-23 -118z" />
<glyph unicode="Q" horiz-adv-x="1180" d="M36 300q0 92 31 196t83 211t122 211t148 199t160 174t160 135v22q-24 10 -51 -5t-50 -32t-40 -22t-19 25q0 62 42 90t96 28q90 0 165 -38t130 -100t86 -141t31 -163q0 -96 -32 -187t-82 -175t-110 -162t-116 -150q-16 -70 -21 -117t-5 -109q0 -36 7 -57t22 -34t40 -23 t61 -24q0 -2 2 -6v-6q0 -2 2 -2q0 -16 -14 -25t-32 -12t-37 -3h-29q-48 0 -83 25t-58 64t-32 85q-6 32 -6 62q0 13 1 26q-82 -66 -182 -112t-208 -46q-92 0 -137 60t-45 138zM142 312q0 -46 16 -63t60 -17q52 0 128 21t147 58t121 89t50 116q0 50 -25 66t-55 24t-55 21 t-25 59q36 44 76 49q8 1 17 1q31 0 61 -15q38 -19 72 -54t60 -71q4 2 14 12l14 14q32 60 72 119t75 115t59 108t26 98v14q0 38 -17 93t-46 105t-67 86t-78 40q-20 -48 -32 -75t-18 -40t-9 -16t-5 -3q-12 0 -17 9t-8 21t-8 21t-17 9q-32 0 -88 -67t-121 -171t-132 -228 t-122 -236t-89 -198t-34 -114z" />
<glyph unicode="R" horiz-adv-x="1178" d="M30 60q34 128 91 255t127 252t148 248t154 243q48 72 112 167t143 180t172 143t199 58h10q32 0 61 -11q33 -13 55 -39t32 -60q6 -19 6 -40q0 -17 -4 -34q0 -98 -41 -189t-103 -169t-133 -142t-133 -110t-103 -73t-41 -29q0 -24 1 -91t6 -153t15 -181t27 -178t44 -141 t65 -72q6 -2 28 -6t49 -9t50 -8t29 -5q4 -2 14 -12t12 -14q-46 -36 -76 -44t-78 -8q-90 0 -144 42t-83 111t-39 157t-13 180t-4 179t-13 153t-39 105q-23 34 -69 34q-7 0 -14 -1q-14 -26 -41 -78t-63 -118t-75 -140t-75 -140t-65 -119t-43 -79q-16 -28 -22 -43t-13 -24 t-18 -11t-33 -2q-40 0 -56 13t-16 53zM626 924q0 -30 10 -45t28 -21t41 -7t49 -1q80 0 160 57t145 140t105 177t40 166v40t-4 37t-16 27t-38 10q-46 0 -102 -31t-114 -81t-113 -113t-97 -128t-68 -125t-26 -102z" />
<glyph unicode="S" horiz-adv-x="1178" d="M10 442q0 32 4 71t18 71t41 54t73 22q0 -26 -5 -48t-12 -44t-12 -47t-5 -55q0 -76 20 -142t61 -115t102 -77t145 -28q36 0 88 16t104 38t96 44t62 32q44 24 70 67t40 94t18 104t4 95q0 68 -13 133t-28 129t-28 128t-13 130q22 62 69 113t108 88t131 59t136 26 q54 -14 82 -35t39 -45q7 -16 7 -30q0 -8 -2 -16q-6 -22 -20 -40q-22 48 -57 64q-25 12 -55 12q-11 0 -23 -2q-43 -6 -87 -30t-84 -54t-70 -63t-44 -57q0 -60 13 -117t28 -114t28 -114t13 -117q0 -144 -45 -263t-130 -204t-206 -131t-271 -46q-94 0 -167 38t-122 101t-75 143 t-26 162z" />
<glyph unicode="T" horiz-adv-x="996" d="M10 946v6q0 2 2 6q4 10 13 31t13 23l182 78l1218 310q10 -26 10 -47q0 -24 -13 -42q-25 -33 -79 -54t-125 -36t-142 -36t-131 -56t-90 -93q-130 -258 -267 -514t-251 -522q-2 0 -7 -1t-7 -1q-26 0 -47 12t-21 40q0 46 20 97t36 87q14 28 44 87t68 133t81 156t81 156 t69 133t45 87q2 2 9 14t16 24t17 23t10 15t-2 8t-4 8q-86 -10 -179 -26t-184 -37t-175 -48t-152 -61q-22 0 -40 8t-18 32z" />
<glyph unicode="U" horiz-adv-x="1108" d="M36 168q0 76 24 152t56 146q14 32 39 92t55 134t61 152t58 146t47 117t28 63q39 19 63 19q20 0 29 -13q12 -16 12 -47q0 -21 -6 -50q-14 -69 -53 -165t-86 -197t-94 -196t-75 -159q-52 -116 -58 -166q-1 -7 -1 -13q0 -32 24 -32h6q35 5 106 59t172 147t228 220t275 279 q34 46 67 109t65 127t62 121t61 90t61 33t62 -48q-40 -112 -108 -242t-135 -269t-115 -280t-48 -273q0 -36 22 -47t52 -10t63 4t57 -7q-10 -18 -16 -37t-14 -35t-19 -26t-33 -10q-19 -10 -41 -10q-24 0 -50 12q-51 22 -90 84t-53 163q-4 28 -4 59q0 80 26 180l-60 -54 t-92 -82t-108 -97t-107 -97t-92 -82t-59 -54q-10 -6 -28 -20t-39 -27t-42 -23t-35 -10q-34 0 -56 16t-37 42t-21 55t-6 57z" />
<glyph unicode="V" horiz-adv-x="746" d="M32 1088q0 18 10 29t25 17t32 7t33 1q96 0 144 -62t48 -158q0 -90 -16 -177t-36 -173t-36 -173t-16 -177v-16q8 8 27 26t40 39t39 40t24 27q110 132 198 277t162 279t138 249t128 191t132 101q24 9 50 9q47 0 100 -30q0 -24 -17 -35t-39 -17t-44 -13t-32 -25 q-190 -340 -409 -671t-471 -627q-22 -18 -38 -23t-40 -5t-40 5t-38 23v17t-1 27t-1 27v19q0 90 13 177t28 174t28 174t13 177v32v51t-1 51t-1 34q-12 20 -35 28t-45 16t-39 20t-17 38z" />
<glyph unicode="W" horiz-adv-x="1378" d="M26 1012q28 84 71 120t127 36q50 0 75 -19t34 -50t9 -71v-82q0 -76 -13 -150t-29 -148t-29 -148t-13 -150q0 -4 1 -19t1 -19l26 26q164 234 263 380t157 229t90 113t60 30q26 0 41 -14t23 -34t11 -43t3 -41v-620h26l698 1062q54 80 112 105q28 12 65 12q38 0 83 -13 l-206 -208q-168 -258 -283 -447t-192 -322t-124 -216t-79 -130t-56 -64t-56 -17q-54 0 -79 34t-34 81q-8 42 -8 87v10q1 50 1 82q0 72 1 131t4 117t8 121t15 145q-180 -274 -295 -444t-187 -264t-113 -127t-75 -33q-54 0 -70 17t-16 57q0 12 2 38t2 30q40 162 67 278t45 196 t28 128t14 75t5 38t1 17q0 12 1 42t-3 61t-15 54t-37 23t-43 -17t-33 -34t-35 -29t-47 -2z" />
<glyph unicode="X" horiz-adv-x="1374" d="M38 1270q16 50 61 87t104 58t124 23h12q58 0 108 -17q55 -19 93 -62t44 -113l24 -624q36 24 80 72t91 110t96 133t95 138t86 125t72 96q30 42 52 54t36 5t18 -30t0 -52t-18 -57t-36 -48q-124 -162 -209 -276t-140 -190t-85 -120t-44 -67t-16 -30t-2 -9q0 -76 31 -134 t82 -101t117 -73t135 -49t136 -29t123 -12q-24 -24 -29 -40t-8 -26t-13 -14t-40 -4q-182 0 -342 79t-268 211q-8 12 -27 32t-23 22q-14 4 -39 -20t-58 -61t-70 -82t-75 -84t-76 -65t-72 -26q-16 0 -21 14t-5 24v8q0 4 2 6q32 34 76 81t91 99t92 106t77 102q6 10 16 30t10 24 q-32 88 -47 189t-21 203t-7 201t-3 183q-22 44 -71 50q-17 2 -36 2q-34 0 -70 -7q-57 -11 -112 -27t-87 -18h-14z" />
<glyph unicode="Y" horiz-adv-x="1204" d="M-490 -1496q160 46 301 167t264 288t228 363t192 394t157 382t123 323t89 221q33 75 52 75q2 0 4 -1q-50 -54 -127 -128t-167 -140t-186 -112t-182 -46q-56 0 -91 25t-55 64t-27 88t-7 99q0 42 22 121t58 173t80 192t90 178t87 131t69 51q26 0 46 -12t20 -40 q0 -38 -20 -69t-62 -37q-28 -32 -63 -93t-69 -136t-64 -157t-45 -156q-13 -65 -13 -120v-14q2 -60 32 -90q25 -25 71 -25q9 0 19 1q60 6 160 64q102 74 192 162t166 178t136 175t104 154t70 115t34 58q22 32 38 53t35 33t45 16t70 4q-16 -54 -44 -119t-77 -168t-123 -262 t-179 -402t-246 -585t-325 -812q-42 -84 -119 -186t-168 -199t-188 -177t-180 -122q-67 -34 -120 -34q-13 0 -25 2q-62 10 -82 92z" />
<glyph unicode="Z" horiz-adv-x="1746" d="M36 78q0 4 1 13t1 13q128 126 256 253t241 263t202 287t139 325q-80 -6 -171 -16t-181 -31t-172 -56t-144 -93q-30 0 -36 23t-6 45q0 18 1 27t6 14t16 9t33 14q76 30 160 66t171 67t176 53t179 22h19t27 -1t27 -1h17q42 -16 48 -42t6 -58q0 -60 -12 -105t-42 -107 q-62 -88 -136 -189t-155 -205t-165 -203t-166 -181q30 2 86 5q42 2 89 2h32q65 -1 128 -8t107 -23q50 -20 91 -43t80 -42t81 -32t94 -13q90 0 176 22t170 47t163 47t153 22v-34q0 -2 -21 -15t-49 -30t-59 -33t-51 -26q-124 -58 -237 -95t-245 -37q-74 4 -141 23t-133 45 t-132 53t-137 46t-150 26q-24 2 -49 2q-58 0 -122 -11q-26 -6 -55 -28t-55 -48t-46 -49t-28 -31q-4 0 -13 -1t-13 -1q-54 0 -54 54z" />
<glyph unicode="[" horiz-adv-x="1284" d="M36 208q10 24 27 43t40 58t56 109t76 198t97 324t122 486q4 28 10 69t17 82t30 78t47 55q14 0 48 1t73 2t74 1h49h65t80 -1t69 -2t34 -1q18 0 54 -2t71 -10t61 -26t26 -50q0 -30 -14 -62t-54 -32q-2 0 -7 1t-7 1q-10 8 -65 15t-129 9t-156 -3t-147 -19t-103 -40t-22 -66 q-90 -280 -166 -568t-146 -574q0 -2 -1 -16t-1 -22v-16t2 -21t8 -19t18 -8h570q22 0 25 -20t3 -32q0 -4 -1 -13t-1 -13q-126 -44 -262 -75t-268 -31q-52 0 -105 8t-97 31t-72 64t-28 107z" />
<glyph unicode="\" horiz-adv-x="530" d="M24 1410v16q0 20 7 50t35 30h7t5 -2q6 -4 14 -11t17 -16l16 -16t7 -9l362 -1348v-104q-82 28 -104 104l-364 1296q-2 4 -2 10z" />
<glyph unicode="]" horiz-adv-x="1320" d="M88 78q0 8 10 28t16 24q18 22 88 32t165 12t203 -1t200 -5t155 0t71 14q20 44 25 95t4 102t-4 100t1 91q4 40 13 123t21 188t27 221t28 220t23 187t16 123v54h-622q-12 0 -30 10t-34 23t-28 29t-12 28q0 10 9 22t22 22t26 16t23 6h772l-152 -1504v-286q0 -10 -19 -30 t-31 -22q-4 0 -20 3t-34 8t-33 10t-19 5q-38 12 -107 9t-153 -10t-177 -15t-178 -6t-155 18t-110 56z" />
<glyph unicode="^" horiz-adv-x="790" d="M78 1514q0 16 19 51t49 78t67 88t72 81t65 60t46 24q32 0 67 -20t70 -53t67 -72t56 -78t39 -72t15 -51q-2 -42 -23 -38t-51 34t-64 75t-64 86t-52 65t-26 12q-14 0 -19 -4t-15 -14q-42 -18 -77 -52t-63 -72t-52 -74t-45 -58t-41 -24t-40 28z" />
<glyph unicode="_" horiz-adv-x="944" d="M132 164q30 0 108 -1t167 -2t168 -3t109 -2q10 0 36 -4t55 -8t55 -8t36 -6q2 -4 2 -20v-20v-16t-2 -21t-8 -19t-18 -8h-674q-4 0 -14 11t-10 15q-2 6 -4 22t-3 34t-2 34t-1 22z" />
<glyph unicode="`" horiz-adv-x="474" d="M147 1648q-3 30 33 32q28 -16 68 -59t78 -93t68 -96t38 -68q-4 -24 -35 -10t-71 49t-81 82t-68 90t-30 73z" />
<glyph unicode="a" horiz-adv-x="864" d="M36 130q18 114 68 210t115 167t141 117t148 59q28 5 55 5q41 0 78 -12q61 -20 99 -80q0 -46 -21 -88t-46 -84t-46 -86t-21 -94q0 -52 23 -83t81 -31q48 0 93 14t91 14q8 0 27 -1t25 -1q-24 -34 -62 -58t-80 -41t-87 -25t-83 -8q-36 0 -64 16t-48 42t-31 59t-11 65 q-30 -34 -65 -71t-74 -67t-84 -50t-93 -20q-52 0 -90 39t-38 93zM168 192q0 -16 1 -36t25 -26q50 12 114 53t120 96t94 118t38 121q0 4 -1 13t-1 13q-68 0 -138 -28t-126 -77t-91 -113t-35 -134z" />
<glyph unicode="b" horiz-adv-x="894" d="M10 182q0 26 13 59t41 43q4 2 11 3t13 3q8 2 14 2v-110q12 12 37 44t52 69t50 71t31 50l466 908l11 12t26 17q5 2 10 2q11 0 23 -7q18 -10 34 -52l-284 -572v-24q56 -8 104 -23t83 -43t55 -69t20 -99q0 -98 -51 -183t-131 -148t-177 -100t-187 -37q-40 0 -86 11t-85 34 t-66 58t-27 81zM288 124q56 0 126 26t131 69t102 100t41 119q0 54 -22 95t-86 41q-28 0 -61 -26t-65 -67t-62 -92t-53 -101t-37 -94t-14 -70z" />
<glyph unicode="c" horiz-adv-x="696" d="M26 182q0 90 26 175t72 161t111 140t141 112v2q30 18 69 35t73 20h9q28 0 48 -16q23 -19 23 -71q0 -24 -4 -63t-22 -55q-16 -10 -42 -18q-12 -4 -24 -6v126q-46 -6 -106 -57t-115 -124t-93 -158t-38 -157q0 -58 30 -81t86 -23q60 0 117 15t114 32t114 32t117 15 q0 -28 -8 -47t-24 -41q-104 -50 -214 -91t-230 -41q-36 0 -76 13t-74 37t-57 58t-23 76z" />
<glyph unicode="d" horiz-adv-x="1040" d="M24 198q0 100 57 196t145 170t194 119t202 45q38 0 72 -14t72 -14h12q10 22 39 78t62 118t63 117t44 77q22 38 60 95t75 111t65 92t32 38l78 -78q0 -4 -15 -36t-39 -83t-55 -113t-63 -124t-61 -119t-51 -95q-62 -94 -125 -191t-100 -180q-36 -81 -36 -142q0 -65 67 -89 q102 19 160 18h20q60 -4 75 -21t-5 -40t-63 -41t-99 -24q-14 -2 -28 -2l-84 14q-56 18 -102 66t-70 138l-310 -258l-15 -4t-36 -8t-43 -8t-36 -6h-12q-46 0 -75 17t-45 44t-21 63t-5 74zM153 192v-8q0 -11 2 -21q3 -13 12 -23t27 -10q26 0 63 19t73 45t67 52t45 38 q14 14 52 51t79 79t77 78t50 52v6q0 4 1 5t1 3q0 18 -11 27t-26 12q-11 2 -23 2h-8q-16 -1 -26 -1q-72 0 -152 -30t-147 -81t-111 -120t-44 -147q0 -12 -1 -28z" />
<glyph unicode="e" d="M2 253q4 73 33 138t76 118t101 92t109 59q48 17 86 17h11q42 -3 66 -31q18 -21 18 -59q0 -13 -2 -27q0 -78 -49 -136t-108 -104t-108 -83t-49 -69q0 -18 21 -28t49 -15t56 -7t40 -4q188 40 282 49q42 4 70 4q34 0 48 -6q10 -5 10 -11q0 -9 -19 -23q-33 -23 -101 -48 t-158 -45t-178 -23h-23q-75 0 -140 17q-75 20 -111 76q-30 68 -30 134v15zM162 338q4 -2 6 -2h6q28 0 64 24t68 59t54 73t22 68q-40 0 -76 -22t-65 -55t-49 -72t-30 -73z" />
<glyph unicode="f" horiz-adv-x="928" d="M-456 -636q112 0 204 64t166 159t128 202t88 193q14 36 36 99t43 124t36 109t15 56v8q-27 22 -54 22l-14 -1q-34 -7 -65 -20t-57 -16t-46 35q0 34 18 54t46 32t62 18t66 14t58 22t38 40l206 466q26 56 72 105t104 83t122 54t124 20q86 0 118 -46t32 -138q0 -18 -13 -46 t-33 -54t-44 -44t-46 -18q0 26 10 49t21 45t21 45t10 51q0 32 -6 54t-50 22q-58 0 -117 -29t-114 -78t-104 -112t-84 -129t-56 -131t-21 -117q0 -4 1 -13t1 -13q38 12 87 28t102 29t106 22t101 9q0 -32 -32 -58t-81 -48t-108 -42t-111 -39t-91 -40t-49 -43q-10 -60 -43 -166 t-85 -230t-119 -252t-146 -232t-166 -170t-179 -66q-12 0 -31 2t-36 8t-29 18t-12 30z" />
<glyph unicode="g" horiz-adv-x="902" d="M-352 -1062q0 114 39 204t103 167t146 142t168 126t168 123t146 132t103 152t39 182v19t-2 19q-14 -12 -54 -35t-85 -48t-87 -45t-60 -26q-2 0 -15 -2t-30 -4t-33 -3t-26 -1q-90 16 -120 63q-20 32 -20 72q0 19 4 39q14 64 63 137t118 140t150 120t158 76q49 15 93 15 q26 0 49 -5q65 -13 101 -79q6 -42 6 -81t-6 -76q-12 -73 -32 -143t-40 -141t-24 -155h18q12 12 41 42t62 63t63 62t42 41q6 6 25 16t27 10v-6v-4q0 -2 2 -2q0 -72 -41 -132t-99 -112t-120 -97t-104 -87q-34 -70 -74 -175t-88 -224t-107 -242t-132 -227t-161 -179t-196 -97 q-52 0 -87 26t-55 65t-28 86t-8 89zM-250 -1064v-22t1 -32t2 -31t1 -21q16 -38 38 -46t50 -8q52 0 114 54t125 139t121 189t103 202t72 179t27 121q0 4 -1 13t-1 13q-6 -4 -27 -13t-25 -13q-84 -62 -189 -137t-196 -165t-153 -195t-62 -227zM104 146q42 0 102 17t125 46 t129 68t115 83t83 90t32 90q0 54 -54 54q-32 0 -84 -21t-111 -57t-119 -82t-109 -96t-79 -100t-30 -92z" />
<glyph unicode="h" horiz-adv-x="946" d="M24 114q0 50 31 103t72 100t79 86t54 63q50 82 100 177t100 194t103 196t111 185q10 16 17 22t21 6q16 0 24 -6t16 -22q0 -8 -3 -26t-6 -39t-8 -39t-7 -24q-12 -24 -40 -84t-61 -128t-63 -133t-44 -97q30 20 54 31t47 16t48 6t55 1q72 -18 95 -54q17 -26 17 -57 q0 -12 -3 -26q-9 -47 -39 -103t-63 -113t-59 -110q-24 -49 -25 -91q0 -3 1 -6q0 -18 8 -26t20 -12t26 -4h26q42 0 81 13t77 29t77 29t81 13q0 -38 -38 -72t-91 -59t-111 -40t-96 -15q-12 -2 -24 -2q-36 0 -67 19q-41 25 -65 66t-28 90q-1 7 -1 14q0 41 21 75q88 114 120 181 q25 52 25 80q0 8 -2 14q-9 27 -50 22t-99 -36t-125 -81t-125 -110t-101 -125t-55 -127q-20 -12 -34 -19t-32 -7q-30 0 -36 20t-6 42z" />
<glyph unicode="i" horiz-adv-x="474" d="M10 130q0 28 6 49t22 55q14 20 51 76t78 118t78 117t51 77q18 26 28 28t38 2q18 0 39 -2t27 -28q-28 -68 -75 -129t-92 -121t-79 -123t-34 -135q8 0 25 -2t37 -4t37 -4t25 0q12 2 41 9t62 15t63 16t42 12q0 -4 1 -13t1 -13q0 -40 -37 -66t-86 -41t-100 -20t-79 -5 q-30 0 -61 7t-55 23t-39 41t-15 61zM592 1302q26 0 48 -2t38 -10t26 -24t10 -44v-26t-3 -27t-11 -22t-26 -9q-28 0 -45 20t-25 47t-10 55t-2 42z" />
<glyph unicode="j" horiz-adv-x="538" d="M-714 -910q0 84 28 160t72 144t100 129t112 115q20 20 64 59t100 88t118 102t119 101t102 86t67 56q6 20 22 60t37 92t43 108t43 107t38 91t25 60q10 24 25 51t34 51t44 40t55 16q0 -64 -21 -142t-51 -154t-61 -142t-51 -108q4 0 13 -1t13 -1q52 0 99 14t99 14 q16 0 35 -2t25 -24q-22 -44 -68 -62t-99 -30t-100 -30t-67 -60q-12 -24 -37 -75t-56 -114t-66 -134t-65 -135t-54 -116t-34 -76q-34 -72 -73 -170t-94 -187t-131 -151t-182 -62q-50 0 -91 19t-70 51t-45 74t-16 88zM-612 -878q0 -30 3 -58t14 -51t32 -37t59 -14q74 0 140 53 t119 126t93 153t62 134q14 34 32 81t38 99t40 103t35 91t25 66t10 28v52q-4 -4 -16 -11t-24 -15t-23 -15t-15 -11q-16 -14 -51 -47t-78 -73t-91 -85t-91 -86t-78 -74t-51 -49q-28 -46 -60 -86t-59 -82t-46 -88t-19 -104zM686 1544q0 14 10 25t25 20t31 14t26 5q30 0 36 -23 t6 -45q0 -38 -21 -65t-61 -27q-18 0 -29 9t-16 24t-6 31t-1 32z" />
<glyph unicode="k" horiz-adv-x="958" d="M36 118q0 48 27 106t65 113t78 103t66 78l370 800q14 34 51 64t77 30v-66l-212 -490v-48q34 0 64 11t60 25t63 25t73 11q36 -24 38 -59v-6q0 -32 -18 -70q-20 -41 -55 -83t-73 -81t-73 -69t-53 -46q-30 -24 -55 -33t-43 -17t-27 -24t-9 -54q0 -56 30 -91t79 -55t110 -27 t123 -7t118 5t96 11l24 -24q-22 -30 -67 -57t-98 -48t-105 -34t-86 -13q-64 0 -124 21t-110 59t-87 91t-53 115q-24 -32 -40 -72t-36 -76t-48 -60t-74 -24q-38 0 -52 13t-14 53zM480 570q14 6 49 20t72 35t65 49t28 60q-18 0 -54 -14t-72 -36t-62 -48t-26 -52v-14z" />
<glyph unicode="l" horiz-adv-x="510" d="M12 182q0 14 3 43t7 57t8 51t8 29l364 728q8 16 31 45t50 60t54 58t45 43q14 -4 20 -14t8 -23q1 -9 1 -17v-8q-1 -12 -1 -20v-28t-2 -18q-20 -54 -62 -128t-94 -158t-107 -175t-100 -180t-74 -171t-29 -150q0 -36 21 -57t45 -37t45 -32t21 -44q0 -18 -16 -27t-38 -9 q-84 0 -146 47t-62 135z" />
<glyph unicode="m" horiz-adv-x="1366" d="M12 124q16 22 48 83t72 135t85 150t86 129t74 72q11 6 21 6q19 0 32 -25q34 22 75 38t83 16q28 0 47 -17t30 -42t17 -52t6 -47q22 14 73 49t110 71t116 63t93 27q32 0 55 -23t23 -57q-72 -176 -113 -282t-54 -165q-6 -30 -6.5 -50.5t6.5 -33.5q13 -25 47 -39q54 0 104 18 t99 40t99 40t106 18q0 -22 -11 -41t-33 -29q-16 -10 -57 -31t-89 -44t-91 -45t-61 -30q-40 -18 -61 -23t-57 -5q-38 0 -69 14t-51 40t-28 59q-4 15 -4 30q0 20 6 41q0 64 23 119t52 106t52 102t23 109q-44 0 -94 -28t-101 -74t-100 -103t-92 -114t-74 -109t-47 -86 q-4 -2 -20 -3t-20 -1q-32 -16 -39 1t0 53t23 81t31 86t23 68t2 27q6 8 14 26t16 38t14 37t6 27q0 18 -13 23t-25 5q-11 6 -23 6q-26 0 -54 -29q-41 -43 -88 -122t-102 -180t-121 -195q-46 0 -70 12t-24 60z" />
<glyph unicode="n" horiz-adv-x="890" d="M50 90v28t3 19t9 19t16 26q16 28 60 98t94 148t95 148l63 98q2 2 11 2h13h14t12 -2t9 -10t16 -17t16 -17t11 -8q18 0 38 12t41 27t43 27t46 12q26 0 48 -12t38 -30t25 -40t9 -44q0 -46 -13 -88t-29 -83t-29 -82t-13 -85t10 -63t56 -19q54 0 103 16t101 16q0 -48 -29 -80 t-72 -51t-92 -26t-89 -7q-76 0 -111 43t-35 115q0 48 17 90t38 82t39 80t18 86q0 12 -4 32t-26 20q-66 0 -119 -42t-96 -106t-78 -138t-66 -138t-59 -106t-58 -42q-42 0 -68 26t-26 66z" />
<glyph unicode="o" d="M36 168q0 8 1 33t1 33q64 146 164 270t226 220q4 0 13 3t13 3q54 0 89 -23t56 -60t29 -82t8 -87q0 -78 -36 -163t-97 -156t-139 -116t-162 -45t-125 45t-41 125zM192 192q0 -22 18 -30t36 -8q50 0 97 27t84 68t59 91t22 96q0 22 -3 49t-13 48t-31 33q-13 7 -31 7 q-12 0 -28 -3q-28 -6 -64 -52t-69 -107t-55 -122t-22 -97z" />
<glyph unicode="p" horiz-adv-x="1024" d="M-224 -560q0 2 1 8t1 8q2 6 6 17t8 23t8 23t6 15q12 28 40 89t64 138t75 161t75 161t65 138t43 91q26 42 73 98t105 114t125 113t132 98t127 70t110 27q72 0 102 -26t30 -106q0 -86 -33 -171t-89 -161t-131 -138t-158 -102t-171 -55q-38 -6 -74 -6q-49 0 -96 11l-26 -26 l-260 -648q-6 -18 -34 -23t-46 -5q-26 0 -52 17t-26 47zM296 216q138 0 236 41t180 157q94 100 122 159q18 38 18 61q0 13 -6 22q-13 19 -46 19q-8 0 -18 -1q-48 -6 -108 -34t-121 -74t-101 -100q-18 -20 -44 -53t-51 -66t-43 -59t-18 -30v-42z" />
<glyph unicode="q" horiz-adv-x="934" d="M24 -1222q0 110 24 221t61 221t84 215t93 201v52h-108q0 38 18 61t46 37t61 21t61 11l130 234v20q-34 0 -67 -12t-66 -25t-68 -25t-73 -12q-90 0 -130 43t-40 129q12 78 64 164t129 161t168 127t180 62q17 2 33 2q71 0 133 -35q77 -43 127 -161q0 -46 -16 -90t-41 -85 t-58 -76t-69 -59l-206 -414q0 -2 -1 -6t-1 -8q0 -26 13 -50t30 -48l34 -48t27 -48q38 -108 38 -217q0 -23 -2 -47q-10 -132 -62 -255t-140 -229t-196 -184q-20 -18 -38 -23t-40 -5q-38 0 -63 16t-40 42t-22 58t-7 64zM156 -1256q56 0 106 34t94 90t79 125t60 140t38 135 t13 110q0 76 -36 143t-94 115zM180 192q0 -38 14 -52t54 -14q46 0 127 35t160 88t137 117t58 122t-29 83t-93 25q-32 0 -75 -20t-91 -54t-95 -77t-84 -88t-60 -88t-23 -77z" />
<glyph unicode="r" horiz-adv-x="778" d="M-86 162q18 0 35 8t33 18q120 80 217 184t191 224q4 6 21 35t37 66l40 74t30 59q12 26 15 42t6 25t11 13t34 4q4 0 19 -2t19 -4q26 -54 46 -96t34 -79t21 -75t7 -84q-26 -66 -58 -135t-54 -131t-27 -112q-1 -8 -1 -15q0 -39 23 -64q27 -29 92 -31h7q64 0 178 34 q18 -9 18 -20q0 -9 -12 -19q-26 -23 -79 -43t-116 -33q-43 -9 -76 -9q-15 0 -29 2q-38 0 -63 13t-40 35t-22 50t-7 58q0 60 25 111t55 97t55 92t25 98q0 12 -1 29t-4 33t-12 27t-23 11q-2 0 -7 -1t-5 -3q-28 -38 -67 -85t-83 -93t-86 -88t-76 -70q-24 -22 -65 -60t-82 -75 t-72 -65t-35 -28z" />
<glyph unicode="s" horiz-adv-x="958" d="M24 222q0 38 11 66t57 28q4 0 19 -1t21 -3v-11q0 -86 30 -130q32 -47 120 -47q72 0 142 22t127 65t92 105t35 140q0 48 -33 68t-73 32t-73 27t-33 53q0 46 56 88t132 75t151 52t115 19q0 -58 -25 -82t-61 -38t-73 -27t-61 -49q32 -26 53 -47t33 -45t16 -53t4 -69 q0 -104 -45 -189t-117 -146t-164 -94t-188 -33q-52 0 -101 13t-86 41t-59 70t-22 100z" />
<glyph unicode="t" horiz-adv-x="528" d="M12 194q0 58 22 116t52 115t61 113t47 110q-38 -22 -65 -25t-65 -3q-4 0 -25 1t-27 1q12 44 44 79t73 60t86 42t81 27q60 94 98 189t77 186t92 174t143 153l10 -76l-250 -586q22 6 54 12t65 12t64 11t53 11q2 0 12 1t16 1q28 0 46 -10t30 -44q-136 -40 -246 -84 t-191 -115t-132 -180t-71 -279q0 -36 4 -66t50 -36q46 0 86 18t78 39t77 39t85 18q0 -48 -42 -88t-101 -70t-121 -46t-102 -16t-72 16t-53 43t-32 63t-11 74z" />
<glyph unicode="u" horiz-adv-x="972" d="M36 100q0 30 18 85t47 119t66 130t75 120t72 88t60 34q56 0 56 -54q0 -24 -9 -40t-21 -30t-26 -27t-24 -31q-18 -30 -44 -82t-51 -101t-43 -87t-18 -42v-26q78 14 150 67t137 125t124 151t111 146t98 111t86 44q0 -74 -30 -134t-65 -118t-65 -119t-30 -137q0 -32 39 -57 t90 -42t99 -27t66 -12v-52q-31 -1 -71 -1h-43q-68 1 -136 15t-123 47t-73 97q-52 -34 -100 -80t-99 -86t-107 -68t-122 -28q-40 0 -67 34t-27 68z" />
<glyph unicode="v" horiz-adv-x="802" d="M24 126q0 6 1 17t1 13q6 60 14 153t17 179t15 149l6 63l54 52q34 -10 50 -27t22 -37t6 -44v-48q0 -84 -15 -163t-15 -161q0 -4 1 -19t1 -19l492 518q2 2 11 2h13q20 0 38 -8t18 -34q0 -2 -1 -3t-1 -3v-6q-10 -16 -35 -52t-54 -78t-55 -79t-36 -51q-34 -42 -79 -100 t-96 -117t-106 -112t-109 -85q-10 -6 -29 -16t-21 -10q-22 0 -41 13t-34 33t-24 41t-9 39z" />
<glyph unicode="w" horiz-adv-x="1324" d="M71 281q37 69 88 132t106 120t99 115q34 0 45 -15t11 -37q-16 -18 -50 -65t-69 -101t-62 -102t-31 -68q-8 -29 -8 -48q0 -20 9 -27q17 -15 56 0t93 54t111 87t111 100t94 92h88q0 -34 -10 -65t-22 -61t-22 -60t-10 -62q0 -46 29 -56t67 -10q52 0 109 21t105 58t79 86 t31 107q0 52 -15 95t-15 95q0 62 68 62q30 0 52 -26t37 -62t22 -74t7 -62q0 -104 -50 -184t-128 -134t-173 -82t-185 -28q-76 0 -120 55t-46 129q-58 -18 -106 -61t-96 -88t-100 -79t-114 -34q-16 0 -39 14t-44 34t-35 43q-12 20 -12 36q0 72 45 156z" />
<glyph unicode="x" horiz-adv-x="1024" d="M38 14v90l312 312q22 22 24 48t2 54q0 124 -49 171t-169 47q0 18 19 28t44 13t47 3h28q48 0 86 -21t65 -45t44 -45t25 -21q18 0 35 8t31 18q14 12 52 41t79 62t78 62t51 41q6 2 21 6t31 9t31 9t21 4h6q2 0 4 1t4 1q16 0 28 -14t12 -30q0 -20 -20 -27t-47 -11t-53 -8 t-38 -18l-284 -336v-260h266q0 -42 -22 -64t-54 -31t-70 -10t-68 -1q-92 0 -150 62t-86 150q-22 -36 -59 -87t-82 -98t-96 -80t-99 -33z" />
<glyph unicode="y" horiz-adv-x="1068" d="M-407 -1297q-1 8 -1 16q0 47 23 122q27 89 93 225t182 330q64 104 148 185t173 153t177 140t163 146t129 173t74 221q0 4 -1 13t-1 13q-46 -54 -111 -122t-140 -128t-157 -100t-160 -40q-20 0 -51 3t-61 13t-52 28t-22 48q0 26 14 80t38 120t54 134t64 124t67 92t61 36 t48 -12t20 -40q0 -50 -36 -100t-78 -107t-78 -123t-36 -150q132 0 238 55t192 137t152 178t117 178t88 137t63 55q38 0 45 -23t7 -57q-18 -62 -50 -145t-65 -174t-60 -181t-35 -164q0 -2 1 -6t1 -6q36 12 68 42t63 61t63 56t66 25q2 0 15 -28q6 -13 6 -30t-7 -38 q-18 -14 -65 -48t-99 -71t-98 -72t-64 -53q-28 -28 -58 -80t-60 -117t-59 -137t-57 -141t-55 -128t-49 -97q-10 -16 -41 -63t-68 -101t-72 -103t-53 -69q-8 -10 -44 -47t-81 -82t-90 -89t-69 -66q-24 -14 -64 -35t-83 -35t-84 -18q-7 -1 -13 -1q-32 0 -54 18q-26 21 -31 70z M-304 -1206q0 -42 38 -50q6 -1 13 -1q41 0 123 39q20 18 57 53t74 72t67 68t36 39q10 14 32 44t48 68t54 80t53 81t44 69t27 46q18 32 45 91t51 122t42 121t18 90q-4 0 -13 -3t-13 -5q-4 -4 -18 -14t-31 -22t-32 -24t-21 -18q-56 -40 -128 -113t-149 -162t-151 -188 t-133 -190t-95 -167q-38 -80 -38 -126z" />
<glyph unicode="z" horiz-adv-x="1012" d="M50 90v8t2 6q58 64 123 123t137 111l440 518h-28q-42 0 -82 -9t-80 -19t-80 -19t-82 -9q-58 8 -77 24t-11 35t36 39t66 35t80 22q27 4 50 4q13 0 26 -1q78 20 135 25t129 5q58 0 92 -21t34 -87q0 -14 -35 -59t-89 -108t-119 -135t-126 -140t-109 -123t-68 -81 q2 -4 12 -14l14 -14q54 -18 121 -25t135 -8h34q50 0 96 2q62 3 106 7q16 -8 22 -17t6 -21q0 -42 -38 -62t-86 -27q-42 -6 -82 -6h-12q-46 1 -62 1q-48 0 -92 8t-88 19t-87 19t-89 8q-32 0 -55 -17t-44 -36t-40 -36t-43 -17q-34 0 -63 30t-29 62z" />
<glyph unicode="{" horiz-adv-x="998" d="M34 54q0 70 29 133t73 119t96 107t96 97t73 86t29 78q0 36 -20 64t-45 55t-45 55t-20 60q0 44 36 65t80 35t80 33t36 61v14l-130 284q0 2 5 23t13 50t18 60t16 49q14 40 43 86t67 85t84 65t94 26q46 -26 49 -52t-18 -53t-58 -57t-73 -66t-62 -79t-24 -97q0 -4 1 -20 t1 -20q8 -14 28 -50t40 -78t37 -79t23 -53q2 0 3 -18t1 -28q0 -52 -20 -81t-50 -49t-67 -38t-73 -44q40 -50 73 -109t33 -125q0 -56 -33 -101t-82 -86t-107 -82t-107 -88t-82 -105t-33 -132q0 -62 32 -94t81 -48t106 -22t106 -15t81 -29t32 -62q-50 0 -110 1t-121 7t-117 22 t-100 46t-71 77t-27 117z" />
<glyph unicode="|" horiz-adv-x="448" d="M94 44q16 84 31 196t28 242t26 270t25 279t25 270t29 243q16 34 33 44t45 10q54 0 54 -54q-14 -36 -22 -121t-15 -206t-15 -267t-21 -301t-35 -310t-56 -295q-8 -22 -39 -38t-51 -16q-24 0 -33 17t-9 37z" />
<glyph unicode="}" horiz-adv-x="584" d="M-532 -170q0 16 11 28t27 12q42 0 77 -14t79 -14q78 0 163 32t156 89t117 132t46 163v390q0 32 -13 60t-28 56t-28 56t-13 62q0 24 9 38t19 25t19 22t9 29q0 20 -8 38t-19 34t-19 34t-8 38q0 32 26 61t64 60t83 66t83 76t64 91t26 112q0 6 -1 21t-2 31t-2 31t-1 21 q-20 36 -65 54l-90 36t-79 43t-34 75q96 0 175 -11t135 -46t87 -99t31 -170q0 -74 -25 -138t-66 -120t-94 -104t-107 -90v-14q0 -22 12 -38t27 -32t27 -33t12 -37q0 -58 -37 -91t-91 -41q-2 -4 -2 -6v-6v-6q0 -2 2 -6q2 -6 9 -17t15 -23t15 -23t11 -15v-442q0 -110 -57 -213 t-145 -183t-196 -128t-210 -48q-22 0 -55 3t-64 12t-54 28t-23 49z" />
<glyph unicode="~" horiz-adv-x="990" d="M-2 1156q0 16 28 36t64 38t70 30t46 12q62 0 105 -29t82 -63t84 -63t111 -29q84 0 137 25t84 55t48 55t33 25q24 0 48 -6t24 -38q-6 -46 -39 -80t-82 -60t-109 -49t-120 -47q-46 -4 -82 11t-70 40t-68 53t-72 49t-85 28t-105 -9q-4 0 -20 -4t-33 -8t-32 -8t-19 -4 q-16 0 -22 14t-6 26z" />
<glyph unicode="&#xa1;" horiz-adv-x="774" d="M258 1283q0 -4 8.5 -13t13.5 -10q7 -2 25.5 -3t40 -2.5t40.5 -2.5t26 -1q0 49 -16.5 92.5t-71.5 54.5q-22 4 -34.5 -10.5t-19.5 -35.5t-9.5 -41.5t-2.5 -27.5zM323 632q0 -54 12 -102.5t29 -94.5t36.5 -92.5t35.5 -94.5q6 -21 22.5 -77t34.5 -118t33.5 -117.5t20.5 -77.5 q6 -49 43 -69.5t78 -20.5q0 127 -36.5 241.5t-84.5 224.5t-93.5 221t-62.5 232h-10q-58 0 -58 -55z" />
<glyph unicode="&#xa2;" horiz-adv-x="732" d="M62 182q0 154 71 291t191 233q6 52 13 105t15 113q16 32 33 42t45 10q54 0 54 -52q-10 -24 -16 -56t-10 -72q30 14 60 24t56 7t42 -23t16 -64q0 -24 -4 -63t-22 -55q-8 -6 -19 -10t-21 -8q-12 -4 -26 -6v126q-34 -6 -92 -44q-6 -104 -17 -240t-39 -306q46 8 92 22l92 28 t93 24t97 10q0 -28 -7 -47t-23 -41q-90 -42 -181 -79t-189 -49q-8 -30 -15 -64t-15 -68q-16 -42 -60 -42q-12 0 -22 11t-19 27t-14 31t-5 25q4 22 8 43t8 41q-32 8 -62 24t-54 38t-39 51t-15 63zM188 228q0 -44 16 -66t48 -30q16 96 27 188t25 200q-50 -70 -83 -147 t-33 -145z" />
<glyph unicode="&#xa3;" horiz-adv-x="2254" d="M36 376q0 86 52 147t129 101t162 59t151 19q44 0 86 -8t84 -19t84 -19t84 -8h26q34 42 71 92t72 104t65 109t52 109q-4 0 -13 1t-13 1q-44 0 -85 -14t-85 -14q-24 0 -50 16t-40 38q28 40 74 59t97 31l102 24t89 42q72 52 125 144t100 198t96 216t113 199t149 146t205 57 q52 0 90 -25t62 -65t35 -88t11 -96v-14q-8 -36 -24 -75t-34 -76t-37 -72t-35 -63q-2 0 -6 -1t-6 -1q-24 0 -32 24t-8 44q0 26 8 51t19 50t19 51t8 54q0 82 -25 127t-111 45q-44 0 -88 -44t-83 -101t-68 -114t-41 -81q-20 -40 -51 -108t-60 -134t-50 -115t-21 -55v-26 q8 0 27 -1t25 -1q14 2 52 5t79 8t78 9t51 6q28 -18 28 -44q0 -2 -1 -6t-3 -4l-420 -112l-382 -588q-30 -16 -43 -32t-13 -44q0 -4 1 -14t3 -14q82 -130 153 -203t156 -109t195 -44t272 -6q18 -8 24 -16t6 -22q0 -26 -46 -40t-104 -20t-111 -7t-67 -1q-104 0 -182 27t-136 68 t-101 88t-76 88t-60 68t-53 27q-38 0 -103 -33t-145 -72t-168 -72t-168 -33q-46 0 -86 17t-70 47t-48 71t-18 87zM194 284q0 -10 9 -15t22 -7t26 -3t19 -1q72 0 139 19t129 52t118 75t108 90v6q0 2 1 3t1 3q0 30 -33 49t-79 28t-94 12t-78 3q-24 0 -72 -9t-96 -26t-84 -42 t-36 -55v-182z" />
<glyph unicode="&#xa4;" horiz-adv-x="1096" d="M92 104v90l134 134q-10 28 -10 78q0 8 1 32t1 34q34 78 79 150t99 138q-48 66 -186 66q0 18 20 28t44 13t47 3h29q34 0 61 -10t49 -26q72 68 146 128q4 0 13 2t13 2q56 0 91 -25t57 -65q38 32 69 58t45 36q6 2 22 6t32 9t31 9t21 4h6q2 0 4 1t4 1q16 0 27 -14t11 -30 q0 -20 -20 -27t-47 -11t-53 -8t-38 -18l-86 -102q8 -32 8 -76q0 -50 -15 -103t-43 -104t-66 -98t-82 -83v-30h266q0 -42 -22 -64t-54 -31t-69 -10t-67 -1q-52 0 -92 20t-68 52q-32 -12 -62 -19t-62 -7q-42 0 -68 8q-50 -56 -107 -98t-113 -42zM368 410q0 -22 18 -31t36 -9 q50 0 97 27t84 68t59 91t22 98q0 22 -3 48t-13 47t-31 33t-59 4q-28 -6 -64 -52t-69 -106t-55 -121t-22 -97z" />
<glyph unicode="&#xa5;" horiz-adv-x="778" d="M34 630l52 52l22 3t57 8t79 10t92 11q2 24 4 44t4 36q2 18 2 34q4 40 -16 104t-51 135t-69 144t-71 131t-55 95l-22 37l114 48q42 -48 72 -107t55 -125t47 -133t48 -129l490 518q2 2 12 2h14q20 0 37 -8t17 -32q0 -2 -1 -3t-1 -3v-6q-74 -84 -134 -164t-119 -157 t-124 -155t-149 -158q-4 -2 -6 -40t-4 -98q28 4 53 7t45 5h68q12 0 27 1t28 -2t23 -12t10 -27q0 -4 -1 -8t-1 -6q-58 -22 -123 -41t-133 -33q-2 -36 -3 -76t-3 -80q36 0 81 1t87 2t76 2t50 1q0 -20 -6 -35t-26 -25q-14 -2 -41 -6t-63 -10t-77 -12t-83 -12q-4 -70 -5 -133 t-3 -111q-2 -56 -2 -106q-22 0 -46 -13t-45 -26t-35 -17t-14 14q0 2 3 33t7 83t11 120t13 140q-54 -8 -98 -14t-64 -8q-6 -2 -31 -3t-29 -1q0 42 23 67t58 38t75 18t76 7q4 40 7 75t7 69q-46 -6 -92 -10t-88 -4h-34t-31 4t-27 16t-20 34z" />
<glyph unicode="&#xa6;" horiz-adv-x="448" d="M94 44q32 150 53 354t43 456l146 -8q-12 -210 -37 -406t-73 -396q-8 -22 -39 -38t-51 -16q-24 0 -33 17t-9 37zM192 912q16 170 32 332t34 300q16 34 33 44t45 10q54 0 54 -54q-12 -28 -19 -87t-13 -142t-11 -186t-11 -217h-144z" />
<glyph unicode="&#xa7;" horiz-adv-x="786" d="M71 568q-5 62 16 124t62 117t93 93q-20 2 -38 24q-60 80 -50 156t58 137t120 102t137 49t109 -21t38 -107q-20 6 -78 0t-114 -31t-88 -74t0 -129q40 0 75 8t65 13t57 -2t51 -39q56 -76 76 -141t10 -124t-49 -117t-99 -118q22 -14 38 -36q60 -80 63 -162t-31 -153 t-95 -125t-131 -77t-140 -8t-120 81q-22 32 -29 60t27 54q4 4 18 12t18 10q40 -46 91 -63t100 -10t90 35t63 69t19 92t-45 105q-20 28 -46 32q-80 -42 -158 -34q-22 -4 -40 -1t-32 23l-6 6q-30 18 -62 58q-38 50 -43 112zM203 649q-11 -51 25 -87t144 -34q80 58 131 144 t55 178q-30 44 -85 38t-111 -43t-102 -91t-57 -105zM616 1236v6q6 -2 7 -4t-7 -2z" />
<glyph unicode="&#xa8;" horiz-adv-x="830" d="M231 1392q11 24 38 48t55 35t50 2t22 -51q0 -44 -25 -70t-67 -26q-54 0 -69 19t-4 43zM573 1406q11 24 38 48t55 35t50 2t22 -51q0 -44 -25 -70t-67 -26q-54 0 -69 19t-4 43z" />
<glyph unicode="&#xa9;" horiz-adv-x="1390" d="M54 514q0 2 1 12t1 14q70 258 170 426t222 270t262 152t292 72q28 0 37 -5t31 -25q62 -74 111 -136t82 -127t51 -137t18 -166q-22 -126 -82 -243t-143 -217t-183 -177t-206 -120t-209 -46t-193 42t-158 145t-104 266zM208 623q-18 -97 10 -183q60 -118 132 -178t150 -74 t157 10t153 75t140 123t118 151t85 161t41 152q0 70 -10 131t-35 116t-68 106t-111 101q-100 -2 -203 -43t-195 -110t-169 -158t-127 -186t-68 -194zM348 550q0 90 26 175t72 161t111 140t141 112v2q30 18 69 36t73 20t57 -16t23 -72q0 -12 -1 -28t-4 -33t-8 -32t-15 -23 q-8 -8 -19 -12t-21 -8q-12 -4 -24 -6v128q-46 -6 -107 -57t-115 -125t-92 -159t-38 -157q0 -58 30 -80t86 -22q60 0 117 14t113 32t113 32t117 14q0 -28 -7 -47t-23 -41q-106 -50 -215 -91t-229 -41q-36 0 -76 13t-74 37t-57 58t-23 76z" />
<glyph unicode="&#xaa;" horiz-adv-x="690" d="M37 536q12 68 45 125.5t76 99.5t93.5 69.5t98 35.5t88 -4t65.5 -48q0 -27 -14 -52t-30.5 -50t-30.5 -51.5t-14 -56.5q0 -31 15.5 -49.5t53.5 -18.5q32 0 62 8.5t60 8.5q5 0 17.5 -0.5t16.5 -0.5q-15 -20 -40.5 -34.5t-53 -24.5t-57.5 -15t-55 -5q-24 0 -42.5 9.5t-32 25 t-20.5 35.5t-7 39q-20 -21 -43 -43t-49 -39.5t-56 -29.5t-61 -12q-35 0 -60 23t-25 55zM124 573q0 -9 1 -21t16 -16q34 8 76 32t79 57t62.5 70.5t25.5 72.5q0 2 -1 7.5t-1 7.5q-45 0 -91 -16.5t-83 -46t-60.5 -67.5t-23.5 -80z" />
<glyph unicode="&#xab;" horiz-adv-x="1458" d="M10 454q0 22 18 38t36 28q20 12 63 38t96 59t113 70t113 70t96 59t63 40l42 28t36 19t39 11t53 4q0 -50 -26 -80t-66 -60q-24 -16 -87 -57t-133 -86t-132 -86t-88 -55q-28 -16 -28 -42v-6q0 -2 2 -4l492 -78q0 -4 2 -8q0 -4 1 -7t1 -5q0 -56 -56 -84h-25t-40 -1t-39 -1 h-26q-26 0 -75 3t-107 12t-118 23t-109 36t-80 52t-31 70zM588 564q0 22 18 37t36 27q20 12 62 39t96 60t113 69t113 69t97 60t63 39l42 28t36 19t39 11t53 4q0 -50 -26 -80t-66 -60q-16 -10 -51 -33t-78 -51t-91 -59t-91 -59t-78 -50t-51 -32q-30 -16 -30 -40v-8q0 -2 2 -4 l494 -76q0 -6 2 -10q0 -4 1 -7t1 -5q0 -54 -58 -84h-24t-39 -1t-39 -1h-26q-26 0 -75 4t-107 12t-118 23t-109 37t-80 52t-31 70z" />
<glyph unicode="&#xac;" horiz-adv-x="1028" d="M25 788q-5 26 18 34t65 6t90 2l690 24q46 2 64 -33t18 -69l-62 -382q-2 0 -6 -1t-8 -1q-32 0 -64 30q-12 64 -10 123t5 105t3 77t-14 41q-18 6 -75 4t-133 -9t-161 -16t-161 -16t-132 -10t-74 3q-48 62 -53 88z" />
<glyph unicode="&#xad;" horiz-adv-x="838" d="M152 466v54q54 6 117 15t129 18t131 15t123 6q16 0 34 1t35 -4t31 -16t20 -35q-12 -22 -48 -39t-86 -29t-106 -19t-104 -12t-83 -6t-41 -1q-18 0 -44 3t-50 10t-41 17t-17 22z" />
<glyph unicode="&#xae;" horiz-adv-x="1570" d="M48 256q0 2 1 14t1 16q-4 194 24 378t89 345t152 290t212 212t273 110t332 -15q16 0 26 -1t17 -4t14 -11t17 -20q48 -54 83 -96t61 -81t46 -80t37 -93t32 -120t35 -160q14 -196 -37 -359t-148 -289t-231 -213t-288 -129t-318 -38t-320 60q-36 20 -57 55t-33 76t-16 81 t-4 72zM187 412q5 -126 43 -238q66 -96 171 -126t224 -9t243 85t230 156q-42 -6 -79 22t-72 75t-69 105t-70 111t-75 95t-85 58q0 -26 -4 -91t-8 -137t-8 -137t-6 -91q-2 -18 -2 -28t-1 -16t-7 -11t-18 -11q-22 -12 -48 -4t-36 30q-16 76 -21 167t-2 186t12 191t19 180 q6 114 41 210t89 151t124 59t146 -66q26 -50 27 -109t-13 -117t-38 -113t-47 -97t-40 -69t-15 -29q20 -34 48 -81t63 -97t75 -96t82 -77t84 -42t80 9q50 62 84 114t51 111t20 134t-7 181q-26 102 -44 171t-44 122t-69 98t-117 103q-102 56 -201 56t-192 -44t-174 -125 t-147 -186t-112 -228t-68 -251t-17 -254zM631 953q-3 -61 15 -93q32 -20 68 7t66 79t50 117t23 117t-17 81t-68 11q-40 -22 -70 -76t-47 -118t-20 -125z" />
<glyph unicode="&#xaf;" horiz-adv-x="838" d="M74 1140l12 80q54 6 126 8t148 4t148 2h130q34 0 62 -15t42 -61q-52 -10 -117 -17t-134 -12t-137 -7t-125 -1t-98 6t-57 13z" />
<glyph unicode="&#xb0;" horiz-adv-x="578" d="M58 950q0 4 1 24t1 24q52 162 130 261t172 105q2 0 9 1t11 1q42 0 69 -17t43 -44t23 -60t7 -65q0 -58 -28 -121t-75 -115t-108 -86t-127 -34t-97 33t-31 93zM178 968q0 -16 13 -23t29 -7q38 0 75 20t66 51t46 68t17 71q0 18 -2 38t-10 36t-25 24t-47 2q-22 -4 -50 -39 t-53 -80t-42 -90t-17 -71z" />
<glyph unicode="&#xb1;" horiz-adv-x="998" d="M20 600q0 6 2 14t4 8l390 78q12 2 21 18t16 35t10 35l3 16q2 8 7 31t9 47t8 46t4 32h6q2 0 3 1t3 1q34 0 63 -29t29 -63q0 -14 -7 -33t-16 -39t-18 -39t-13 -31q10 0 34 -2t32 -2q84 0 164 15t164 15q18 0 35 -10t17 -32q0 -12 -19 -22t-43 -19t-45 -15t-27 -6 q-20 -4 -68 -12t-101 -16t-101 -15t-66 -9l-68 -272q100 2 189 3t145 1q16 0 35 1t36 -4t31 -16t20 -35q-12 -24 -64 -38t-124 -22t-153 -11t-151 -3t-120 1t-56 1q-18 0 -44 4t-50 11t-41 17t-17 22v54q42 4 107 6t141 6v12q0 54 12 105t12 103h-282q-30 0 -44 17t-14 39z " />
<glyph unicode="&#xb2;" horiz-adv-x="674" d="M40 364q0 3 1 13t2 15q67 51 115 96.5t88.5 92.5t79.5 100t90 121q28 51 26.5 68t-22.5 13t-56.5 -23t-75 -39.5t-79 -37t-66.5 -14.5q0 16 17.5 35.5t46 39.5t63 39.5t68.5 35t63 25t46 9.5q14 0 27.5 -5t24 -13.5t17.5 -19.5t7 -23q0 -37 -20.5 -78.5t-50.5 -81.5 t-65 -78.5t-65 -70t-50.5 -55.5t-20.5 -34q43 -26 81 -47q32 -17 62 -31t43 -14q23 0 42 7t37 11.5t37 3t43 -18.5q0 -1 -8.5 -7t-20 -15t-25 -18t-21.5 -15q-45 -26 -84 -22.5t-76 20.5t-73.5 39.5t-74.5 32.5q-31 0 -45.5 -15.5t-25.5 -33.5t-23.5 -33.5t-39.5 -15.5 q-25 0 -32 10.5t-7 31.5z" />
<glyph unicode="&#xb3;" horiz-adv-x="690" d="M31 505q0 12 12 13.5t18 1.5q17 0 29.5 -9.5t22.5 -24t19.5 -31.5t21.5 -31.5t28.5 -24t40.5 -9.5q60 0 115 24.5t96.5 65t66.5 93.5t25 109q0 24 -12 44t-42 20q-1 0 -3 -0.5t-4 -0.5q-3 -1 -16.5 -7.5t-28.5 -14t-28 -13.5t-17 -7q-2 -1 -11.5 1.5t-19 7t-18 9.5 t-10.5 9q18 25 50 54.5t67 58.5t65 55t43 45q0 29 -16 32t-40.5 -6t-55.5 -23t-62 -18h-3q-1 0 -4 2q-2 1 -8.5 4.5t-13.5 8t-13 8.5l-9 6q20 23 47.5 44t59.5 36.5t65 24.5t64 9q23 0 41 -2t30 -9t18.5 -20.5t6.5 -37.5q0 -4 -2.5 -11t-14 -26.5t-36 -55t-69.5 -94.5 q13 -10 26.5 -23t24.5 -29t18 -32.5t7 -34.5q0 -70 -30 -135.5t-80.5 -115.5t-117 -80.5t-140.5 -30.5q-40 0 -76.5 11t-65 32.5t-45 54t-16.5 73.5z" />
<glyph unicode="&#xb4;" horiz-adv-x="474" d="M84 1338q8 20 36 68t64 99t73 95t65 58q34 -2 30 -33t-29 -74t-63 -91t-76 -83t-67 -49t-33 10z" />
<glyph unicode="&#xb5;" horiz-adv-x="924" d="M76 -134q0 40 1 76t1 60v28q0 30 1 100t4 156t10 177t18 166t28 124t43 49q28 0 54 -3t26 -31q-46 -266 -29 -420t77 -165t155 138t209 491q8 24 24 27t35 -3t38 -15t31 -9q0 -76 -9 -138t-19 -122t-19 -122t-9 -138q0 -32 9 -71t24 -75t32 -60t35 -26v-52 q-92 -4 -153 61t-101 191q-18 -84 -68 -142t-111 -84t-126 -15t-115 67q0 18 7 -9t13 -77t8 -111t-8 -109t-35 -72t-71 0q-4 2 -6 26t-3 58t-1 74z" />
<glyph unicode="&#xb6;" horiz-adv-x="1088" d="M44 1174q0 88 36 143t94 85t131 40t147 10q22 0 58 -2t93 -8t140 -19t197 -33q38 -6 60 -15t32 -25t13 -40t3 -60q-146 -318 -240 -556t-149 -393t-78 -227t-29 -58h-29t-38 1t-33 6t-14 17v8q0 2 2 6q60 152 110 298t101 290t105 288t124 294l-174 6q0 -20 -16 -83 t-44 -153t-63 -199t-74 -220t-79 -215t-75 -184t-63 -129t-44 -49q-46 0 -70 28t-24 68v19t2 17l336 828v20q-54 0 -78 -5t-45 -10t-50 -10t-91 -5q-42 0 -76 22t-58 56t-37 74t-13 74z" />
<glyph unicode="&#xb7;" horiz-adv-x="528" d="M198 580q2 26 23 43t48 17t53 -21t40 -75q0 -42 -24 -69t-68 -27q-6 0 -18 -3t-24 6t-21 38t-9 91z" />
<glyph unicode="&#xb8;" horiz-adv-x="656" d="M116 -304q0 28 8 46t40 18h14t14 -2q-2 -62 22 -93t82 -31q50 0 82 7t50 25t25 51t7 87q0 32 -19 48t-42 28t-42 24t-19 36q-4 94 16 136t41 38t32 -50t-11 -124q22 -16 46 -29t43 -27t32 -32t13 -44q0 -140 -56 -200t-188 -60q-76 0 -133 36t-57 112z" />
<glyph unicode="&#xb9;" horiz-adv-x="484" d="M33 321q0 1 1 4.5t1 5.5q33 47 70.5 105t76.5 118t76.5 117t71.5 105q12 13 25 17t34 4q41 0 41 -21q-3 -18 -21.5 -57.5t-54.5 -98t-90.5 -134t-131.5 -165.5q-6 -9 -29 -15.5t-38 -6.5q-17 0 -24.5 7t-7.5 15z" />
<glyph unicode="&#xba;" d="M15 654q0 6 1 23.5t1 23.5q50 102 129 189.5t178 154.5q4 0 11 2t10 2q43 0 70.5 -16t44 -42t22.5 -57.5t6 -61.5q0 -55 -28 -114.5t-76.5 -109.5t-110 -81.5t-127.5 -31.5t-98.5 31.5t-32.5 87.5zM138 671q0 -15 14.5 -21t28.5 -6q39 0 76 19t66.5 48t47 64t17.5 68 q0 15 -2.5 34t-10.5 33.5t-24.5 23t-46.5 3.5q-22 -4 -50.5 -36.5t-54.5 -75.5t-43.5 -86t-17.5 -68z" />
<glyph unicode="&#xbb;" horiz-adv-x="1520" d="M49 769q3 29 27 45t61 20t74 -3t65 -27t36 -52l464 -180q82 -34 82 -104q0 -32 -21 -48t-51 -22t-61 -7t-51 -1l-544 -234q-4 0 -7 -1t-7 -1q-18 0 -33 7t-31 21q14 38 51 72t88 64t111 54t118 43t111 32t89 19q0 2 1 7t1 7q0 26 -30 42t-48 22q-26 10 -92 32l-141 47 l-141 47t-92 30q-32 40 -29 69zM637 769q3 29 27 45t61 20t74 -3t65 -27t36 -52l464 -180q82 -34 82 -104q0 -32 -21 -48t-51 -22t-61 -7t-51 -1l-546 -234q-2 0 -5 -1t-7 -1q-18 0 -33 7t-33 21q14 38 51 72t88 64t111 54t119 43t111 32t90 19q0 2 1 7t1 7q0 26 -30 42 t-48 22q-28 10 -94 32t-140 47t-140 47t-92 30q-32 40 -29 69z" />
<glyph unicode="&#xbc;" horiz-adv-x="1484" d="M34 340q0 2 0.5 7t0.5 8q34 67 72.5 148.5t78 166.5t78 166t73.5 148q12 19 25 25t35 6q41 0 41 -31q-3 -25 -21.5 -81t-55 -139t-92.5 -189.5t-134 -234.5q-6 -12 -30 -21t-39 -9q-17 0 -24.5 9.5t-7.5 20.5zM172 59v17q0 30 7 51t47 37q16 28 50 87t77 133t91 156 t92 156t79 133t53 87q20 34 56 87t78 108t88 107t88 86q4 2 16 5t16 3q0 -30 -27 -88t-69 -129t-94 -149t-102 -152t-91 -138t-63 -104q-24 -42 -59 -113t-77 -146t-87 -146t-89 -113q-6 -6 -26 -16t-24 -10q-12 0 -19 9t-9 20t-2 22zM422 369q0 9 22 47t56.5 88.5t76 107 t81 104.5t71 78.5t45.5 30.5q0 -37 -14 -75t-34.5 -77t-45 -79t-44.5 -79q0 -2 13 -4t31.5 -5t37 -5.5t31.5 -4.5h53q2 0 11.5 -1t20 0t19.5 5t11 15q4 10 14 31.5t23 48.5t27 56.5t27.5 56.5t23.5 48t15 31q15 29 27 52t26 39.5t32.5 25t48.5 8.5q0 -11 -11.5 -39 t-27 -59.5t-29 -59t-17.5 -36.5q-1 -9 -11 -29.5t-23.5 -46t-28 -54t-25 -52t-14.5 -39t4 -18.5q21 0 37 10.5t37 10.5q14 0 27 -5t13 -24t-13 -30.5t-33 -18.5t-45.5 -13.5t-49 -15.5t-43 -25t-28.5 -41q-10 -30 -26.5 -81.5t-39.5 -101.5t-55 -86.5t-74 -36.5q-11 0 -20 2 t-13 16q27 34 52 78.5t49 91t43.5 91t34.5 78.5v4q0 3 0.5 3.5t0.5 2.5q0 21 -19.5 30t-44.5 11.5t-49.5 2t-34.5 -0.5q-48 0 -72.5 -16.5t-39.5 -36t-28.5 -36t-38.5 -16.5q-17 0 -33.5 12t-16.5 31z" />
<glyph unicode="&#xbd;" horiz-adv-x="1434" d="M74 346q0 3 1 10t1 10q27 92 58 204.5t63 229.5t63 228.5t59 203.5q10 26 20.5 34t28.5 8q33 0 33 -42q-3 -35 -17.5 -112t-44.5 -191t-75 -261t-108 -322q-5 -17 -24 -29.5t-32 -12.5t-19.5 13.5t-6.5 28.5zM144 85v17q0 30 7 51t47 37q16 28 50 87t77 133t91 156 t92 156t79 133t53 87q20 34 56 87t78 108t88 107t88 86q4 2 16 5t16 3q0 -30 -27 -88t-69 -129t-94 -149t-102 -152t-91 -138t-63 -104q-24 -42 -59 -113t-77 -146t-87 -146t-89 -113q-6 -6 -26 -16t-24 -10q-12 0 -19 9t-9 20t-2 22zM513 65q0 4 1.5 17t3.5 18 q88 68 151 127t116 120t104.5 130t118.5 157q36 66 33.5 89t-29.5 17.5t-73.5 -30.5t-98.5 -51.5t-103.5 -48t-88.5 -18.5q0 20 23.5 45.5t61 51.5t83 51.5t90 45.5t82.5 32.5t60 12.5q19 0 36.5 -6.5t31 -17.5t22.5 -25.5t9 -30.5q0 -48 -26.5 -101.5t-66 -105.5 t-85.5 -102.5t-85.5 -91.5t-66 -72t-26.5 -45q56 -34 106 -60q42 -23 81.5 -41t56.5 -18q30 0 55 9t48.5 15t48.5 4t57 -24q0 -1 -11.5 -9.5t-26.5 -20t-32.5 -23t-28.5 -18.5q-59 -35 -110.5 -30t-100 27t-96 51t-97.5 42q-41 0 -60 -20t-33.5 -44t-31 -43.5t-51.5 -19.5 q-33 0 -42.5 13.5t-9.5 41.5z" />
<glyph unicode="&#xbe;" horiz-adv-x="1890" d="M33 511q0 13 14 14.5t21 1.5q20 0 34 -10.5t26 -26t23 -34.5t25 -34.5t32.5 -26t46.5 -10.5q70 0 133.5 26.5t111.5 71t76.5 102.5t28.5 119q0 26 -13.5 48t-47.5 22q-2 0 -4.5 -0.5t-3.5 -0.5q-4 -1 -19.5 -8.5t-33 -15.5t-32.5 -14.5t-20 -8.5q-2 -1 -13 2t-22 8 t-21 10t-12 10q20 28 57.5 60t77.5 63.5t75 60t50 48.5q0 32 -18.5 35t-47 -6.5t-64 -25t-71.5 -18.5h-4q-1 0 -4 1t-10 5.5t-15 9t-15.5 8.5t-10.5 7q23 25 55 48t69 40t75 27t74 10q27 0 47.5 -2.5t34.5 -10t21.5 -22.5t7.5 -41q0 -4 -3 -11.5t-16 -29t-42 -60.5t-81 -103 q16 -11 31.5 -25t28 -31.5t20.5 -36t8 -37.5q0 -76 -34.5 -147.5t-92.5 -126.5t-135 -88t-162 -33q-47 0 -89 12t-75 35.5t-52.5 59t-19.5 80.5zM472 85v17q0 30 7 51t47 37q16 28 50 87t77 133t91 156t92 156t79 133t53 87q20 34 56 87t78 108t88 107t88 86q4 2 16 5t16 3 q0 -30 -27 -88t-69 -129t-94 -149t-102 -152t-91 -138t-63 -104q-24 -42 -59 -113t-77 -146t-87 -146t-89 -113q-6 -6 -26 -16t-24 -10q-12 0 -19 9t-9 20t-2 22zM723 433q0 13 26 63.5t67 117.5t90 141.5t95.5 138t84 104.5t53.5 41q0 -49 -16.5 -99.5t-41 -102.5 t-53.5 -105t-52 -105q0 -2 15.5 -4.5t37 -7t43.5 -8t37 -5.5h63q3 0 14 -1.5t23.5 0t23 7t13.5 19.5q4 14 16 42.5t27 64t32 75t32.5 75t27.5 63.5l18 42q18 38 32 68.5t30.5 52t38.5 33t58 11.5q0 -14 -14 -51.5t-32 -79t-34 -78t-21 -49.5q-1 -12 -13 -39t-27.5 -61 t-33 -71t-30 -68.5t-17 -52.5t4.5 -24q25 0 44 13.5t44 13.5q16 0 31.5 -6.5t15.5 -31.5q0 -26 -15.5 -41t-39 -24.5t-53.5 -18t-58 -20.5t-51 -33t-34 -54q-12 -40 -31 -109t-46.5 -135t-65.5 -115t-87 -49q-14 0 -24 2.5t-15 22.5q31 45 61 104t58 121t51 121t41 105v5 q0 3 1 4t1 3q0 28 -23 40t-53 15.5t-59 2.5t-41 -1q-56 0 -85 -21.5t-47 -48t-33.5 -48t-45.5 -21.5q-21 0 -40 15.5t-19 41.5z" />
<glyph unicode="&#xbf;" horiz-adv-x="914" d="M181 794q0 -21 20 -26t40 -5q14 0 35.5 3t40.5 10t31.5 18t6.5 27q-7 22 -30 29.5t-44 7.5q-36 0 -68 -18.5t-32 -45.5zM304 -233q0 -3 20 -14t47.5 -25.5t57 -29.5t48.5 -23q32 -13 72 -16t76 -3q80 0 127.5 24t47.5 87q-6 40 -40 91.5t-80.5 110t-99 121t-91.5 122 t-58.5 113.5t-0.5 96q-19 8 -32.5 13t-30.5 5t-25.5 -7t-11.5 -17t-3 -20.5v-17.5q0 -75 38 -152.5t94 -151.5t120.5 -143t119.5 -128q0 -1 1 -4t1 -5q0 -26 -29.5 -36.5t-55.5 -10.5q-46 0 -83 12t-72 22t-73 10.5t-84 -23.5z" />
<glyph unicode="&#xc0;" horiz-adv-x="1756" d="M24 352q0 32 11 49t47 17q18 0 32 -33t37 -74t59 -74t98 -33q76 0 149 29t140 74t126 101t107 110q-6 50 -36 74t-63 48t-59 64t-26 126q0 122 74 191t202 69q38 0 75 -8t75 -19t75 -19t75 -8q24 0 39 6t27 18t26 32t36 48q12 16 37 51t55 78t64 91t64 92t54 78t34 52 q22 18 40 23t42 5t36 -17t15 -41t2 -49t-1 -39v-19t-1 -27t-1 -27v-17q-6 -20 -19 -60t-29 -91t-33 -107t-32 -108t-27 -92t-16 -60q-2 -10 -6 -32t-8 -47t-8 -47t-4 -30q18 -4 36 -12t18 -26q0 -20 -15 -32t-35 -22t-37 -24t-19 -40q-4 -24 -14 -87t-23 -134t-24 -133 t-17 -86q-2 -6 -8 -22t-14 -32t-16 -30t-12 -20q-48 10 -78 25t-30 65t7 100t16 99t16 100t7 103q-66 0 -114 -6t-94 -12t-98 -9t-126 1q-54 -60 -123 -128t-147 -126t-164 -97t-174 -39q-60 0 -115 20t-97 56t-66 87t-24 113zM724 856q0 -28 20 -64t50 -68t64 -54t64 -22 q28 0 66 34t73 79t59 87t24 58q0 34 -23 51t-54 24t-65 7h-56q-28 0 -67 -5t-73 -19t-58 -40t-24 -68zM1028 588q12 0 47 1t74 2t74 3t49 2q8 0 25 4t33 8t29 8t15 6q2 0 2 13v21q0 16 -5 50t-16 68t-28 59t-41 25t-67 -34t-85 -79t-74 -90t-32 -67zM1324 958 q44 -52 82 -112t72 -122l178 640zM1521 2092q-3 30 33 32q28 -16 68 -59t78 -93t68 -96t38 -68q-4 -24 -35 -10t-71 49t-81 82t-68 90t-30 73z" />
<glyph unicode="&#xc1;" horiz-adv-x="1756" d="M24 352q0 32 11 49t47 17q18 0 32 -33t37 -74t59 -74t98 -33q76 0 149 29t140 74t126 101t107 110q-6 50 -36 74t-63 48t-59 64t-26 126q0 122 74 191t202 69q38 0 75 -8t75 -19t75 -19t75 -8q24 0 39 6t27 18t26 32t36 48q12 16 37 51t55 78t64 91t64 92t54 78t34 52 q22 18 40 23t42 5t36 -17t15 -41t2 -49t-1 -39v-19t-1 -27t-1 -27v-17q-6 -20 -19 -60t-29 -91t-33 -107t-32 -108t-27 -92t-16 -60q-2 -10 -6 -32t-8 -47t-8 -47t-4 -30q18 -4 36 -12t18 -26q0 -20 -15 -32t-35 -22t-37 -24t-19 -40q-4 -24 -14 -87t-23 -134t-24 -133 t-17 -86q-2 -6 -8 -22t-14 -32t-16 -30t-12 -20q-48 10 -78 25t-30 65t7 100t16 99t16 100t7 103q-66 0 -114 -6t-94 -12t-98 -9t-126 1q-54 -60 -123 -128t-147 -126t-164 -97t-174 -39q-60 0 -115 20t-97 56t-66 87t-24 113zM724 856q0 -28 20 -64t50 -68t64 -54t64 -22 q28 0 66 34t73 79t59 87t24 58q0 34 -23 51t-54 24t-65 7h-56q-28 0 -67 -5t-73 -19t-58 -40t-24 -68zM1028 588q12 0 47 1t74 2t74 3t49 2q8 0 25 4t33 8t29 8t15 6q2 0 2 13v21q0 16 -5 50t-16 68t-28 59t-41 25t-67 -34t-85 -79t-74 -90t-32 -67zM1324 958 q44 -52 82 -112t72 -122l178 640zM1636 1790q8 20 36 68t64 99t73 95t65 58q34 -2 30 -33t-29 -74t-63 -91t-76 -83t-67 -49t-33 10z" />
<glyph unicode="&#xc2;" horiz-adv-x="1756" d="M24 352q0 32 11 49t47 17q18 0 32 -33t37 -74t59 -74t98 -33q76 0 149 29t140 74t126 101t107 110q-6 50 -36 74t-63 48t-59 64t-26 126q0 122 74 191t202 69q38 0 75 -8t75 -19t75 -19t75 -8q24 0 39 6t27 18t26 32t36 48q12 16 37 51t55 78t64 91t64 92t54 78t34 52 q22 18 40 23t42 5t36 -17t15 -41t2 -49t-1 -39v-19t-1 -27t-1 -27v-17q-6 -20 -19 -60t-29 -91t-33 -107t-32 -108t-27 -92t-16 -60q-2 -10 -6 -32t-8 -47t-8 -47t-4 -30q18 -4 36 -12t18 -26q0 -20 -15 -32t-35 -22t-37 -24t-19 -40q-4 -24 -14 -87t-23 -134t-24 -133 t-17 -86q-2 -6 -8 -22t-14 -32t-16 -30t-12 -20q-48 10 -78 25t-30 65t7 100t16 99t16 100t7 103q-66 0 -114 -6t-94 -12t-98 -9t-126 1q-54 -60 -123 -128t-147 -126t-164 -97t-174 -39q-60 0 -115 20t-97 56t-66 87t-24 113zM724 856q0 -28 20 -64t50 -68t64 -54t64 -22 q28 0 66 34t73 79t59 87t24 58q0 34 -23 51t-54 24t-65 7h-56q-28 0 -67 -5t-73 -19t-58 -40t-24 -68zM1028 588q12 0 47 1t74 2t74 3t49 2q8 0 25 4t33 8t29 8t15 6q2 0 2 13v21q0 16 -5 50t-16 68t-28 59t-41 25t-67 -34t-85 -79t-74 -90t-32 -67zM1298 1742q0 16 19 51 t49 78t67 88t72 81t65 60t46 24q32 0 67 -20t70 -53t67 -72t56 -78t39 -72t15 -51q-2 -42 -23 -38t-51 34t-64 75t-64 86t-52 65t-26 12q-14 0 -19 -4t-15 -14q-42 -18 -77 -52t-63 -72t-52 -74t-45 -58t-41 -24t-40 28zM1324 958q44 -52 82 -112t72 -122l178 640z" />
<glyph unicode="&#xc3;" horiz-adv-x="1756" d="M24 352q0 32 11 49t47 17q18 0 32 -33t37 -74t59 -74t98 -33q76 0 149 29t140 74t126 101t107 110q-6 50 -36 74t-63 48t-59 64t-26 126q0 122 74 191t202 69q38 0 75 -8t75 -19t75 -19t75 -8q24 0 39 6t27 18t26 32t36 48q12 16 37 51t55 78t64 91t64 92t54 78t34 52 q22 18 40 23t42 5t36 -17t15 -41t2 -49t-1 -39v-19t-1 -27t-1 -27v-17q-6 -20 -19 -60t-29 -91t-33 -107t-32 -108t-27 -92t-16 -60q-2 -10 -6 -32t-8 -47t-8 -47t-4 -30q18 -4 36 -12t18 -26q0 -20 -15 -32t-35 -22t-37 -24t-19 -40q-4 -24 -14 -87t-23 -134t-24 -133 t-17 -86q-2 -6 -8 -22t-14 -32t-16 -30t-12 -20q-48 10 -78 25t-30 65t7 100t16 99t16 100t7 103q-66 0 -114 -6t-94 -12t-98 -9t-126 1q-54 -60 -123 -128t-147 -126t-164 -97t-174 -39q-60 0 -115 20t-97 56t-66 87t-24 113zM724 856q0 -28 20 -64t50 -68t64 -54t64 -22 q28 0 66 34t73 79t59 87t24 58q0 34 -23 51t-54 24t-65 7h-56q-28 0 -67 -5t-73 -19t-58 -40t-24 -68zM1028 588q12 0 47 1t74 2t74 3t49 2q8 0 25 4t33 8t29 8t15 6q2 0 2 13v21q0 16 -5 50t-16 68t-28 59t-41 25t-67 -34t-85 -79t-74 -90t-32 -67zM1324 958 q44 -52 82 -112t72 -122l178 640zM1336 2038q0 16 28 36t64 38t70 30t46 12q62 0 105 -29t82 -63t84 -63t111 -29q84 0 125 22t60 49t25 50t22 23q22 0 46 -6t24 -36q-14 -58 -45 -94t-75 -60t-97 -37t-109 -25q-46 -4 -79 11t-62 39t-56 51t-60 47t-76 27t-101 -9 q-4 0 -20 -4t-33 -8t-32 -8t-19 -4q-16 0 -22 14t-6 26z" />
<glyph unicode="&#xc4;" horiz-adv-x="1756" d="M24 352q0 32 11 49t47 17q18 0 32 -33t37 -74t59 -74t98 -33q76 0 149 29t140 74t126 101t107 110q-6 50 -36 74t-63 48t-59 64t-26 126q0 122 74 191t202 69q38 0 75 -8t75 -19t75 -19t75 -8q24 0 39 6t27 18t26 32t36 48q12 16 37 51t55 78t64 91t64 92t54 78t34 52 q22 18 40 23t42 5t36 -17t15 -41t2 -49t-1 -39v-19t-1 -27t-1 -27v-17q-6 -20 -19 -60t-29 -91t-33 -107t-32 -108t-27 -92t-16 -60q-2 -10 -6 -32t-8 -47t-8 -47t-4 -30q18 -4 36 -12t18 -26q0 -20 -15 -32t-35 -22t-37 -24t-19 -40q-4 -24 -14 -87t-23 -134t-24 -133 t-17 -86q-2 -6 -8 -22t-14 -32t-16 -30t-12 -20q-48 10 -78 25t-30 65t7 100t16 99t16 100t7 103q-66 0 -114 -6t-94 -12t-98 -9t-126 1q-54 -60 -123 -128t-147 -126t-164 -97t-174 -39q-60 0 -115 20t-97 56t-66 87t-24 113zM724 856q0 -28 20 -64t50 -68t64 -54t64 -22 q28 0 66 34t73 79t59 87t24 58q0 34 -23 51t-54 24t-65 7h-56q-28 0 -67 -5t-73 -19t-58 -40t-24 -68zM1028 588q12 0 47 1t74 2t74 3t49 2q8 0 25 4t33 8t29 8t15 6q2 0 2 13v21q0 16 -5 50t-16 68t-28 59t-41 25t-67 -34t-85 -79t-74 -90t-32 -67zM1324 958 q44 -52 82 -112t72 -122l178 640zM1519 1836q11 24 38 48t55 35t50 2t22 -51q0 -44 -25 -70t-67 -26q-54 0 -69 19t-4 43zM1861 1850q11 24 38 48t55 35t50 2t22 -51q0 -44 -25 -70t-67 -26q-54 0 -69 19t-4 43z" />
<glyph unicode="&#xc5;" horiz-adv-x="1756" d="M24 352q0 32 11 49t47 17q18 0 32 -33t37 -74t59 -74t98 -33q76 0 149 29t140 74t126 101t107 110q-6 50 -36 74t-63 48t-59 64t-26 126q0 122 74 191t202 69q38 0 75 -8t75 -19t75 -19t75 -8q24 0 39 6t27 18t26 32t36 48q12 16 37 51t55 78t64 91t64 92t54 78t34 52 q22 18 40 23t42 5t36 -17t15 -41t2 -49t-1 -39v-19t-1 -27t-1 -27v-17q-6 -20 -19 -60t-29 -91t-33 -107t-32 -108t-27 -92t-16 -60q-2 -10 -6 -32t-8 -47t-8 -47t-4 -30q18 -4 36 -12t18 -26q0 -20 -15 -32t-35 -22t-37 -24t-19 -40q-4 -24 -14 -87t-23 -134t-24 -133 t-17 -86q-2 -6 -8 -22t-14 -32t-16 -30t-12 -20q-48 10 -78 25t-30 65t7 100t16 99t16 100t7 103q-66 0 -114 -6t-94 -12t-98 -9t-126 1q-54 -60 -123 -128t-147 -126t-164 -97t-174 -39q-60 0 -115 20t-97 56t-66 87t-24 113zM724 856q0 -28 20 -64t50 -68t64 -54t64 -22 q28 0 66 34t73 79t59 87t24 58q0 34 -23 51t-54 24t-65 7h-56q-28 0 -67 -5t-73 -19t-58 -40t-24 -68zM1028 588q12 0 47 1t74 2t74 3t49 2q8 0 25 4t33 8t29 8t15 6q2 0 2 13v21q0 16 -5 50t-16 68t-28 59t-41 25t-67 -34t-85 -79t-74 -90t-32 -67zM1324 958 q44 -52 82 -112t72 -122l178 640zM1562 1676q0 4 1 23t1 23q50 110 127 202t177 164q2 0 9 1t11 1q40 0 67 -17t44 -44t24 -60t7 -65q0 -58 -28 -121t-75 -115t-108 -86t-127 -34t-98 34t-32 94zM1684 1694q0 -16 13 -24t27 -8q38 0 76 20t66 51t46 69t18 72q0 16 -2 36 t-11 36t-25 24t-46 2q-22 -4 -50 -38t-53 -79t-42 -90t-17 -71z" />
<glyph unicode="&#xc6;" horiz-adv-x="2312" d="M24 352q0 32 11 49t47 17q18 0 32 -33t37 -74t59 -74t98 -33q76 0 149 29t140 74t126 101t107 110q-6 50 -36 74t-63 48t-59 64t-26 126q0 122 74 191t202 69q38 0 75 -8t75 -19t75 -19t75 -8q24 0 39 6t27 18t26 32t36 48q12 16 37 51t55 78t64 91t64 92t54 78t34 52 q22 18 40 23t42 5t36 -17t15 -41t2 -49t-1 -39v-19t-1 -27t-1 -27v-17q-6 -20 -19 -60t-29 -91t-33 -107t-32 -108t-27 -92t-16 -60q-2 -10 -6 -32t-8 -47t-8 -47t-4 -30q18 -4 36 -12t18 -26q0 -20 -15 -32t-35 -22t-37 -24t-19 -40q-4 -24 -14 -87t-23 -134t-24 -133 t-17 -86q-2 -6 -8 -22t-14 -32t-16 -30t-12 -20q-48 10 -78 25t-30 65t7 100t16 99t16 100t7 103q-66 0 -114 -6t-94 -12t-98 -9t-126 1q-54 -60 -123 -128t-147 -126t-164 -97t-174 -39q-60 0 -115 20t-97 56t-66 87t-24 113zM724 856q0 -28 20 -64t50 -68t64 -54t64 -22 q28 0 66 34t73 79t59 87t24 58q0 34 -23 51t-54 24t-65 7h-56q-28 0 -67 -5t-73 -19t-58 -40t-24 -68zM1028 588q12 0 47 1t74 2t74 3t49 2q8 0 25 4t33 8t29 8t15 6q2 0 2 13v21q0 16 -5 50t-16 68t-28 59t-41 25t-67 -34t-85 -79t-74 -90t-32 -67zM1324 958 q44 -52 82 -112t72 -122l178 640zM1444 306q6 96 58 181t123 159t150 137t139 117q0 12 -11 32t-17 70q0 88 40 161t105 124t146 79t165 28q36 0 60 -27t38 -65t19 -78t5 -66h-70q0 22 -5 46t-16 43t-28 32t-43 13q-46 0 -100 -25t-101 -64t-79 -89t-32 -100q0 -26 17 -37 t44 -15t57 -4t57 -3t44 -15t17 -38q0 -16 -4 -31t-24 -25q-116 -30 -209 -71t-169 -98t-141 -135t-127 -186q0 -4 -1 -20t-1 -20q0 -72 41 -109t109 -37q76 0 171 24t185 52t165 52t111 24q-2 -44 -38 -84t-94 -73t-131 -59t-148 -42t-146 -22t-125 0q-52 0 -91 24t-64 62 t-38 85t-13 93z" />
<glyph unicode="&#xc7;" horiz-adv-x="884" d="M26 222q14 116 50 221t88 204t116 195t136 194q42 54 92 110t108 102t125 75t141 29q40 0 62 -5t33 -20t13 -43t0 -72q0 -50 -18 -102t-50 -98t-76 -81t-94 -51v28q0 42 19 80t43 77t43 81t19 90q-22 0 -38 3t-29 4t-26 -4t-31 -21q-98 -80 -201 -187t-187 -231 t-137 -259t-53 -271q0 -6 1 -20l2 -28t3 -26t2 -14q22 -22 53 -26t47 -4q86 0 161 30t147 65t145 65t155 30q0 -32 -37 -71t-96 -77t-131 -73t-141 -63t-126 -44t-87 -16q-44 0 -88 17t-79 47t-57 71t-22 89zM100 -336q0 28 8 46t40 18h14t14 -2q-2 -62 22 -93t82 -31 q50 0 82 7t50 25t25 51t7 87q0 32 -19 48t-42 28t-42 24t-19 36q-4 94 16 136t41 38t32 -50t-11 -124q22 -16 46 -29t43 -27t32 -32t13 -44q0 -140 -56 -200t-188 -60q-76 0 -133 36t-57 112z" />
<glyph unicode="&#xc8;" horiz-adv-x="870" d="M24 262q6 96 58 181t123 159t150 137t139 117q0 12 -11 32t-17 70q0 88 40 161t105 124t146 79t165 28q36 0 60 -27t38 -65t19 -78t5 -66h-70q0 22 -5 46t-16 43t-28 32t-43 13q-46 0 -100 -25t-101 -64t-79 -89t-32 -100q0 -26 17 -37t44 -15t57 -4t57 -3t44 -15t17 -38 q0 -16 -4 -31t-24 -25q-116 -30 -209 -71t-169 -98t-141 -135t-127 -186q0 -4 -1 -20t-1 -20q0 -72 41 -109t109 -37q76 0 171 24t185 52t165 52t111 24q-2 -44 -38 -84t-94 -73t-131 -59t-148 -42t-146 -22t-125 0q-52 0 -91 24t-64 62t-38 85t-13 93zM717 1854 q-3 30 33 32q28 -16 68 -59t78 -93t68 -96t38 -68q-4 -24 -35 -10t-71 49t-81 82t-68 90t-30 73z" />
<glyph unicode="&#xc9;" horiz-adv-x="870" d="M24 262q6 96 58 181t123 159t150 137t139 117q0 12 -11 32t-17 70q0 88 40 161t105 124t146 79t165 28q36 0 60 -27t38 -65t19 -78t5 -66h-70q0 22 -5 46t-16 43t-28 32t-43 13q-46 0 -100 -25t-101 -64t-79 -89t-32 -100q0 -26 17 -37t44 -15t57 -4t57 -3t44 -15t17 -38 q0 -16 -4 -31t-24 -25q-116 -30 -209 -71t-169 -98t-141 -135t-127 -186q0 -4 -1 -20t-1 -20q0 -72 41 -109t109 -37q76 0 171 24t185 52t165 52t111 24q-2 -44 -38 -84t-94 -73t-131 -59t-148 -42t-146 -22t-125 0q-52 0 -91 24t-64 62t-38 85t-13 93zM640 1460q8 20 36 68 t64 99t73 95t65 58q34 -2 30 -33t-29 -74t-63 -91t-76 -83t-67 -49t-33 10z" />
<glyph unicode="&#xca;" horiz-adv-x="870" d="M24 262q6 96 58 181t123 159t150 137t139 117q0 12 -11 32t-17 70q0 88 40 161t105 124t146 79t165 28q36 0 60 -27t38 -65t19 -78t5 -66h-70q0 22 -5 46t-16 43t-28 32t-43 13q-46 0 -100 -25t-101 -64t-79 -89t-32 -100q0 -26 17 -37t44 -15t57 -4t57 -3t44 -15t17 -38 q0 -16 -4 -31t-24 -25q-116 -30 -209 -71t-169 -98t-141 -135t-127 -186q0 -4 -1 -20t-1 -20q0 -72 41 -109t109 -37q76 0 171 24t185 52t165 52t111 24q-2 -44 -38 -84t-94 -73t-131 -59t-148 -42t-146 -22t-125 0q-52 0 -91 24t-64 62t-38 85t-13 93zM468 1532q0 16 19 51 t49 78t67 88t72 81t65 60t46 24q32 0 67 -20t70 -53t67 -72t56 -78t39 -72t15 -51q-2 -42 -23 -38t-51 34t-64 75t-64 86t-52 65t-26 12q-14 0 -19 -4t-15 -14q-42 -18 -77 -52t-63 -72t-52 -74t-45 -58t-41 -24t-40 28z" />
<glyph unicode="&#xcb;" horiz-adv-x="870" d="M24 262q6 96 58 181t123 159t150 137t139 117q0 12 -11 32t-17 70q0 88 40 161t105 124t146 79t165 28q36 0 60 -27t38 -65t19 -78t5 -66h-70q0 22 -5 46t-16 43t-28 32t-43 13q-46 0 -100 -25t-101 -64t-79 -89t-32 -100q0 -26 17 -37t44 -15t57 -4t57 -3t44 -15t17 -38 q0 -16 -4 -31t-24 -25q-116 -30 -209 -71t-169 -98t-141 -135t-127 -186q0 -4 -1 -20t-1 -20q0 -72 41 -109t109 -37q76 0 171 24t185 52t165 52t111 24q-2 -44 -38 -84t-94 -73t-131 -59t-148 -42t-146 -22t-125 0q-52 0 -91 24t-64 62t-38 85t-13 93zM533 1544 q11 24 38 48t55 35t50 2t22 -51q0 -44 -25 -70t-67 -26q-54 0 -69 19t-4 43zM875 1558q11 24 38 48t55 35t50 2t22 -51q0 -44 -25 -70t-67 -26q-54 0 -69 19t-4 43z" />
<glyph unicode="&#xcc;" horiz-adv-x="1642" d="M26 466q-2 8 0 23t6 32t10 31t12 18q0 2 13 5t21 3q32 0 50 -18t35 -39t40 -39t65 -18q112 0 207 38t178 83t158 83t147 38q0 -28 -25 -60t-60 -62t-72 -54t-59 -36q-66 -40 -120 -67t-110 -46t-118 -29t-144 -14q8 -10 30 -32l47 -47l47 -47t32 -30q18 -16 42 -23t49 -8 t50 1t47 2q50 0 117 7t131 26t115 55t71 96q4 12 15 50t27 88t34 108t34 108t29 88t17 50q36 72 85 151t109 148t128 122t142 73q70 0 101 -48t31 -108q0 -150 -62 -292t-157 -270t-210 -236t-221 -188q0 -6 -3 -17t-7 -23t-8 -23t-6 -15q-2 -2 -4 -2h-6q-4 0 -9 1t-7 1 q-10 2 -39 12t-39 14q-18 -6 -62 -22t-94 -32t-94 -30t-62 -20q-4 -2 -20 -5t-37 -7t-41 -8l-30 -6h-14q-92 0 -174 45t-149 114t-120 151t-89 156zM1166 376q0 -4 1 -8t1 -6q114 68 210 157t167 197t111 230t40 256q-66 0 -131 -45t-124 -117t-109 -163t-87 -182t-58 -176 t-21 -143zM1421 1826q-3 30 33 32q28 -16 68 -59t78 -93t68 -96t38 -68q-4 -24 -35 -10t-71 49t-81 82t-68 90t-30 73z" />
<glyph unicode="&#xcd;" horiz-adv-x="1642" d="M26 466q-2 8 0 23t6 32t10 31t12 18q0 2 13 5t21 3q32 0 50 -18t35 -39t40 -39t65 -18q112 0 207 38t178 83t158 83t147 38q0 -28 -25 -60t-60 -62t-72 -54t-59 -36q-66 -40 -120 -67t-110 -46t-118 -29t-144 -14q8 -10 30 -32l47 -47l47 -47t32 -30q18 -16 42 -23t49 -8 t50 1t47 2q50 0 117 7t131 26t115 55t71 96q4 12 15 50t27 88t34 108t34 108t29 88t17 50q36 72 85 151t109 148t128 122t142 73q70 0 101 -48t31 -108q0 -150 -62 -292t-157 -270t-210 -236t-221 -188q0 -6 -3 -17t-7 -23t-8 -23t-6 -15q-2 -2 -4 -2h-6q-4 0 -9 1t-7 1 q-10 2 -39 12t-39 14q-18 -6 -62 -22t-94 -32t-94 -30t-62 -20q-4 -2 -20 -5t-37 -7t-41 -8l-30 -6h-14q-92 0 -174 45t-149 114t-120 151t-89 156zM1166 376q0 -4 1 -8t1 -6q114 68 210 157t167 197t111 230t40 256q-66 0 -131 -45t-124 -117t-109 -163t-87 -182t-58 -176 t-21 -143zM1456 1460q8 20 36 68t64 99t73 95t65 58q34 -2 30 -33t-29 -74t-63 -91t-76 -83t-67 -49t-33 10z" />
<glyph unicode="&#xce;" horiz-adv-x="1642" d="M26 466q-2 8 0 23t6 32t10 31t12 18q0 2 13 5t21 3q32 0 50 -18t35 -39t40 -39t65 -18q112 0 207 38t178 83t158 83t147 38q0 -28 -25 -60t-60 -62t-72 -54t-59 -36q-66 -40 -120 -67t-110 -46t-118 -29t-144 -14q8 -10 30 -32l47 -47l47 -47t32 -30q18 -16 42 -23t49 -8 t50 1t47 2q50 0 117 7t131 26t115 55t71 96q4 12 15 50t27 88t34 108t34 108t29 88t17 50q36 72 85 151t109 148t128 122t142 73q70 0 101 -48t31 -108q0 -150 -62 -292t-157 -270t-210 -236t-221 -188q0 -6 -3 -17t-7 -23t-8 -23t-6 -15q-2 -2 -4 -2h-6q-4 0 -9 1t-7 1 q-10 2 -39 12t-39 14q-18 -6 -62 -22t-94 -32t-94 -30t-62 -20q-4 -2 -20 -5t-37 -7t-41 -8l-30 -6h-14q-92 0 -174 45t-149 114t-120 151t-89 156zM1166 376q0 -4 1 -8t1 -6q114 68 210 157t167 197t111 230t40 256q-66 0 -131 -45t-124 -117t-109 -163t-87 -182t-58 -176 t-21 -143zM1290 1532q0 16 19 51t49 78t67 88t72 81t65 60t46 24q32 0 67 -20t70 -53t67 -72t56 -78t39 -72t15 -51q-2 -42 -23 -38t-51 34t-64 75t-64 86t-52 65t-26 12q-14 0 -19 -4t-15 -14q-42 -18 -77 -52t-63 -72t-52 -74t-45 -58t-41 -24t-40 28z" />
<glyph unicode="&#xcf;" horiz-adv-x="1642" d="M26 466q-2 8 0 23t6 32t10 31t12 18q0 2 13 5t21 3q32 0 50 -18t35 -39t40 -39t65 -18q112 0 207 38t178 83t158 83t147 38q0 -28 -25 -60t-60 -62t-72 -54t-59 -36q-66 -40 -120 -67t-110 -46t-118 -29t-144 -14q8 -10 30 -32l47 -47l47 -47t32 -30q18 -16 42 -23t49 -8 t50 1t47 2q50 0 117 7t131 26t115 55t71 96q4 12 15 50t27 88t34 108t34 108t29 88t17 50q36 72 85 151t109 148t128 122t142 73q70 0 101 -48t31 -108q0 -150 -62 -292t-157 -270t-210 -236t-221 -188q0 -6 -3 -17t-7 -23t-8 -23t-6 -15q-2 -2 -4 -2h-6q-4 0 -9 1t-7 1 q-10 2 -39 12t-39 14q-18 -6 -62 -22t-94 -32t-94 -30t-62 -20q-4 -2 -20 -5t-37 -7t-41 -8l-30 -6h-14q-92 0 -174 45t-149 114t-120 151t-89 156zM1166 376q0 -4 1 -8t1 -6q114 68 210 157t167 197t111 230t40 256q-66 0 -131 -45t-124 -117t-109 -163t-87 -182t-58 -176 t-21 -143zM1351 1514q11 24 38 48t55 35t50 2t22 -51q0 -44 -25 -70t-67 -26q-54 0 -69 19t-4 43zM1693 1528q11 24 38 48t55 35t50 2t22 -51q0 -44 -25 -70t-67 -26q-54 0 -69 19t-4 43z" />
<glyph unicode="&#xd0;" horiz-adv-x="1504" d="M12 52q0 30 20 67t47 70t52 59t37 36l208 384q-70 8 -113 23t-41 33t55 39t175 41l156 286q20 16 36 41t33 48t38 39t51 16q0 -32 -7 -77t-21 -67l-150 -266q52 8 112 14t130 12q6 62 23 145t45 170t67 172t87 151t106 107t124 41q6 0 27 -2t27 -2q32 -40 56 -76t41 -72 t25 -76t8 -90q0 -62 -19 -180t-55 -259t-88 -288t-120 -267t-150 -197t-176 -77q-64 0 -109 20t-79 49t-62 64t-58 64t-66 49t-88 20q-54 0 -94 -34t-70 -84t-52 -104t-38 -94q-4 0 -13 -1t-13 -1q-10 0 -27 4t-34 11t-30 17t-13 22zM360 416q60 24 111 15t95 -35t83 -63 t74 -71t67 -58t64 -24q70 0 136 70t126 180t110 244t86 261t56 232t20 157q0 28 -5 61t-19 60t-37 45t-59 18q-66 0 -118 -69t-92 -169t-66 -211t-38 -197l96 50q16 0 35 1t36 -4t31 -16t20 -35q-60 -42 -118 -75t-110 -61q2 -36 12 -67t21 -63t19 -63t8 -67q-46 0 -77 19 t-49 50t-26 69t-10 76q-84 -14 -174 -18t-172 0z" />
<glyph unicode="&#xd1;" horiz-adv-x="1782" d="M12 494q0 10 10 39t16 37q32 -26 56 -65t45 -83t42 -87t48 -78t63 -57t88 -22q68 0 119 25t93 66t82 92t90 105q16 28 49 84t75 128t87 151t85 150t72 128t48 85q4 8 19 42t32 74t32 74t19 44q12 26 38 26q36 0 51 -38t19 -86t1 -90t-3 -50q0 -142 -14 -282t-14 -284 v-170q14 32 44 104t68 164t80 195t81 195t69 163t46 101q30 58 74 131t99 137t123 107t146 43q-114 -76 -212 -213t-180 -306t-151 -353t-126 -352t-104 -305t-86 -209t-70 -66t-57 124q0 110 8 221t19 221t19 221t8 223v142q-4 -4 -12 -15t-17 -23t-16 -23t-9 -17 q-8 -14 -31 -57t-55 -102t-68 -125t-68 -125t-57 -102t-33 -57q-40 -68 -86 -150t-103 -154t-129 -120t-164 -48q-94 0 -167 41t-125 108t-79 151t-27 172zM966 1900q0 16 28 36t64 38t70 30t46 12q62 0 105 -29t82 -63t84 -63t111 -29q84 0 125 22t60 49t25 50t22 23 q22 0 46 -6t24 -36q-14 -58 -45 -94t-75 -60t-97 -37t-109 -25q-46 -4 -79 11t-62 39t-56 51t-60 47t-76 27t-101 -9q-4 0 -20 -4t-33 -8t-32 -8t-19 -4q-16 0 -22 14t-6 26z" />
<glyph unicode="&#xd2;" horiz-adv-x="1010" d="M29 170q1 46 9 90q104 316 200 535t182 358t162 210t141 93t118 5t95 -53t71 -81t45 -79q-8 -200 -76 -396t-185 -364t-276 -296t-347 -194q-54 2 -85 27t-43 62t-11 83zM134 120q74 0 163 44t169 109t140 139t80 132v6q0 4 1 5t1 3t-1 4t-1 4v4q-44 78 -67 168t-23 182 t22 182t68 168q-44 -10 -99 -82t-112 -180t-113 -239t-102 -255t-80 -230t-46 -164zM675 1918q-3 30 33 32q28 -16 68 -59t78 -93t68 -96t38 -68q-4 -24 -35 -10t-71 49t-81 82t-68 90t-30 73zM692 1037q-14 -99 4 -204t54 -187q214 234 224 560q0 18 1 38t-2 37t-15 30 t-38 15q-108 -32 -161 -111t-67 -178z" />
<glyph unicode="&#xd3;" horiz-adv-x="1010" d="M29 170q1 46 9 90q104 316 200 535t182 358t162 210t141 93t118 5t95 -53t71 -81t45 -79q-8 -200 -76 -396t-185 -364t-276 -296t-347 -194q-54 2 -85 27t-43 62t-11 83zM134 120q74 0 163 44t169 109t140 139t80 132v6q0 4 1 5t1 3t-1 4t-1 4v4q-44 78 -67 168t-23 182 t22 182t68 168q-44 -10 -99 -82t-112 -180t-113 -239t-102 -255t-80 -230t-46 -164zM666 1588q8 20 36 68t64 99t73 95t65 58q34 -2 30 -33t-29 -74t-63 -91t-76 -83t-67 -49t-33 10zM692 1037q-14 -99 4 -204t54 -187q214 234 224 560q0 18 1 38t-2 37t-15 30t-38 15 q-108 -32 -161 -111t-67 -178z" />
<glyph unicode="&#xd4;" horiz-adv-x="1010" d="M29 170q1 46 9 90q104 316 200 535t182 358t162 210t141 93t118 5t95 -53t71 -81t45 -79q-8 -200 -76 -396t-185 -364t-276 -296t-347 -194q-54 2 -85 27t-43 62t-11 83zM134 120q74 0 163 44t169 109t140 139t80 132v6q0 4 1 5t1 3t-1 4t-1 4v4q-44 78 -67 168t-23 182 t22 182t68 168q-44 -10 -99 -82t-112 -180t-113 -239t-102 -255t-80 -230t-46 -164zM482 1514q0 16 19 51t49 78t67 88t72 81t65 60t46 24q32 0 67 -20t70 -53t67 -72t56 -78t39 -72t15 -51q-2 -42 -23 -38t-51 34t-64 75t-64 86t-52 65t-26 12q-14 0 -19 -4t-15 -14 q-42 -18 -77 -52t-63 -72t-52 -74t-45 -58t-41 -24t-40 28zM692 1037q-14 -99 4 -204t54 -187q214 234 224 560q0 18 1 38t-2 37t-15 30t-38 15q-108 -32 -161 -111t-67 -178z" />
<glyph unicode="&#xd5;" horiz-adv-x="1010" d="M29 170q1 46 9 90q104 316 200 535t182 358t162 210t141 93t118 5t95 -53t71 -81t45 -79q-8 -200 -76 -396t-185 -364t-276 -296t-347 -194q-54 2 -85 27t-43 62t-11 83zM134 120q74 0 163 44t169 109t140 139t80 132v6q0 4 1 5t1 3t-1 4t-1 4v4q-44 78 -67 168t-23 182 t22 182t68 168q-44 -10 -99 -82t-112 -180t-113 -239t-102 -255t-80 -230t-46 -164zM350 1782q0 16 28 36t64 38t70 30t46 12q62 0 105 -29t82 -63t84 -63t111 -29q84 0 125 22t60 49t25 50t22 23q22 0 46 -6t24 -36q-14 -58 -45 -94t-75 -60t-97 -37t-109 -25 q-46 -4 -79 11t-62 39t-56 51t-60 47t-76 27t-101 -9q-4 0 -20 -4t-33 -8t-32 -8t-19 -4q-16 0 -22 14t-6 26zM692 1037q-14 -99 4 -204t54 -187q214 234 224 560q0 18 1 38t-2 37t-15 30t-38 15q-108 -32 -161 -111t-67 -178z" />
<glyph unicode="&#xd6;" horiz-adv-x="1010" d="M29 170q1 46 9 90q104 316 200 535t182 358t162 210t141 93t118 5t95 -53t71 -81t45 -79q-8 -200 -76 -396t-185 -364t-276 -296t-347 -194q-54 2 -85 27t-43 62t-11 83zM134 120q74 0 163 44t169 109t140 139t80 132v6q0 4 1 5t1 3t-1 4t-1 4v4q-44 78 -67 168t-23 182 t22 182t68 168q-44 -10 -99 -82t-112 -180t-113 -239t-102 -255t-80 -230t-46 -164zM553 1662q11 24 38 48t55 35t50 2t22 -51q0 -44 -25 -70t-67 -26q-54 0 -69 19t-4 43zM692 1037q-14 -99 4 -204t54 -187q214 234 224 560q0 18 1 38t-2 37t-15 30t-38 15 q-108 -32 -161 -111t-67 -178zM895 1676q11 24 38 48t55 35t50 2t22 -51q0 -44 -25 -70t-67 -26q-54 0 -69 19t-4 43z" />
<glyph unicode="&#xd7;" horiz-adv-x="794" d="M92 222v58q80 86 122 137t62 79t23 41t3 23q0 82 -31 113t-105 31q0 12 5 29t11 32t13 26t11 11q30 0 60 -24t56 -54t43 -54t23 -24q26 2 60 30t70 61t72 59t66 24h4q2 0 2 1t2 1q4 0 13 -13t18 -30t15 -33t6 -22q0 -20 -13 -15t-44 -2t-84 -43t-135 -138 q78 -146 106 -223t-12 -77q-28 0 -57 21t-54 53t-43 68t-26 64q-14 -24 -46 -60t-70 -69t-77 -57t-69 -24z" />
<glyph unicode="&#xd8;" horiz-adv-x="1010" d="M29 170q1 46 9 90q104 316 200 535t182 358t162 210t141 93t118 5t95 -53t71 -81t45 -79q-8 -200 -76 -396t-185 -364t-276 -296t-347 -194q-54 2 -85 27t-43 62t-11 83zM46 9q0 35 9 59.5t60 42.5q21 33 64.5 101.5t98.5 154.5t116.5 181.5t118 181.5t101.5 155t68 101 q26 40 72 101.5t100 125.5t113 124.5t113 100.5q5 2 20.5 5.5t20.5 3.5q0 -35 -35 -102.5t-88.5 -150t-120.5 -173.5t-131 -177t-116.5 -160.5t-80.5 -120.5q-31 -49 -76 -131.5t-98.5 -170t-111.5 -170t-114 -131.5q-8 -7 -33.5 -18.5t-30.5 -11.5q-16 0 -25 10.5 t-11.5 23.5t-2.5 25.5v19.5zM134 120q74 0 163 44t169 109t140 139t80 132v6q0 4 1 5t1 3t-1 4t-1 4v4q-44 78 -67 168t-23 182t22 182t68 168q-44 -10 -99 -82t-112 -180t-113 -239t-102 -255t-80 -230t-46 -164zM692 1037q-14 -99 4 -204t54 -187q214 234 224 560 q0 18 1 38t-2 37t-15 30t-38 15q-108 -32 -161 -111t-67 -178z" />
<glyph unicode="&#xd9;" horiz-adv-x="1108" d="M36 168q0 76 24 152t56 146q14 32 39 92t55 134t61 152t58 146t47 117t28 63q72 34 92 6t6 -97t-53 -165t-86 -197t-94 -196t-75 -159q-52 -116 -58 -166t29 -45t106 59t172 147t228 220t275 279q34 46 67 109t65 127t62 121t61 90t61 33t62 -48q-40 -112 -108 -242 t-135 -269t-115 -280t-48 -273q0 -36 22 -47t52 -10t63 4t57 -7q-10 -18 -16 -37t-14 -35t-19 -26t-33 -10q-40 -20 -91 2t-90 84t-53 163t22 239l-60 -54t-92 -82t-108 -97t-107 -97t-92 -82t-59 -54q-10 -6 -28 -20t-39 -27t-42 -23t-35 -10q-34 0 -56 16t-37 42t-21 55 t-6 57zM705 1758q-3 30 33 32q28 -16 68 -59t78 -93t68 -96t38 -68q-4 -24 -35 -10t-71 49t-81 82t-68 90t-30 73z" />
<glyph unicode="&#xda;" horiz-adv-x="1108" d="M36 168q0 76 24 152t56 146q14 32 39 92t55 134t61 152t58 146t47 117t28 63q72 34 92 6t6 -97t-53 -165t-86 -197t-94 -196t-75 -159q-52 -116 -58 -166t29 -45t106 59t172 147t228 220t275 279q34 46 67 109t65 127t62 121t61 90t61 33t62 -48q-40 -112 -108 -242 t-135 -269t-115 -280t-48 -273q0 -36 22 -47t52 -10t63 4t57 -7q-10 -18 -16 -37t-14 -35t-19 -26t-33 -10q-40 -20 -91 2t-90 84t-53 163t22 239l-60 -54t-92 -82t-108 -97t-107 -97t-92 -82t-59 -54q-10 -6 -28 -20t-39 -27t-42 -23t-35 -10q-34 0 -56 16t-37 42t-21 55 t-6 57zM792 1414q8 20 36 68t64 99t73 95t65 58q34 -2 30 -33t-29 -74t-63 -91t-76 -83t-67 -49t-33 10z" />
<glyph unicode="&#xdb;" horiz-adv-x="1108" d="M36 168q0 76 24 152t56 146q14 32 39 92t55 134t61 152t58 146t47 117t28 63q72 34 92 6t6 -97t-53 -165t-86 -197t-94 -196t-75 -159q-52 -116 -58 -166t29 -45t106 59t172 147t228 220t275 279q34 46 67 109t65 127t62 121t61 90t61 33t62 -48q-40 -112 -108 -242 t-135 -269t-115 -280t-48 -273q0 -36 22 -47t52 -10t63 4t57 -7q-10 -18 -16 -37t-14 -35t-19 -26t-33 -10q-40 -20 -91 2t-90 84t-53 163t22 239l-60 -54t-92 -82t-108 -97t-107 -97t-92 -82t-59 -54q-10 -6 -28 -20t-39 -27t-42 -23t-35 -10q-34 0 -56 16t-37 42t-21 55 t-6 57zM534 1416q0 16 19 51t49 78t67 88t72 81t65 60t46 24q32 0 67 -20t70 -53t67 -72t56 -78t39 -72t15 -51q-2 -42 -23 -38t-51 34t-64 75t-64 86t-52 65t-26 12q-14 0 -19 -4t-15 -14q-42 -18 -77 -52t-63 -72t-52 -74t-45 -58t-41 -24t-40 28z" />
<glyph unicode="&#xdc;" horiz-adv-x="1108" d="M36 168q0 76 24 152t56 146q14 32 39 92t55 134t61 152t58 146t47 117t28 63q72 34 92 6t6 -97t-53 -165t-86 -197t-94 -196t-75 -159q-52 -116 -58 -166t29 -45t106 59t172 147t228 220t275 279q34 46 67 109t65 127t62 121t61 90t61 33t62 -48q-40 -112 -108 -242 t-135 -269t-115 -280t-48 -273q0 -36 22 -47t52 -10t63 4t57 -7q-10 -18 -16 -37t-14 -35t-19 -26t-33 -10q-40 -20 -91 2t-90 84t-53 163t22 239l-60 -54t-92 -82t-108 -97t-107 -97t-92 -82t-59 -54q-10 -6 -28 -20t-39 -27t-42 -23t-35 -10q-34 0 -56 16t-37 42t-21 55 t-6 57zM607 1432q11 24 38 48t55 35t50 2t22 -51q0 -44 -25 -70t-67 -26q-54 0 -69 19t-4 43zM949 1446q11 24 38 48t55 35t50 2t22 -51q0 -44 -25 -70t-67 -26q-54 0 -69 19t-4 43z" />
<glyph unicode="&#xdd;" horiz-adv-x="1204" d="M-490 -1496q160 46 301 167t264 288t228 363t192 394t157 382t123 323t89 221t56 74q-50 -54 -127 -128t-167 -140t-186 -112t-182 -46q-56 0 -91 25t-55 64t-27 88t-7 99q0 42 22 121t58 173t80 192t90 178t87 131t69 51q26 0 46 -12t20 -40q0 -38 -20 -69t-62 -37 q-28 -32 -63 -93t-69 -136t-64 -157t-45 -156t-13 -134t32 -90t90 -24t160 64q102 74 192 162t166 178t136 175t104 154t70 115t34 58q22 32 38 53t35 33t45 16t70 4q-16 -54 -44 -119t-77 -168t-123 -262t-179 -402t-246 -585t-325 -812q-42 -84 -119 -186t-168 -199 t-188 -177t-180 -122t-145 -32t-82 92zM814 1560q8 20 36 68t64 99t73 95t65 58q34 -2 30 -33t-29 -74t-63 -91t-76 -83t-67 -49t-33 10z" />
<glyph unicode="&#xde;" horiz-adv-x="894" d="M-14 -160q-8 16 6 22l280 554l306 620l11 12t27 18t33 -4t33 -52l-124 -286v-24q56 -8 104 -23t83 -43t55 -69t20 -99q0 -64 -30 -129t-79 -122t-113 -103t-132 -73t-136 -32t-124 19l-136 -242q-6 -10 -24 -1t-35 25t-25 32zM288 124q56 0 126 26t131 69t102 100t41 119 q0 54 -22 95t-86 41q-28 0 -61 -26t-65 -67t-62 -92t-53 -101t-37 -94t-14 -70z" />
<glyph unicode="&#xdf;" horiz-adv-x="1414" d="M-16 -250q2 30 11 50t31 24q42 -124 80 -96t78 170q26 94 60 220t82 278t114 327t156 367q80 156 185 248t207 140t184 63t114 15q16 0 37 -1t27 -25v-17t1 -28t1 -28v-17q0 -82 -19 -161t-55 -143t-86 -108t-112 -56q38 8 64 -10t41 -50t22 -72t10 -76t2 -61t-1 -29 q0 -126 -64 -234t-164 -186t-223 -123t-243 -45q-10 2 -21 6t-15 16t0 37t22 71q126 0 218 23t160 75t116 134t86 200q0 4 1 19t1 19q0 78 -6 119t-28 60t-64 24t-114 9q-10 2 -29 21t-21 29t7 30t17 24q80 2 149 36t118 92t77 136t28 166q-74 0 -157 -51t-160 -124 t-139 -155t-96 -144q-74 -236 -141 -424t-123 -335t-101 -255t-75 -186q-42 -104 -86 -132t-81 -13t-61 57t-22 80z" />
<glyph unicode="&#xe0;" horiz-adv-x="864" d="M36 130q18 114 68 210t115 167t141 117t148 59t133 -7t99 -80q0 -46 -21 -88t-46 -84t-46 -86t-21 -94q0 -52 23 -83t81 -31q48 0 93 14t91 14q8 0 27 -1t25 -1q-24 -34 -62 -58t-80 -41t-87 -25t-83 -8q-36 0 -64 16t-48 42t-31 59t-11 65q-30 -34 -65 -71t-74 -67 t-84 -50t-93 -20q-52 0 -90 39t-38 93zM168 192q0 -16 1 -36t25 -26q50 12 114 53t120 96t94 118t38 121q0 4 -1 13t-1 13q-68 0 -138 -28t-126 -77t-91 -113t-35 -134zM419 1162q-3 30 33 32q28 -16 68 -59t78 -93t68 -96t38 -68q-4 -24 -35 -10t-71 49t-81 82t-68 90 t-30 73z" />
<glyph unicode="&#xe1;" horiz-adv-x="864" d="M36 130q18 114 68 210t115 167t141 117t148 59t133 -7t99 -80q0 -46 -21 -88t-46 -84t-46 -86t-21 -94q0 -52 23 -83t81 -31q48 0 93 14t91 14q8 0 27 -1t25 -1q-24 -34 -62 -58t-80 -41t-87 -25t-83 -8q-36 0 -64 16t-48 42t-31 59t-11 65q-30 -34 -65 -71t-74 -67 t-84 -50t-93 -20q-52 0 -90 39t-38 93zM168 192q0 -16 1 -36t25 -26q50 12 114 53t120 96t94 118t38 121q0 4 -1 13t-1 13q-68 0 -138 -28t-126 -77t-91 -113t-35 -134zM364 790q8 20 36 68t64 99t73 95t65 58q34 -2 30 -33t-29 -74t-63 -91t-76 -83t-67 -49t-33 10z" />
<glyph unicode="&#xe2;" horiz-adv-x="864" d="M36 130q18 114 68 210t115 167t141 117t148 59t133 -7t99 -80q0 -46 -21 -88t-46 -84t-46 -86t-21 -94q0 -52 23 -83t81 -31q48 0 93 14t91 14q8 0 27 -1t25 -1q-24 -34 -62 -58t-80 -41t-87 -25t-83 -8q-36 0 -64 16t-48 42t-31 59t-11 65q-30 -34 -65 -71t-74 -67 t-84 -50t-93 -20q-52 0 -90 39t-38 93zM142 812q0 16 19 51t49 78t67 88t72 81t65 60t46 24q32 0 67 -20t70 -53t67 -72t56 -78t39 -72t15 -51q-2 -42 -23 -38t-51 34t-64 75t-64 86t-52 65t-26 12q-14 0 -19 -4t-15 -14q-42 -18 -77 -52t-63 -72t-52 -74t-45 -58t-41 -24 t-40 28zM168 192q0 -16 1 -36t25 -26q50 12 114 53t120 96t94 118t38 121q0 4 -1 13t-1 13q-68 0 -138 -28t-126 -77t-91 -113t-35 -134z" />
<glyph unicode="&#xe3;" horiz-adv-x="864" d="M-48 1156q0 16 28 36t64 38t70 30t46 12q62 0 105 -29t82 -63t84 -63t111 -29q84 0 125 22t60 49t25 50t22 23q22 0 46 -6t24 -36q-14 -58 -45 -94t-75 -60t-97 -37t-109 -25q-46 -4 -79 11t-62 39t-56 51t-60 47t-76 27t-101 -9q-4 0 -20 -4t-33 -8t-32 -8t-19 -4 q-16 0 -22 14t-6 26zM36 130q18 114 68 210t115 167t141 117t148 59t133 -7t99 -80q0 -46 -21 -88t-46 -84t-46 -86t-21 -94q0 -52 23 -83t81 -31q48 0 93 14t91 14q8 0 27 -1t25 -1q-24 -34 -62 -58t-80 -41t-87 -25t-83 -8q-36 0 -64 16t-48 42t-31 59t-11 65 q-30 -34 -65 -71t-74 -67t-84 -50t-93 -20q-52 0 -90 39t-38 93zM168 192q0 -16 1 -36t25 -26q50 12 114 53t120 96t94 118t38 121q0 4 -1 13t-1 13q-68 0 -138 -28t-126 -77t-91 -113t-35 -134z" />
<glyph unicode="&#xe4;" horiz-adv-x="864" d="M36 130q18 114 68 210t115 167t141 117t148 59t133 -7t99 -80q0 -46 -21 -88t-46 -84t-46 -86t-21 -94q0 -52 23 -83t81 -31q48 0 93 14t91 14q8 0 27 -1t25 -1q-24 -34 -62 -58t-80 -41t-87 -25t-83 -8q-36 0 -64 16t-48 42t-31 59t-11 65q-30 -34 -65 -71t-74 -67 t-84 -50t-93 -20q-52 0 -90 39t-38 93zM168 192q0 -16 1 -36t25 -26q50 12 114 53t120 96t94 118t38 121q0 4 -1 13t-1 13q-68 0 -138 -28t-126 -77t-91 -113t-35 -134zM265 906q11 24 38 48t55 35t50 2t22 -51q0 -44 -25 -70t-67 -26q-54 0 -69 19t-4 43zM607 920 q11 24 38 48t55 35t50 2t22 -51q0 -44 -25 -70t-67 -26q-54 0 -69 19t-4 43z" />
<glyph unicode="&#xe5;" horiz-adv-x="864" d="M36 130q18 114 68 210t115 167t141 117t148 59t133 -7t99 -80q0 -46 -21 -88t-46 -84t-46 -86t-21 -94q0 -52 23 -83t81 -31q48 0 93 14t91 14q8 0 27 -1t25 -1q-24 -34 -62 -58t-80 -41t-87 -25t-83 -8q-36 0 -64 16t-48 42t-31 59t-11 65q-30 -34 -65 -71t-74 -67 t-84 -50t-93 -20q-52 0 -90 39t-38 93zM168 192q0 -16 1 -36t25 -26q50 12 114 53t120 96t94 118t38 121q0 4 -1 13t-1 13q-68 0 -138 -28t-126 -77t-91 -113t-35 -134zM352 774q0 4 1 23t1 23q50 110 127 202t177 164q2 0 9 1t11 1q40 0 67 -17t44 -44t24 -60t7 -65 q0 -58 -28 -121t-75 -115t-108 -86t-127 -34t-98 34t-32 94zM474 792q0 -16 13 -24t27 -8q38 0 76 20t66 51t46 69t18 72q0 16 -2 36t-11 36t-25 24t-46 2q-22 -4 -50 -38t-53 -79t-42 -90t-17 -71z" />
<glyph unicode="&#xe6;" horiz-adv-x="1398" d="M36 130q18 114 68 210t115 167t141 117t148 59t133 -7t99 -80q0 -20 -6 -44q58 54 122 87t117 38t84 -23t23 -94q-24 -80 -76 -148t-105 -120t-97 -90t-53 -61t31 -30t152 3q168 34 261 44t128 4t19 -23t-64 -39t-122 -42t-157 -33t-165 -13t-149 21t-109 67t-42 124 q-30 -34 -73 -74t-92 -74t-102 -56t-101 -22q-52 0 -90 39t-38 93zM168 192q0 -16 1 -36t25 -26q50 12 114 53t120 96t94 118t38 121q0 4 -1 13t-1 13q-68 0 -138 -28t-126 -77t-91 -113t-35 -134zM742 338q4 -2 6 -2h6q28 0 64 24t68 59t54 73t22 68q-40 0 -76 -22t-65 -55 t-49 -72t-30 -73z" />
<glyph unicode="&#xe7;" horiz-adv-x="696" d="M26 182q0 90 26 175t72 161t111 140t141 112v2q30 18 69 35t73 20t57 -16t23 -71q0 -24 -4 -63t-22 -55q-16 -10 -42 -18q-12 -4 -24 -6v126q-46 -6 -106 -57t-115 -124t-93 -158t-38 -157q0 -58 30 -81t86 -23q60 0 117 15t114 32t114 32t117 15q0 -28 -8 -47t-24 -41 q-104 -50 -214 -91t-230 -41q-36 0 -76 13t-74 37t-57 58t-23 76zM130 -304q0 28 8 46t40 18h14t14 -2q-2 -62 22 -93t82 -31q50 0 82 7t50 25t25 51t7 87q0 32 -19 48t-42 28t-42 24t-19 36q-4 94 16 136t41 38t32 -50t-11 -124q22 -16 46 -29t43 -27t32 -32t13 -44 q0 -140 -56 -200t-188 -60q-76 0 -133 36t-57 112z" />
<glyph unicode="&#xe8;" d="M2 253q4 73 33 138t76 118t101 92t109 59t97 17t66 -31t16 -86q0 -78 -49 -136t-108 -104t-108 -83t-49 -69q0 -18 21 -28t49 -15t56 -7t40 -4q188 40 282 49t118 -2t-9 -34t-101 -48t-158 -45t-178 -23t-163 17t-111 76q-34 76 -30 149zM151 1078q-3 30 33 32 q28 -16 68 -59t78 -93t68 -96t38 -68q-4 -24 -35 -10t-71 49t-81 82t-68 90t-30 73zM162 338q4 -2 6 -2h6q28 0 64 24t68 59t54 73t22 68q-40 0 -76 -22t-65 -55t-49 -72t-30 -73z" />
<glyph unicode="&#xe9;" d="M2 253q4 73 33 138t76 118t101 92t109 59t97 17t66 -31t16 -86q0 -78 -49 -136t-108 -104t-108 -83t-49 -69q0 -18 21 -28t49 -15t56 -7t40 -4q188 40 282 49t118 -2t-9 -34t-101 -48t-158 -45t-178 -23t-163 17t-111 76q-34 76 -30 149zM162 338q4 -2 6 -2h6q28 0 64 24 t68 59t54 73t22 68q-40 0 -76 -22t-65 -55t-49 -72t-30 -73zM170 740q8 20 36 68t64 99t73 95t65 58q34 -2 30 -33t-29 -74t-63 -91t-76 -83t-67 -49t-33 10z" />
<glyph unicode="&#xea;" d="M2 253q4 73 33 138t76 118t101 92t109 59t97 17t66 -31t16 -86q0 -78 -49 -136t-108 -104t-108 -83t-49 -69q0 -18 21 -28t49 -15t56 -7t40 -4q188 40 282 49t118 -2t-9 -34t-101 -48t-158 -45t-178 -23t-163 17t-111 76q-34 76 -30 149zM28 744q0 16 19 51t49 78t67 88 t72 81t65 60t46 24q32 0 67 -20t70 -53t67 -72t56 -78t39 -72t15 -51q-2 -42 -23 -38t-51 34t-64 75t-64 86t-52 65t-26 12q-14 0 -19 -4t-15 -14q-42 -18 -77 -52t-63 -72t-52 -74t-45 -58t-41 -24t-40 28zM162 338q4 -2 6 -2h6q28 0 64 24t68 59t54 73t22 68 q-40 0 -76 -22t-65 -55t-49 -72t-30 -73z" />
<glyph unicode="&#xeb;" d="M2 253q4 73 33 138t76 118t101 92t109 59t97 17t66 -31t16 -86q0 -78 -49 -136t-108 -104t-108 -83t-49 -69q0 -18 21 -28t49 -15t56 -7t40 -4q188 40 282 49t118 -2t-9 -34t-101 -48t-158 -45t-178 -23t-163 17t-111 76q-34 76 -30 149zM89 822q11 24 38 48t55 35t50 2 t22 -51q0 -44 -25 -70t-67 -26q-54 0 -69 19t-4 43zM162 338q4 -2 6 -2h6q28 0 64 24t68 59t54 73t22 68q-40 0 -76 -22t-65 -55t-49 -72t-30 -73zM431 836q11 24 38 48t55 35t50 2t22 -51q0 -44 -25 -70t-67 -26q-54 0 -69 19t-4 43z" />
<glyph unicode="&#xec;" horiz-adv-x="474" d="M10 130q0 28 6 49t22 55q14 20 51 76t78 118t78 117t51 77q18 26 28 28t38 2q18 0 39 -2t27 -28q-28 -68 -75 -129t-92 -121t-79 -123t-34 -135q8 0 25 -2t37 -4t37 -4t25 0q12 2 41 9t62 15t63 16t42 12q0 -4 1 -13t1 -13q0 -40 -37 -66t-86 -41t-100 -20t-79 -5 q-30 0 -61 7t-55 23t-39 41t-15 61zM225 1104q-3 30 33 32q28 -16 68 -59t78 -93t68 -96t38 -68q-4 -24 -35 -10t-71 49t-81 82t-68 90t-30 73z" />
<glyph unicode="&#xed;" horiz-adv-x="474" d="M10 130q0 -36 15 -61t39 -41t55 -23t61 -7q28 0 79 5t100 20t86 41t37 66q0 4 -1 13t-1 13q-12 -4 -42 -12t-63 -16t-62 -15t-41 -9q-8 -2 -25 0t-37 4t-37 4t-25 2q0 72 34 135t79 123t92 121t75 129q-6 26 -27 28t-39 2q-28 0 -38 -2t-28 -28q-14 -22 -51 -77t-78 -117 t-78 -118t-51 -76q-16 -34 -22 -55t-6 -49zM226 920q8 20 36 68t64 99t73 95t65 58q34 -2 30 -33t-29 -74t-63 -91t-76 -83t-67 -49t-33 10z" />
<glyph unicode="&#xee;" horiz-adv-x="474" d="M10 130q0 28 6 49t22 55q14 20 51 76t78 118t78 117t51 77q18 26 28 28t38 2q18 0 39 -2t27 -28q-28 -68 -75 -129t-92 -121t-79 -123t-34 -135q8 0 25 -2t37 -4t37 -4t25 0q12 2 41 9t62 15t63 16t42 12q0 -4 1 -13t1 -13q0 -40 -37 -66t-86 -41t-100 -20t-79 -5 q-30 0 -61 7t-55 23t-39 41t-15 61zM80 840q0 16 19 51t49 78t67 88t72 81t65 60t46 24q32 0 67 -20t70 -53t67 -72t56 -78t39 -72t15 -51q-2 -42 -23 -38t-51 34t-64 75t-64 86t-52 65t-26 12q-14 0 -19 -4t-15 -14q-42 -18 -77 -52t-63 -72t-52 -74t-45 -58t-41 -24 t-40 28z" />
<glyph unicode="&#xef;" horiz-adv-x="474" d="M10 130q0 28 6 49t22 55q14 20 51 76t78 118t78 117t51 77q18 26 28 28t38 2q18 0 39 -2t27 -28q-28 -68 -75 -129t-92 -121t-79 -123t-34 -135q8 0 25 -2t37 -4t37 -4t25 0q12 2 41 9t62 15t63 16t42 12q0 -4 1 -13t1 -13q0 -40 -37 -66t-86 -41t-100 -20t-79 -5 q-30 0 -61 7t-55 23t-39 41t-15 61zM141 806q11 24 38 48t55 35t50 2t22 -51q0 -44 -25 -70t-67 -26q-54 0 -69 19t-4 43zM483 820q11 24 38 48t55 35t50 2t22 -51q0 -44 -25 -70t-67 -26q-54 0 -69 19t-4 43z" />
<glyph unicode="&#xf0;" horiz-adv-x="854" d="M68 276q0 26 11 56t32 55t51 42t66 17q52 0 110 -7t117 -26t117 -52t110 -85l-226 466l-78 -104l-66 96l102 120l-76 114q-2 2 -2 13v15q0 28 20 50t60 22l80 -142l96 102l58 -88l-88 -86q58 -108 113 -231t96 -228t63 -177t12 -80q18 -54 -6 -86t-66 -49t-93 -21t-89 -2 q-64 0 -153 21t-172 60t-141 94t-58 121zM178 270q0 -46 53 -85t124 -67t142 -44t107 -16h27t38 2t33 8t14 18q0 58 -51 103t-123 77t-147 48t-123 16q-56 0 -75 -6t-19 -54z" />
<glyph unicode="&#xf1;" horiz-adv-x="890" d="M50 90v28t3 19t9 19t16 26q16 28 60 98t94 148t95 148l63 98q2 2 11 2h13h14t12 -2t9 -10t16 -17t16 -17t11 -8q18 0 38 12t41 27t43 27t46 12q26 0 48 -12t38 -30t25 -40t9 -44q0 -46 -13 -88t-29 -83t-29 -82t-13 -85t10 -63t56 -19q54 0 103 16t101 16q0 -48 -29 -80 t-72 -51t-92 -26t-89 -7q-76 0 -111 43t-35 115q0 48 17 90t38 82t39 80t18 86q0 12 -4 32t-26 20q-66 0 -119 -42t-96 -106t-78 -138t-66 -138t-59 -106t-58 -42q-42 0 -68 26t-26 66zM222 996q0 16 28 36t64 38t70 30t46 12q62 0 105 -29t82 -63t84 -63t111 -29 q84 0 125 22t60 49t25 50t22 23q22 0 46 -6t24 -36q-14 -58 -45 -94t-75 -60t-97 -37t-109 -25q-46 -4 -79 11t-62 39t-56 51t-60 47t-76 27t-101 -9q-4 0 -20 -4t-33 -8t-32 -8t-19 -4q-16 0 -22 14t-6 26z" />
<glyph unicode="&#xf2;" d="M36 168q0 8 1 33t1 33q64 146 164 270t226 220q4 0 13 3t13 3q54 0 89 -23t56 -60t29 -82t8 -87q0 -78 -36 -163t-97 -156t-139 -116t-162 -45t-125 45t-41 125zM192 192q0 -22 18 -30t36 -8q50 0 97 27t84 68t59 91t22 96q0 22 -3 49t-13 48t-31 33t-59 4 q-28 -6 -64 -52t-69 -107t-55 -122t-22 -97zM353 1078q-3 30 33 32q28 -16 68 -59t78 -93t68 -96t38 -68q-4 -24 -35 -10t-71 49t-81 82t-68 90t-30 73z" />
<glyph unicode="&#xf3;" d="M36 168q0 8 1 33t1 33q64 146 164 270t226 220q4 0 13 3t13 3q54 0 89 -23t56 -60t29 -82t8 -87q0 -78 -36 -163t-97 -156t-139 -116t-162 -45t-125 45t-41 125zM192 192q0 -22 18 -30t36 -8q50 0 97 27t84 68t59 91t22 96q0 22 -3 49t-13 48t-31 33t-59 4 q-28 -6 -64 -52t-69 -107t-55 -122t-22 -97zM288 838q8 20 36 68t64 99t73 95t65 58q34 -2 30 -33t-29 -74t-63 -91t-76 -83t-67 -49t-33 10z" />
<glyph unicode="&#xf4;" d="M36 168q0 8 1 33t1 33q64 146 164 270t226 220q4 0 13 3t13 3q54 0 89 -23t56 -60t29 -82t8 -87q0 -78 -36 -163t-97 -156t-139 -116t-162 -45t-125 45t-41 125zM126 854q0 16 19 51t49 78t67 88t72 81t65 60t46 24q32 0 67 -20t70 -53t67 -72t56 -78t39 -72t15 -51 q-2 -42 -23 -38t-51 34t-64 75t-64 86t-52 65t-26 12q-14 0 -19 -4t-15 -14q-42 -18 -77 -52t-63 -72t-52 -74t-45 -58t-41 -24t-40 28zM192 192q0 -22 18 -30t36 -8q50 0 97 27t84 68t59 91t22 96q0 22 -3 49t-13 48t-31 33t-59 4q-28 -6 -64 -52t-69 -107t-55 -122 t-22 -97z" />
<glyph unicode="&#xf5;" d="M28 1088q0 16 28 36t64 38t70 30t46 12q62 0 105 -29t82 -63t84 -63t111 -29q84 0 125 22t60 49t25 50t22 23q22 0 46 -6t24 -36q-14 -58 -45 -94t-75 -60t-97 -37t-109 -25q-46 -4 -79 11t-62 39t-56 51t-60 47t-76 27t-101 -9q-4 0 -20 -4t-33 -8t-32 -8t-19 -4 q-16 0 -22 14t-6 26zM36 168q0 8 1 33t1 33q64 146 164 270t226 220q4 0 13 3t13 3q54 0 89 -23t56 -60t29 -82t8 -87q0 -78 -36 -163t-97 -156t-139 -116t-162 -45t-125 45t-41 125zM192 192q0 -22 18 -30t36 -8q50 0 97 27t84 68t59 91t22 96q0 22 -3 49t-13 48t-31 33 t-59 4q-28 -6 -64 -52t-69 -107t-55 -122t-22 -97z" />
<glyph unicode="&#xf6;" d="M36 168q0 8 1 33t1 33q64 146 164 270t226 220q4 0 13 3t13 3q54 0 89 -23t56 -60t29 -82t8 -87q0 -78 -36 -163t-97 -156t-139 -116t-162 -45t-125 45t-41 125zM192 192q0 -22 18 -30t36 -8q50 0 97 27t84 68t59 91t22 96q0 22 -3 49t-13 48t-31 33t-59 4 q-28 -6 -64 -52t-69 -107t-55 -122t-22 -97zM195 886q11 24 38 48t55 35t50 2t22 -51q0 -44 -25 -70t-67 -26q-54 0 -69 19t-4 43zM537 900q11 24 38 48t55 35t50 2t22 -51q0 -44 -25 -70t-67 -26q-54 0 -69 19t-4 43z" />
<glyph unicode="&#xf7;" horiz-adv-x="742" d="M84 742v54q54 6 117 15t129 18t131 15t123 6q16 0 34 1t35 -4t31 -16t20 -35q-12 -22 -48 -39t-86 -29t-106 -19t-104 -12t-83 -6t-41 -1q-18 0 -44 3t-50 10t-41 17t-17 22zM308 478q0 72 33 92t109 20q0 -20 2 -50t-1 -58t-16 -48t-45 -20q-36 0 -59 12t-23 52z M336 1050q0 52 29 73t71 21h25t28 -4t22 -12t9 -26q0 -12 -8 -30t-20 -36t-26 -33t-26 -17q-10 -2 -27 2t-34 13t-30 22t-13 27z" />
<glyph unicode="&#xf8;" d="M36 168q0 8 1 33t1 33q64 146 164 270t226 220q4 0 13 3t13 3q54 0 89 -23t56 -60t29 -82t8 -87q0 -78 -36 -163t-97 -156t-139 -116t-162 -45t-125 45t-41 125zM52 -5q0 19 5 32.5t35 23.5q11 18 36.5 55.5t57 84.5t67 99t68 99t58.5 85t40 55q14 22 41 55.5t58 68.5 t65 68t65 55q3 1 12 3t11 2q0 -19 -19.5 -56t-51 -82t-70 -94.5t-75 -96.5t-67 -88t-46.5 -66q-18 -27 -44 -72t-57 -92.5t-64.5 -93t-65.5 -71.5q-5 -4 -19.5 -10.5t-17.5 -6.5q-9 0 -14 5.5t-6.5 12.5t-1.5 14v11zM192 192q0 -22 18 -30t36 -8q50 0 97 27t84 68t59 91 t22 96q0 22 -3 49t-13 48t-31 33t-59 4q-28 -6 -64 -52t-69 -107t-55 -122t-22 -97z" />
<glyph unicode="&#xf9;" horiz-adv-x="972" d="M36 100q0 30 18 85t47 119t66 130t75 120t72 88t60 34q56 0 56 -54q0 -24 -9 -40t-21 -30t-26 -27t-24 -31q-18 -30 -44 -82t-51 -101t-43 -87t-18 -42v-26q78 14 150 67t137 125t124 151t111 146t98 111t86 44q0 -74 -30 -134t-65 -118t-65 -119t-30 -137q0 -32 39 -57 t90 -42t99 -27t66 -12v-52q-46 -2 -114 -1t-136 15t-123 47t-73 97q-52 -34 -100 -80t-99 -86t-107 -68t-122 -28q-40 0 -67 34t-27 68zM433 1168q-3 30 33 32q28 -16 68 -59t78 -93t68 -96t38 -68q-4 -24 -35 -10t-71 49t-81 82t-68 90t-30 73z" />
<glyph unicode="&#xfa;" horiz-adv-x="972" d="M36 100q0 30 18 85t47 119t66 130t75 120t72 88t60 34q56 0 56 -54q0 -24 -9 -40t-21 -30t-26 -27t-24 -31q-18 -30 -44 -82t-51 -101t-43 -87t-18 -42v-26q78 14 150 67t137 125t124 151t111 146t98 111t86 44q0 -74 -30 -134t-65 -118t-65 -119t-30 -137q0 -32 39 -57 t90 -42t99 -27t66 -12v-52q-46 -2 -114 -1t-136 15t-123 47t-73 97q-52 -34 -100 -80t-99 -86t-107 -68t-122 -28q-40 0 -67 34t-27 68zM502 922q8 20 36 68t64 99t73 95t65 58q34 -2 30 -33t-29 -74t-63 -91t-76 -83t-67 -49t-33 10z" />
<glyph unicode="&#xfb;" horiz-adv-x="972" d="M36 100q0 30 18 85t47 119t66 130t75 120t72 88t60 34q56 0 56 -54q0 -24 -9 -40t-21 -30t-26 -27t-24 -31q-18 -30 -44 -82t-51 -101t-43 -87t-18 -42v-26q78 14 150 67t137 125t124 151t111 146t98 111t86 44q0 -74 -30 -134t-65 -118t-65 -119t-30 -137q0 -32 39 -57 t90 -42t99 -27t66 -12v-52q-46 -2 -114 -1t-136 15t-123 47t-73 97q-52 -34 -100 -80t-99 -86t-107 -68t-122 -28q-40 0 -67 34t-27 68zM302 938q0 16 19 51t49 78t67 88t72 81t65 60t46 24q32 0 67 -20t70 -53t67 -72t56 -78t39 -72t15 -51q-2 -42 -23 -38t-51 34t-64 75 t-64 86t-52 65t-26 12q-14 0 -19 -4t-15 -14q-42 -18 -77 -52t-63 -72t-52 -74t-45 -58t-41 -24t-40 28z" />
<glyph unicode="&#xfc;" horiz-adv-x="972" d="M36 100q0 30 18 85t47 119t66 130t75 120t72 88t60 34q56 0 56 -54q0 -24 -9 -40t-21 -30t-26 -27t-24 -31q-18 -30 -44 -82t-51 -101t-43 -87t-18 -42v-26q78 14 150 67t137 125t124 151t111 146t98 111t86 44q0 -74 -30 -134t-65 -118t-65 -119t-30 -137q0 -32 39 -57 t90 -42t99 -27t66 -12v-52q-46 -2 -114 -1t-136 15t-123 47t-73 97q-52 -34 -100 -80t-99 -86t-107 -68t-122 -28q-40 0 -67 34t-27 68zM369 942q11 24 38 48t55 35t50 2t22 -51q0 -44 -25 -70t-67 -26q-54 0 -69 19t-4 43zM711 956q11 24 38 48t55 35t50 2t22 -51 q0 -44 -25 -70t-67 -26q-54 0 -69 19t-4 43z" />
<glyph unicode="&#xfd;" horiz-adv-x="1068" d="M-407 -1297q-5 49 22 138t93 225t182 330q64 104 148 185t173 153t177 140t163 146t129 173t74 221q0 4 -1 13t-1 13q-46 -54 -111 -122t-140 -128t-157 -100t-160 -40q-20 0 -51 3t-61 13t-52 28t-22 48q0 26 14 80t38 120t54 134t64 124t67 92t61 36t48 -12t20 -40 q0 -50 -36 -100t-78 -107t-78 -123t-36 -150q132 0 238 55t192 137t152 178t117 178t88 137t63 55q38 0 45 -23t7 -57q-18 -62 -50 -145t-65 -174t-60 -181t-35 -164q0 -2 1 -6t1 -6q36 12 68 42t63 61t63 56t66 25q2 0 15 -28t-1 -68q-18 -14 -65 -48t-99 -71t-98 -72 t-64 -53q-28 -28 -58 -80t-60 -117t-59 -137t-57 -141t-55 -128t-49 -97q-10 -16 -41 -63t-68 -101t-72 -103t-53 -69q-8 -10 -44 -47t-81 -82t-90 -89t-69 -66q-24 -14 -64 -35t-83 -35t-84 -18t-67 17t-31 70zM-304 -1202q-2 -46 38 -54t136 38q20 18 57 53t74 72t67 68 t36 39q10 14 32 44t48 68t54 80t53 81t44 69t27 46q18 32 45 91t51 122t42 121t18 90q-4 0 -13 -3t-13 -5q-4 -4 -18 -14t-31 -22t-32 -24t-21 -18q-56 -40 -128 -113t-149 -162t-151 -188t-133 -190t-95 -167t-38 -122zM478 1082q8 20 36 68t64 99t73 95t65 58 q34 -2 30 -33t-29 -74t-63 -91t-76 -83t-67 -49t-33 10z" />
<glyph unicode="&#xfe;" horiz-adv-x="1024" d="M-36 -204l528 1506q10 18 26 17t34 -8t36 -17t32 -10q2 2 -6 -28t-22 -77t-32 -105t-35 -115t-30 -106t-19 -77q-2 -6 33 3t90 21t119 21t120 2t94 -34t40 -89q0 -86 -33 -171t-89 -161t-131 -138t-158 -102t-171 -55t-170 5l-26 -26l-74 -294q-6 -18 -34 -23t-46 -5 q-26 0 -51 17t-25 49zM296 216q138 0 236 41t180 157q94 100 120 163t7 94t-71 33t-115 -19t-126 -63t-103 -96q-18 -20 -40 -63t-42 -87t-33 -79t-13 -39v-42z" />
<glyph unicode="&#xff;" horiz-adv-x="1068" d="M-407 -1297q-5 49 22 138t93 225t182 330q64 104 148 185t173 153t177 140t163 146t129 173t74 221q0 4 -1 13t-1 13q-46 -54 -111 -122t-140 -128t-157 -100t-160 -40q-20 0 -51 3t-61 13t-52 28t-22 48q0 26 14 80t38 120t54 134t64 124t67 92t61 36t48 -12t20 -40 q0 -50 -36 -100t-78 -107t-78 -123t-36 -150q132 0 238 55t192 137t152 178t117 178t88 137t63 55q38 0 45 -23t7 -57q-18 -62 -50 -145t-65 -174t-60 -181t-35 -164q0 -2 1 -6t1 -6q36 12 68 42t63 61t63 56t66 25q2 0 15 -28t-1 -68q-18 -14 -65 -48t-99 -71t-98 -72 t-64 -53q-28 -28 -58 -80t-60 -117t-59 -137t-57 -141t-55 -128t-49 -97q-10 -16 -41 -63t-68 -101t-72 -103t-53 -69q-8 -10 -44 -47t-81 -82t-90 -89t-69 -66q-24 -14 -64 -35t-83 -35t-84 -18t-67 17t-31 70zM-304 -1202q-2 -46 38 -54t136 38q20 18 57 53t74 72t67 68 t36 39q10 14 32 44t48 68t54 80t53 81t44 69t27 46q18 32 45 91t51 122t42 121t18 90q-4 0 -13 -3t-13 -5q-4 -4 -18 -14t-31 -22t-32 -24t-21 -18q-56 -40 -128 -113t-149 -162t-151 -188t-133 -190t-95 -167t-38 -122zM407 1144q11 24 38 48t55 35t50 2t22 -51 q0 -44 -25 -70t-67 -26q-54 0 -69 19t-4 43zM749 1158q11 24 38 48t55 35t50 2t22 -51q0 -44 -25 -70t-67 -26q-54 0 -69 19t-4 43z" />
<glyph unicode="&#x152;" horiz-adv-x="1642" d="M29 170q1 46 9 90q104 316 200 535t182 358t162 210t141 93t118 5t95 -53t71 -81t45 -79q-8 -200 -76 -396t-185 -364t-276 -296t-347 -194q-54 2 -85 27t-43 62t-11 83zM134 120q74 0 163 44t169 109t140 139t80 132v6q0 4 1 5t1 3t-1 4t-1 4v4q-44 78 -67 168t-23 182 t22 182t68 168q-44 -10 -99 -82t-112 -180t-113 -239t-102 -255t-80 -230t-46 -164zM572 244q6 96 58 181t123 159t150 137t139 117q0 12 -11 32t-17 70q0 88 40 161t105 124t146 79t165 28q36 0 60 -27t38 -65t19 -78t5 -66h-70q0 22 -5 46t-16 43t-28 32t-43 13 q-46 0 -100 -25t-101 -64t-79 -89t-32 -100q0 -26 17 -37t44 -15t57 -4t57 -3t44 -15t17 -38q0 -16 -4 -31t-24 -25q-116 -30 -209 -71t-169 -98t-141 -135t-127 -186q0 -4 -1 -20t-1 -20q0 -72 41 -109t109 -37q76 0 171 24t185 52t165 52t111 24q-2 -44 -38 -84t-94 -73 t-131 -59t-148 -42t-146 -22t-125 0q-52 0 -91 24t-64 62t-38 85t-13 93zM692 1037q-14 -99 4 -204t54 -187q214 234 224 560q0 18 1 38t-2 37t-15 30t-38 15q-108 -32 -161 -111t-67 -178z" />
<glyph unicode="&#x153;" horiz-adv-x="1148" d="M36 168q0 8 1 33t1 33q64 146 164 270t226 220q4 0 13 3t13 3q54 0 89 -23t56 -60t29 -82t8 -87q0 -78 -36 -163t-97 -156t-139 -116t-162 -45t-125 45t-41 125zM192 192q0 -22 18 -30t36 -8q50 0 97 27t84 68t59 91t22 96q0 22 -3 49t-13 48t-31 33t-59 4 q-28 -6 -64 -52t-69 -107t-55 -122t-22 -97zM480 253q4 73 33 138t76 118t101 92t109 59t97 17t66 -31t16 -86q0 -78 -49 -136t-108 -104t-108 -83t-49 -69q0 -18 21 -28t49 -15t56 -7t40 -4q188 40 282 49t118 -2t-9 -34t-101 -48t-158 -45t-178 -23t-163 17t-111 76 q-34 76 -30 149zM640 338q4 -2 6 -2h6q28 0 64 24t68 59t54 73t22 68q-40 0 -76 -22t-65 -55t-49 -72t-30 -73z" />
<glyph unicode="&#x178;" horiz-adv-x="1204" d="M-490 -1496q160 46 301 167t264 288t228 363t192 394t157 382t123 323t89 221t56 74q-50 -54 -127 -128t-167 -140t-186 -112t-182 -46q-56 0 -91 25t-55 64t-27 88t-7 99q0 42 22 121t58 173t80 192t90 178t87 131t69 51q26 0 46 -12t20 -40q0 -38 -20 -69t-62 -37 q-28 -32 -63 -93t-69 -136t-64 -157t-45 -156t-13 -134t32 -90t90 -24t160 64q102 74 192 162t166 178t136 175t104 154t70 115t34 58q22 32 38 53t35 33t45 16t70 4q-16 -54 -44 -119t-77 -168t-123 -262t-179 -402t-246 -585t-325 -812q-42 -84 -119 -186t-168 -199 t-188 -177t-180 -122t-145 -32t-82 92zM617 1760q11 24 38 48t55 35t50 2t22 -51q0 -44 -25 -70t-67 -26q-54 0 -69 19t-4 43zM959 1774q11 24 38 48t55 35t50 2t22 -51q0 -44 -25 -70t-67 -26q-54 0 -69 19t-4 43z" />
<glyph unicode="&#x2c6;" horiz-adv-x="790" d="M78 1514q0 16 19 51t49 78t67 88t72 81t65 60t46 24q32 0 67 -20t70 -53t67 -72t56 -78t39 -72t15 -51q-2 -42 -23 -38t-51 34t-64 75t-64 86t-52 65t-26 12q-14 0 -19 -4t-15 -14q-42 -18 -77 -52t-63 -72t-52 -74t-45 -58t-41 -24t-40 28z" />
<glyph unicode="&#x2dc;" horiz-adv-x="990" d="M-2 1156q0 16 28 36t64 38t70 30t46 12q62 0 105 -29t82 -63t84 -63t111 -29q84 0 125 22t60 49t25 50t22 23q22 0 46 -6t24 -36q-14 -58 -45 -94t-75 -60t-97 -37t-109 -25q-46 -4 -79 11t-62 39t-56 51t-60 47t-76 27t-101 -9q-4 0 -20 -4t-33 -8t-32 -8t-19 -4 q-16 0 -22 14t-6 26z" />
<glyph unicode="&#x2000;" horiz-adv-x="1103" />
<glyph unicode="&#x2001;" horiz-adv-x="2206" />
<glyph unicode="&#x2002;" horiz-adv-x="1103" />
<glyph unicode="&#x2003;" horiz-adv-x="2206" />
<glyph unicode="&#x2004;" horiz-adv-x="735" />
<glyph unicode="&#x2005;" horiz-adv-x="551" />
<glyph unicode="&#x2006;" horiz-adv-x="367" />
<glyph unicode="&#x2007;" horiz-adv-x="367" />
<glyph unicode="&#x2008;" horiz-adv-x="275" />
<glyph unicode="&#x2009;" horiz-adv-x="441" />
<glyph unicode="&#x200a;" horiz-adv-x="122" />
<glyph unicode="&#x2010;" horiz-adv-x="838" d="M152 466v54q54 6 117 15t129 18t131 15t123 6q16 0 34 1t35 -4t31 -16t20 -35q-12 -22 -48 -39t-86 -29t-106 -19t-104 -12t-83 -6t-41 -1q-18 0 -44 3t-50 10t-41 17t-17 22z" />
<glyph unicode="&#x2011;" horiz-adv-x="838" d="M152 466v54q54 6 117 15t129 18t131 15t123 6q16 0 34 1t35 -4t31 -16t20 -35q-12 -22 -48 -39t-86 -29t-106 -19t-104 -12t-83 -6t-41 -1q-18 0 -44 3t-50 10t-41 17t-17 22z" />
<glyph unicode="&#x2012;" horiz-adv-x="838" d="M152 466v54q54 6 117 15t129 18t131 15t123 6q16 0 34 1t35 -4t31 -16t20 -35q-12 -22 -48 -39t-86 -29t-106 -19t-104 -12t-83 -6t-41 -1q-18 0 -44 3t-50 10t-41 17t-17 22z" />
<glyph unicode="&#x2013;" horiz-adv-x="838" d="M152 466v54q54 6 117 15t129 18t131 15t123 6q16 0 34 1t35 -4t31 -16t20 -35q-12 -22 -48 -39t-86 -29t-106 -19t-104 -12t-83 -6t-41 -1q-18 0 -44 3t-50 10t-41 17t-17 22z" />
<glyph unicode="&#x2014;" horiz-adv-x="1234" d="M152 466v54q36 4 105 7t154 7t179 7t180 6t157 4t109 1q16 0 35 1t36 -3t31 -15t20 -35q-12 -24 -78 -39t-158 -24t-198 -14t-197 -7t-154 -2h-69q-18 0 -44 3t-50 10t-41 17t-17 22z" />
<glyph unicode="&#x2018;" horiz-adv-x="308" d="M58 1038q0 32 8 78t28 89t52 73t78 30q24 0 33 -15t9 -33q0 -16 -17 -27t-37 -32t-37 -56t-17 -95q0 -30 5 -54t12 -46t12 -45t5 -49q-40 0 -65 18t-41 45t-22 59t-6 60z" />
<glyph unicode="&#x2019;" horiz-adv-x="564" d="M282 1198q0 18 11 34t39 16q54 0 91 -31t59 -75t32 -91t10 -79q0 -30 -7 -62t-25 -60t-48 -46t-76 -18q0 28 6 51t14 46t14 48t6 55q0 60 -20 95t-43 56t-43 33t-20 28z" />
<glyph unicode="&#x201a;" horiz-adv-x="308" d="M70 184q0 32 8 78t28 89t52 73t78 30q24 0 33 -15t9 -33q0 -16 -17 -27t-37 -32t-37 -56t-17 -95q0 -30 5 -54t12 -46t12 -45t5 -49q-40 0 -65 18t-41 45t-22 59t-6 60z" />
<glyph unicode="&#x201c;" horiz-adv-x="724" d="M36 1438q0 56 15 123t48 124t83 95t120 38q0 -54 -21 -102t-46 -95t-46 -94t-21 -99q0 -22 9 -35t19 -25t19 -26t9 -36q0 -10 -1 -22t-6 -22t-16 -15t-33 -1q-46 8 -73 25t-40 41t-16 56t-3 70zM426 1507v49q0 58 15 110t45 91t78 62t114 23q0 -56 -30 -90t-62 -74 t-52 -102t-2 -176q0 -6 -10 -16t-16 -10q-34 0 -51 22t-23 51t-6 60z" />
<glyph unicode="&#x201d;" horiz-adv-x="946" d="M240 1778q56 0 97 -21t68 -57t39 -84t12 -100v-46t-5 -55t-19 -46t-44 -19q-6 0 -15 9t-9 15q12 68 7 116t-19 81t-33 57t-37 46t-30 46t-12 58zM566 1758q58 0 101 -35t71 -88t41 -115t13 -114q0 -34 -2 -63t-13 -52t-34 -38t-63 -23q-18 -4 -28 1t-15 14t-5 20v21 q0 20 7 33t16 24t17 23t8 30q0 50 -18 94t-39 87t-39 87t-18 94z" />
<glyph unicode="&#x201e;" horiz-adv-x="724" d="M102 150q0 56 15 123t48 124t82 95t119 38q0 -54 -21 -102t-45 -95t-45 -94t-21 -99q0 -22 8 -35t19 -25t19 -26t8 -36q0 -10 -1 -22t-5 -22t-16 -16t-32 -2q-48 8 -74 25t-39 42t-16 57t-3 70zM492 219v49q0 58 15 109t45 90t78 62t114 23q0 -38 -14 -64t-35 -49 t-44 -49t-39 -63t-22 -88t8 -127q0 -6 -10 -16t-16 -10q-34 0 -51 22t-23 51t-6 60z" />
<glyph unicode="&#x2022;" horiz-adv-x="528" d="M148 654q4 32 36 55t74 23t83 -28t65 -96q0 -56 -39 -89t-107 -33q-8 0 -27 -4t-38 8t-33 48t-14 116z" />
<glyph unicode="&#x2026;" horiz-adv-x="1718" d="M414 26v138h50t62 -6t52 -20t22 -44q0 -44 -24 -70t-68 -26h-21t-31 3t-29 9t-13 16zM942 26v138h51t61 -6t52 -20t22 -44q0 -44 -24 -70t-68 -26h-21t-31 3t-29 9t-13 16zM1470 26v138h51t61 -6t52 -20t22 -44q0 -44 -24 -70t-68 -26h-21t-31 3t-29 9t-13 16z" />
<glyph unicode="&#x202f;" horiz-adv-x="441" />
<glyph unicode="&#x2039;" horiz-adv-x="830" d="M10 454q0 22 18 38t36 28q20 12 63 38t96 59t113 70t113 70t96 59t63 40l42 28t36 19t39 11t53 4q0 -50 -26 -80t-66 -60q-24 -16 -87 -57t-133 -86t-132 -86t-88 -55q-28 -16 -28 -42v-6q0 -2 2 -4l492 -78q0 -4 2 -8q0 -4 1 -7t1 -5q0 -56 -56 -84h-25t-40 -1t-39 -1 h-26q-26 0 -75 3t-107 12t-118 23t-109 36t-80 52t-31 70z" />
<glyph unicode="&#x203a;" horiz-adv-x="880" d="M49 769q3 29 27 45t61 20t74 -3t65 -27t36 -52l464 -180q82 -34 82 -104q0 -32 -21 -48t-51 -22t-61 -7t-51 -1l-544 -234q-4 0 -7 -1t-7 -1q-18 0 -33 7t-31 21q14 38 51 72t88 64t111 54t118 43t111 32t89 19q0 2 1 7t1 7q0 26 -30 42t-48 22q-26 10 -92 32l-141 47 l-141 47t-92 30q-32 40 -29 69z" />
<glyph unicode="&#x205f;" horiz-adv-x="551" />
<glyph unicode="&#x20ac;" horiz-adv-x="1414" d="M0 1018q14 26 40 37t56 13t59 0t51 2q14 2 47 9t71 15t71 15t45 11q68 120 133 215t136 174t154 150t185 143q28 40 78 60t90 20q108 0 179 -53t71 -149q0 -36 -20 -70t-60 -34q-32 0 -48 25t-25 54t-16 54t-25 25q-116 -50 -204 -100t-160 -114t-134 -148t-126 -198 q6 0 26 -1t26 -1q64 0 125 14t125 14q10 0 25 1t29 -2t24 -12t10 -27q0 -2 -1 -7t-1 -7q-58 -10 -106 -20t-93 -22t-91 -27t-98 -35q-12 -4 -32 -13t-20 -11v-130q108 0 211 14t211 14q12 0 29 1t33 -2t27 -13t11 -30q0 -2 -1 -6t-3 -4l-518 -104l-52 -24q-20 -32 -21 -90 t14 -125t44 -139t70 -133t90 -104t103 -55q74 0 139 15t135 15q8 0 34 -1t32 -1q12 -18 19 -32t7 -32q-82 -48 -160 -83t-153 -42t-146 24t-139 116t-131 233t-121 376q-58 0 -112 -11t-110 -11q-28 0 -57 14t-29 50q0 26 26 40q62 12 122 18t107 23t76 53t29 108 q-76 0 -151 -11t-151 -11q-20 0 -35 2t-27 10t-23 24t-25 44z" />
<glyph unicode="&#x2122;" horiz-adv-x="2536" d="M10 946v6q0 2 2 6q4 10 13 31t13 23l182 78l1218 310q22 -56 -3 -89t-79 -54t-125 -36t-142 -36t-131 -56t-90 -93q-130 -258 -267 -514t-251 -522q-2 0 -7 -1t-7 -1q-26 0 -47 12t-21 40q0 46 20 97t36 87q14 28 44 87t68 133t81 156t81 156t69 133t45 87q2 2 9 14 t16 24t17 23t10 15t-2 8t-4 8q-86 -10 -179 -26t-184 -37t-175 -48t-152 -61q-22 0 -40 8t-18 32zM448 142q0 16 19 42t33 36q28 -46 46 -62t56 -16q60 0 127 19t130 51t118 74t95 88q30 40 73 103t92 138t100 153t100 149t92 127t73 84q28 0 42 -9t20 -25t6 -38v-46 q0 -84 -25 -164t-55 -155t-55 -147t-25 -142q0 -4 1 -14t1 -14q188 208 324 360t231 259t155 174t96 104t55 51t31 14q20 0 30 -12t13 -28t2 -34t-1 -30q0 -84 -31 -171t-78 -178t-102 -184t-102 -191t-78 -199t-31 -207q0 -54 2 -79t12 -42t32 -36t62 -61q-46 -26 -89 -21 t-74 35t-45 82t-2 118q0 116 31 235t78 235t101 225t102 205v26q-22 -24 -69 -75t-106 -114t-124 -134t-124 -135t-105 -116t-68 -76t-42 -71t-44 -95t-53 -84t-65 -36q-30 0 -47 6t-25 19t-10 33t-2 48q0 74 12 145t31 142t42 141t47 142v26l-13 -13t-11 -13 q-48 -72 -98 -154t-104 -163t-116 -156t-134 -132t-157 -91t-187 -34q-22 0 -59 2t-72 12t-60 32t-25 62z" />
<glyph unicode="&#xe000;" horiz-adv-x="910" d="M0 0v910h910v-910h-910z" />
<glyph unicode="&#xfb01;" horiz-adv-x="1302" d="M-456 -636q112 0 204 64t166 159t128 202t88 193q14 36 36 99t43 124t36 109t15 56v8q-34 28 -68 21t-65 -20t-57 -16t-46 35q0 34 18 54t46 32t62 18t66 14t58 22t38 40l206 466q26 56 72 105t104 83t122 54t124 20q86 0 118 -46t32 -138q0 -18 -13 -46t-33 -54t-44 -44 t-46 -18q0 26 10 49t21 45t21 45t10 51q0 32 -6 54t-50 22q-58 0 -117 -29t-114 -78t-104 -112t-84 -129t-56 -131t-21 -117q0 -4 1 -13t1 -13q38 12 87 28t102 29t106 22t101 9q0 -32 -32 -58t-81 -48t-108 -42t-111 -39t-91 -40t-49 -43q-10 -60 -43 -166t-85 -230 t-119 -252t-146 -232t-166 -170t-179 -66q-12 0 -31 2t-36 8t-29 18t-12 30zM476 126q0 28 6 49t22 55q14 20 51 76t78 118t78 117t51 77q18 26 28 28t38 2q18 0 39 -2t27 -28q-28 -68 -75 -129t-92 -121t-79 -123t-34 -135q8 0 25 -2t37 -4t37 -4t25 0q12 2 41 9t62 15 t63 16t42 12q0 -4 1 -13t1 -13q0 -40 -37 -66t-86 -41t-100 -20t-79 -5q-30 0 -61 7t-55 23t-39 41t-15 61zM1058 1298q26 0 48 -2t38 -10t26 -24t10 -44v-26t-3 -27t-11 -22t-26 -9q-28 0 -45 20t-25 47t-10 55t-2 42z" />
<glyph unicode="&#xfb02;" horiz-adv-x="1134" d="M-456 -636q112 0 204 64t166 159t128 202t88 193q14 36 36 99t43 124t36 109t15 56v8q-34 28 -68 21t-65 -20t-57 -16t-46 35q0 34 18 54t46 32t62 18t66 14t58 22t38 40l206 466q26 56 72 105t104 83t122 54t124 20q86 0 118 -46t32 -138q0 -18 -13 -46t-33 -54t-44 -44 t-46 -18q0 26 10 49t21 45t21 45t10 51q0 32 -6 54t-50 22q-58 0 -117 -29t-114 -78t-104 -112t-84 -129t-56 -131t-21 -117q0 -4 1 -13t1 -13q38 12 87 28t102 29t106 22t101 9q0 -32 -32 -58t-81 -48t-108 -42t-111 -39t-91 -40t-49 -43q-10 -60 -43 -166t-85 -230 t-119 -252t-146 -232t-166 -170t-179 -66q-12 0 -31 2t-36 8t-29 18t-12 30zM626 134q0 14 3 43t7 57t8 51t8 29l364 728q8 16 31 45t50 60t54 58t45 43q14 -4 20 -14t8 -23t1 -25t-1 -20v-28t-2 -18q-20 -54 -62 -128t-94 -158t-107 -175t-100 -180t-74 -171t-29 -150 q0 -36 21 -57t45 -37t45 -32t21 -44q0 -18 -16 -27t-38 -9q-84 0 -146 47t-62 135z" />
</font>
</defs>
</svg>
