<?xml version="1.0" encoding="utf-8"?>
<!-- Generator: Adobe Illustrator 23.0.1, SVG Export Plug-In . SVG Version: 6.00 Build 0)  -->
<svg version="1.1" id="Layer_1" xmlns="http://www.w3.org/2000/svg" xmlns:xlink="http://www.w3.org/1999/xlink" x="0px" y="0px"
	 viewBox="0 0 512 512" style="enable-background:new 0 0 512 512;" xml:space="preserve">
<style type="text/css">
	.st0{fill:#CC9933;}
	.st1{fill:url(#SVGID_1_);}
	.st2{fill:#993300;}
</style>
<g>
	<circle class="st0" cx="256" cy="256" r="256"/>
	
		<radialGradient id="SVGID_1_" cx="256.0035" cy="256.0035" r="246.855" fx="254.8865" fy="68.1714" gradientUnits="userSpaceOnUse">
		<stop  offset="0.2044" style="stop-color:#FFFBC8"/>
		<stop  offset="0.7923" style="stop-color:#FFF161"/>
		<stop  offset="0.9651" style="stop-color:#F9C95C"/>
	</radialGradient>
	<circle class="st1" cx="256" cy="256" r="246.9"/>
	<g>
		<path class="st2" d="M164.7,145.4c-12.8,0-23.3,16.7-23.3,37.3s10.4,37.3,23.3,37.3c12.8,0,23.3-16.7,23.3-37.3
			S177.6,145.4,164.7,145.4z"/>
	</g>
	<g>
		<path class="st2" d="M347.3,145.4c-12.8,0-23.3,16.7-23.3,37.3s10.4,37.3,23.3,37.3c12.8,0,23.3-16.7,23.3-37.3
			S360.1,145.4,347.3,145.4z"/>
	</g>
	<path class="st2" d="M137,300.9c12.6,18.6,30.9,33.5,51.6,43.8c20.8,10.2,44.1,15.6,67.4,15.6c23.3,0,46.7-5.3,67.4-15.5
		c20.7-10.2,39-25.2,51.6-43.8c-2.4,1.5-4.7,3-7,4.6l-7,4.4L354,314c-2.4,1.3-4.8,2.6-7.2,3.8c-9.6,4.9-19.4,9.1-29.4,12.4
		c-20,6.7-40.7,10.1-61.4,10.1c-20.7,0-41.5-3.4-61.4-10.1c-10-3.3-19.8-7.5-29.4-12.4c-2.4-1.3-4.8-2.5-7.1-3.8l-7.1-4.1l-7-4.4
		C141.7,304,139.4,302.4,137,300.9z"/>
</g>
</svg>
