<?xml version="1.0" encoding="utf-8"?>
<!-- Generator: Adobe Illustrator 23.0.1, SVG Export Plug-In . SVG Version: 6.00 Build 0)  -->
<svg version="1.1" id="Layer_1" xmlns="http://www.w3.org/2000/svg" xmlns:xlink="http://www.w3.org/1999/xlink" x="0px" y="0px"
	 viewBox="0 0 1400 550" style="enable-background:new 0 0 1400 550;" xml:space="preserve">
<style type="text/css">
	.st0{fill:url(#SVGID_1_);}
	.st1{fill:#CA3248;}
	.st2{fill:#F3ECAD;}
	.st3{fill:#E5CBAC;}
	.st4{fill:#656B67;}
	.st5{fill:#E4C9A1;}
	.st6{fill:#C6B298;}
	.st7{fill:#EAD498;}
	.st8{fill:#2C3035;}
	.st9{fill:#ECF5F9;}
	.st10{opacity:0.8;}
	.st11{opacity:0.75;fill:#EAD498;}
	.st12{fill:#394D54;}
	.st13{fill:#039AC5;}
	.st14{fill:#24B7EA;}
	.st15{fill:#008AB7;}
	.st16{fill:#00A9D9;}
	.st17{fill:#BEDADF;}
	.st18{fill:#01AAD1;}
	.st19{fill:#20C0EC;}
	.st20{fill:#01AAD0;}
	.st21{fill:#00ABD1;}
	.st22{fill:#20C1ED;}
	.st23{fill:#D3ECF0;}
	.st24{fill:#788F95;}
	.st25{fill:#CFEAEF;}
	.st26{fill:#35535C;}
	.st27{fill:#37545E;}
	.st28{fill:#394E55;}
	.st29{fill:#315965;}
	.st30{fill:#365C68;}
	.st31{fill:#3B4F56;}
	.st32{fill:#252F3E;}
	.st33{fill-rule:evenodd;clip-rule:evenodd;fill:#FF9900;}
</style>
<radialGradient id="SVGID_1_" cx="700" cy="275" r="531.8012" gradientUnits="userSpaceOnUse">
	<stop  offset="5.618000e-03" style="stop-color:#D1EEFC"/>
	<stop  offset="0.4494" style="stop-color:#C1E8FB"/>
	<stop  offset="1" style="stop-color:#B1E3FA"/>
</radialGradient>
<rect class="st0" width="1400" height="550"/>
<g>
	<g>
		<path class="st1" d="M647.35,262.28c0,0-31.37,22.08-32.6,30.5l2.35-0.48c0,0,37.57-24.9,67.35-27.94l0.67-3.78L647.35,262.28z"/>
		<path class="st1" d="M696.6,259.13l-24.71,17.53l1.34,1.07c1.01-0.81,43.9-13.91,43.9-13.91l9.04-5.67
			C720.1,258.9,696.6,259.13,696.6,259.13z"/>
		<path class="st1" d="M718.08,280.32c17.55,0,43.85-17.19,43.85-17.19l-8.5-1.62c-0.42,0.42-13.71-0.47-13.71-0.47l-6.31-1.75
			l-15.07,17.18l-1.23,2.98C718.19,279.02,718.08,280.32,718.08,280.32z"/>
	</g>
	<path class="st1" d="M775.34,335.13l-5.42,1.53l-25.05-0.54l-15.67-12.18l-18.94,4.74l-21.9-1.9l-12.27,13.4l-23.02,6.87
		l-11.49-3.56c-0.37-0.32-0.58-0.5-0.58-0.5l5.16,12.63c0,0,11.68,12.53,18.21,14c6.53,1.47,18.31-0.11,27.16-1.47
		c8.84-1.37,15.89-4.53,18.73-9.68c2.84-5.16,3.26-6.63,3.26-6.63s8.42,11.89,15.68,13.26c7.26,1.37,28.84-6,28.84-6
		s13.16-3.58,15.47-8.1c2.32-4.53,8.42-19.37,8.42-19.37L775.34,335.13z M644,345.42c-0.12-0.06-0.24-0.11-0.36-0.17
		c-0.86-0.75-1.57-1.35-2.03-1.75L644,345.42z"/>
	<g>
		<path class="st2" d="M796.62,245.66c-0.05-0.68-0.13-1.35-0.21-2.03c-0.06-0.48-0.13-0.97-0.22-1.44c-1.81-1.52-3.86-2.87-6-4.1
			c-2.32-1.35-4.74-2.57-7.22-3.69c-2.46-1.16-4.98-2.21-7.52-3.23c-1.27-0.51-2.55-1.01-3.83-1.49c-1.28-0.5-2.57-0.96-3.87-1.44
			c2.72,0.45,5.41,1.07,8.08,1.75c1.74,0.45,3.47,0.95,5.18,1.49c-12.21-31.91-41.41-52.7-73.28-52.7
			c-31.88,0-61.07,20.78-73.28,52.7c1.72-0.54,3.45-1.04,5.18-1.49c2.67-0.69,5.37-1.3,8.08-1.75c-1.3,0.47-2.59,0.94-3.87,1.44
			c-1.28,0.48-2.56,0.97-3.83,1.49c-2.54,1.02-5.06,2.07-7.52,3.23c-2.47,1.13-4.9,2.34-7.21,3.69c-2.14,1.23-4.19,2.58-6.01,4.1
			c-0.08,0.46-0.15,0.96-0.21,1.44c-0.08,0.67-0.16,1.35-0.21,2.03c-0.12,1.36-0.17,2.72-0.18,4.09c-0.03,2.73,0.16,5.47,0.5,8.18
			c0.37,2.71,0.87,5.41,1.61,8.02c0.36,1.31,0.77,2.59,1.25,3.84c0.24,0.62,0.5,1.23,0.77,1.83c0.14,0.3,0.28,0.59,0.42,0.87
			l0.17,0.33c0.2,0.1,0.41,0.21,0.61,0.3l1.21,0.58c0.68,0.31,1.61,0.75,2.39,1.1c0.04-0.04,0.09-0.08,0.12-0.11l-2.25-8.58
			c0.48-0.13,4.76-1.23,12.13-2.64c-0.6-0.11-1.2-0.24-1.79-0.38c-1.68-0.42-3.34-0.93-4.94-1.58c-0.8-0.34-1.58-0.7-2.33-1.12
			c-0.75-0.43-1.48-0.92-2.05-1.56c8.1,2.64,24.84,1.45,39.72-0.09c13.61-1.4,27.25-2.31,40.96-2.34
			c13.71,0.03,27.36,0.94,40.96,2.34c14.89,1.54,31.63,2.74,39.73,0.09c-0.57,0.65-1.3,1.13-2.05,1.56
			c-0.75,0.42-1.53,0.79-2.33,1.12c-1.61,0.65-3.26,1.16-4.94,1.58c-0.25,0.06-0.5,0.11-0.75,0.17c8.09,1.5,12.79,2.72,13.3,2.85
			l-2.16,8.18c0.43-0.2,0.87-0.38,1.3-0.58l1.21-0.58c0.2-0.1,0.41-0.2,0.61-0.3l0.17-0.33c0.15-0.28,0.29-0.57,0.42-0.87
			c0.27-0.6,0.53-1.21,0.77-1.83c0.48-1.25,0.89-2.53,1.25-3.84c0.74-2.61,1.23-5.3,1.61-8.02c0.35-2.71,0.53-5.44,0.5-8.18
			C796.79,248.38,796.74,247.02,796.62,245.66z"/>
		<path class="st3" d="M716.93,359.16c-1.07,0.16-2.15,0.3-3.21,0.38c-0.69,0.03-1.42,0.1-2.08,0.1l-0.24,0.01
			c0.83-1.85,1.46-3.29,1.93-4.37C714.3,356.36,715.53,357.71,716.93,359.16z"/>
		<path class="st3" d="M719.26,361.53c3.33,3.3,7.46,5.19,12,5.52c-7.63,3.1-14.82,4.3-20.36,4.67c-5.52,0.37-11.12-0.28-16.61-1.79
			c0.46-0.08,0.8-0.14,1.2-0.19c0.45-0.05,10.29-1.34,14.73-7.93l0.42,0.01l1.09-0.01c0.74,0,1.41-0.06,2.11-0.09
			c1.67-0.15,3.31-0.38,4.92-0.71C718.92,361.19,719.09,361.36,719.26,361.53z"/>
		<path class="st4" d="M728.7,262.78c-0.32,0.42-0.68,0.88-1.06,1.35c-1.95,2.46-4.65,5.62-7.86,8.7c-3.73-0.12-7.56-0.18-11.5-0.18
			c-6.51,0-12.76,0.17-18.69,0.46c8.38-3.48,18.45-6.87,29.35-8.91C722.13,263.6,725.39,263.12,728.7,262.78z"/>
		<path class="st4" d="M679.66,266.54c-2.99,2.1-6.37,4.78-9.64,8.04c-8.39,0.84-15.71,1.86-21.74,2.83
			C657.55,273.14,668.14,269.21,679.66,266.54z"/>
		<path class="st4" d="M782.15,283.85l-3.41,23.87l-16.35,11.45l-42.63-4.85l-6.42-21.13c-0.15-0.51-0.59-0.89-1.12-0.98
			c-1.58-0.25-2.98-0.39-4.14-0.39c-1.17,0-2.56,0.13-4.15,0.39c-0.53,0.09-0.96,0.46-1.12,0.98l-6.26,20.62l-42.39,9.43
			l-16.8-11.77l-3.31-26.79c0.72-0.41,1.45-0.81,2.19-1.22c1.04-0.22,2.21-0.46,3.5-0.71l3.12,25.28c0.05,0.39,0.27,0.75,0.59,0.97
			l11.56,8.1c0.24,0.16,0.52,0.25,0.8,0.25c0.1,0,0.2-0.01,0.31-0.03l34.85-7.75c0.12-0.03,0.24-0.07,0.35-0.12
			c0.32-0.17,0.58-0.47,0.69-0.83l6.28-20.67c1.68-0.43,6-1.44,9.79-1.44c3.78,0,8.1,1.01,9.78,1.44l6.28,20.67
			c0.16,0.54,0.63,0.92,1.19,0.99l34.85,3.96c0.34,0.04,0.68-0.05,0.96-0.24l11.56-8.09c0.31-0.22,0.52-0.57,0.58-0.95l3.09-21.6
			C778.69,283.12,780.63,283.53,782.15,283.85z"/>
		<path class="st4" d="M786.45,268.88l-3,11.38c-6.14-1.35-19.62-4.01-37.96-5.79c5.99-2.56,12.1-5.76,17.67-9.77
			C774.08,266.24,782.1,267.9,786.45,268.88z"/>
		<g>
			<path class="st5" d="M663.54,304.49c2.38-1.28,5.06-1.09,9.27-1.09c0.45,0.01,0.92,0.01,1.4-0.01c0.41-0.01,0.83-0.01,1.27-0.02
				c4.33-0.04,7.93,0.37,7.87-6.43c-0.07-6.8-3.09-12.3-7.41-12.25c-4.33,0.04-8.52,5.61-8.26,12.41c0.07,1.77,0.33,3.05,0.75,3.97
				C664.64,302.01,663.6,304.35,663.54,304.49z M715.62,276.52c-1.68,1.36-3.45,2.63-5.29,3.74l-6.15,3.71
				c-3.86,0.47-7.2,1.42-7.39,1.48c-0.11,0.03-0.22,0.08-0.32,0.14c-0.3,0.17-0.53,0.46-0.63,0.8l-6.26,20.63l-33.46,7.44
				l-10.54-7.38l-3.07-24.84c5.98-1.1,13.99-2.37,23.6-3.45c-1.03,1.23-2.03,2.53-2.98,3.89l-5.72,8.22l8.33-5.56
				c0.12-0.09,5.43-3.58,14.11-7.82c8.65-0.65,18.2-1.07,28.42-1.07C710.78,276.45,713.22,276.47,715.62,276.52z"/>
			<path class="st5" d="M752.26,301.7c-0.04-0.16-0.95-2.9-4.98-2.42c0.46-1.01,0.67-2.38,0.53-4.24
				c-0.53-6.79-4.48-12.18-8.81-12.03c-4.33,0.15-7.1,5.78-6.86,12.58c0.24,6.8,3.87,6.75,8.2,6.6
				C746.15,302.08,749.35,300.3,752.26,301.7z M773.61,282.16l-3.02,21.12l-10.63,7.44l-33.41-3.8l-6.23-20.53
				c-0.14-0.46-0.5-0.81-0.95-0.94c-0.21-0.06-4.34-1.24-8.73-1.62l0.8-0.05c0.69-0.05,12.22-1.46,25.98-6.21
				C752.66,278.74,765.11,280.61,773.61,282.16z"/>
		</g>
		<g>
			<path class="st6" d="M663.54,304.49c2.38-1.28,5.06-1.09,9.27-1.09c0.45,0.01,0.92,0.01,1.4-0.01c0.41-0.01,0.83-0.01,1.27-0.02
				c4.33-0.04,7.93,0.37,7.87-6.43c-0.07-6.8-3.09-12.3-7.41-12.25c-4.33,0.04-8.52,5.61-8.26,12.41c0.07,1.77,0.33,3.05,0.75,3.97
				C664.64,302.01,663.6,304.35,663.54,304.49z M715.62,276.52c-1.68,1.36-3.45,2.63-5.29,3.74l-6.15,3.71
				c-3.86,0.47-7.2,1.42-7.39,1.48c-0.11,0.03-0.22,0.08-0.32,0.14c-0.3,0.17-0.53,0.46-0.63,0.8l-6.26,20.63l-33.46,7.44
				l-10.54-7.38l-3.07-24.84c5.98-1.1,13.99-2.37,23.6-3.45c-1.03,1.23-2.03,2.53-2.98,3.89l-5.72,8.22l8.33-5.56
				c0.12-0.09,5.43-3.58,14.11-7.82c8.65-0.65,18.2-1.07,28.42-1.07C710.78,276.45,713.22,276.47,715.62,276.52z"/>
			<path class="st6" d="M752.26,301.7c-0.04-0.16-0.95-2.9-4.98-2.42c0.46-1.01,0.67-2.38,0.53-4.24
				c-0.53-6.79-4.48-12.18-8.81-12.03c-4.33,0.15-7.1,5.78-6.86,12.58c0.24,6.8,3.87,6.75,8.2,6.6
				C746.15,302.08,749.35,300.3,752.26,301.7z M773.61,282.16l-3.02,21.12l-10.63,7.44l-33.41-3.8l-6.23-20.53
				c-0.14-0.46-0.5-0.81-0.95-0.94c-0.21-0.06-4.34-1.24-8.73-1.62l0.8-0.05c0.69-0.05,12.22-1.46,25.98-6.21
				C752.66,278.74,765.11,280.61,773.61,282.16z"/>
		</g>
		<path class="st3" d="M788.2,291.45c0.51,0.42,0.92,1.52,0.46,6.61c-0.56,6.24-3.19,17.19-4.81,18.95
			c-1.79,0.35-5.55-0.06-7.84-0.6c0.4-1.57,0.51-2.32,0.83-3.93l4.01-2.8c0.32-0.22,0.53-0.57,0.58-0.95l2.8-19.63
			C785.93,290.02,787.68,291.02,788.2,291.45z"/>
		<path class="st3" d="M640.45,317.06c0.2,0.71,0.41,1.42,0.63,2.12c-2.16,0.63-6.55,1.24-8.53,0.89
			c-1.65-1.66-4.72-13.07-5.39-19.13c-0.55-4.91-0.16-5.97,0.34-6.39c0.58-0.49,2.75-1.72,4.63-2.73l2.54,20.62
			c0.05,0.4,0.26,0.75,0.59,0.97L640.45,317.06z"/>
		<path class="st3" d="M721.52,317.35l-0.15,1.32c0,0-4.62,4.28-12.05,5.24c-7.44,0.96-13.28-3.61-13.28-3.61
			c0.24,0.79,0.59,2.59,2.27,4.12c-1.98-0.24-4.12-0.4-6.36-0.4c-0.81,0-1.63,0.02-2.42,0.06c-4.58,0.24-11.01,7.16-15.54,14.13
			c-2.22,0.7-9.16,2.91-17.2,5.28c-7.5-10.39-11.19-21.01-11.56-22.11l0.01-0.01c-0.15-0.42-0.3-0.85-0.44-1.28l1.93,1.35v0.01
			l4.77,3.34l1.59,1.11c0.24,0.17,0.52,0.25,0.8,0.25c0.1,0,0.21-0.01,0.31-0.03l43.79-9.75c0.49-0.11,0.89-0.48,1.03-0.96
			l6.24-20.56c1.08-0.15,2.02-0.22,2.84-0.22c0.81,0,1.76,0.08,2.84,0.22l6.43,21.17c0.16,0.54,0.63,0.93,1.18,0.99L721.52,317.35z"
			/>
		<path class="st3" d="M771.51,316.21l1.41-0.99c-0.23,0.98-0.49,1.96-0.75,2.92c-1.97,6.3-4.28,11.87-6.86,16.79
			c-0.57,0.04-1.17,0.06-1.81,0.06c-1.99,0-4.02-0.17-6.27-0.37c-3.9-0.36-10.09-1.07-12.04-1.29c-1.68-1.34-7.45-5.92-12.24-9.69
			c-0.19-0.15-0.35-0.29-0.51-0.42c-0.84-0.71-1.8-1.53-3.75-1.53c-1.77,0-4.34,0.64-10.58,2.53c3.24-2.42,3.26-5.55,3.26-5.55
			l0.15-1.32l41.08,4.67c0.33,0.04,0.68-0.05,0.96-0.24l4.13-2.89L771.51,316.21z"/>
		<path class="st7" d="M741.27,229.78c0.12,3.65,0.03,10.28-1.67,16.48c-0.07,0.24-0.06,0.48,0,0.71c-2.17-0.23-4.33-0.42-6.5-0.6
			c2.43-5.1,2.96-10.52,3.08-12.43C738.05,232.61,739.91,231.02,741.27,229.78z"/>
		<path class="st7" d="M679.29,233.94c0.11,1.91,0.64,7.33,3.07,12.42c-2.17,0.17-4.33,0.37-6.49,0.6c0.06-0.22,0.07-0.46,0-0.7
			c-1.7-6.19-1.79-12.82-1.67-16.48C675.56,231.02,677.41,232.61,679.29,233.94z"/>
		<path class="st8" d="M752.26,301.7c-2.91-1.41-6.11,0.38-11.92,0.49c-4.33,0.15-7.96,0.2-8.2-6.6c-0.24-6.8,2.53-12.43,6.86-12.58
			c4.33-0.15,8.27,5.24,8.81,12.03c0.15,1.87-0.06,3.23-0.53,4.24C751.31,298.81,752.22,301.54,752.26,301.7z M738.66,291.75
			c1.22-0.03,2.19-1.03,2.17-2.25c-0.02-1.22-1.03-2.2-2.25-2.17c-1.22,0.02-2.19,1.03-2.17,2.25
			C736.43,290.79,737.44,291.77,738.66,291.75z"/>
		<path class="st9" d="M740.83,289.49c0.02,1.22-0.95,2.23-2.17,2.25c-1.22,0.02-2.23-0.95-2.25-2.17
			c-0.02-1.22,0.95-2.23,2.17-2.25C739.8,287.29,740.81,288.27,740.83,289.49z"/>
		<path class="st8" d="M683.35,296.94c0.06,6.8-3.54,6.39-7.87,6.43c-0.44,0.01-0.85,0.02-1.27,0.02c-0.49,0.01-0.95,0.02-1.4,0.01
			c-4.2-0.01-6.89-0.2-9.27,1.09c0.06-0.15,1.1-2.48,4.87-3.43c-0.42-0.92-0.68-2.2-0.75-3.97c-0.26-6.8,3.93-12.37,8.26-12.41
			C680.26,284.65,683.28,290.14,683.35,296.94z M676.66,293.39c1.22-0.03,2.18-1.05,2.15-2.27c-0.03-1.22-1.05-2.19-2.27-2.15
			c-1.22,0.03-2.19,1.05-2.16,2.27C674.42,292.46,675.44,293.42,676.66,293.39z"/>
		<path class="st9" d="M678.81,291.12c0.03,1.22-0.93,2.24-2.15,2.27c-1.22,0.03-2.24-0.93-2.27-2.16
			c-0.03-1.22,0.93-2.24,2.16-2.27C677.76,288.93,678.78,289.89,678.81,291.12z"/>
		<g class="st10">
			<path class="st7" d="M650.29,250.77c0,0,0.67-8.76,2.05-12.12c0.71-1.73,5.04-2.83,8.34-3.62c3.3-0.79,8.58-2.36,9.6,2.28
				c1.02,4.64,2.67,8.03,3.78,9.52l-1.42-19.13l-22.75,5.51l-1.5,16.92l0.71,1.34L650.29,250.77"/>
			<path class="st7" d="M765.39,250.77c0,0-0.67-8.76-2.05-12.12c-0.71-1.73-5.04-2.83-8.34-3.62c-3.31-0.79-8.58-2.36-9.6,2.28
				c-1.02,4.64-2.68,8.03-3.78,9.52l1.42-19.13l22.75,5.51l1.5,16.92l-0.71,1.34L765.39,250.77"/>
		</g>
		<path class="st11" d="M733.24,193.53c0,0-0.6,45.86-11.32,45.86c-10.71,0-12.86,0-12.86,0h-2.14c0,0-2.14,0-12.86,0
			c-10.71,0-11.58-45.84-11.58-45.84l-5.26,15.56l0.09,21.36l3.74,2.97l1.7,9.17l2.38,5.35l45.85,0.08l2.12-3.82l1.78-6.45
			l0.26-4.08l5.06-14.46L733.24,193.53z"/>
		<path class="st11" d="M766.97,236.29c0,0,2.2,15.82,8.04,18.67c5.84,2.85,0,0,0,0l-8.17-2.46L766.97,236.29z"/>
		<path class="st11" d="M648.49,236.29c0,0-2.2,15.82-8.04,18.67c-5.84,2.85,0,0,0,0l8.17-2.46L648.49,236.29z"/>
		<path class="st8" d="M768.54,252.43c2.78,0.91,5.57,1.87,8.1,3.35c-1.35-0.54-2.75-0.92-4.16-1.27c-1.4-0.36-2.82-0.66-4.24-0.93
			c-2.84-0.54-5.7-0.99-8.57-1.34c-2.86-0.37-5.73-0.69-8.62-0.93c-2.88-0.24-5.76-0.49-8.64-0.66c-11.54-0.71-23.11-0.89-34.69-0.9
			c-11.58,0.01-23.15,0.22-34.69,0.9c-2.89,0.17-5.76,0.41-8.64,0.66c-2.88,0.24-5.76,0.55-8.62,0.93c-2.87,0.35-5.72,0.8-8.57,1.34
			c-1.42,0.27-2.83,0.57-4.24,0.93c-1.4,0.35-2.81,0.73-4.16,1.27c2.53-1.48,5.32-2.45,8.11-3.36c0.23-0.08,0.47-0.14,0.71-0.22
			c-0.02-0.06-0.03-0.11-0.04-0.18c-0.05-0.32-1.08-7.92,0.72-18.8c0.09-0.52,0.46-0.94,0.97-1.08l2.94-0.84
			c0.64-22.81,10.03-33.54,10.33-33.87c-8.39,13.51-8.32,29.53-8.17,33.26l18.28-5.19c0.02,0,0.03,0,0.04-0.01
			c0.08-0.02,0.15-0.03,0.23-0.03c0.02,0,0.05-0.01,0.08-0.01c0.09,0,0.2,0.01,0.3,0.03c0.01,0,0.03,0.01,0.05,0.02
			c0.08,0.02,0.15,0.04,0.23,0.08c0.03,0.02,0.05,0.03,0.09,0.05c0.06,0.03,0.12,0.07,0.18,0.11c0.02,0.01,0.03,0.02,0.05,0.03
			c0.01,0.01,0.02,0.02,0.03,0.03c0.02,0.02,0.04,0.03,0.05,0.04c0.01,0.02,0.5,0.5,1.27,1.22c-0.18-6.02,0.1-23.3,8.33-37.62
			c-0.17,0.5-6.7,19.59-4.45,40.98c0.73,0.59,1.5,1.16,2.25,1.66c0.36,0.25,0.58,0.66,0.59,1.1c0.01,0.07,0.16,6.89,3.17,12.69
			c0.04,0.09,0.08,0.18,0.1,0.27c7.49-0.51,15-0.71,22.49-0.72c7.5,0.01,15,0.22,22.49,0.74c0.03-0.1,0.06-0.19,0.11-0.29
			c3.01-5.8,3.17-12.62,3.17-12.69c0.01-0.44,0.23-0.85,0.6-1.1c0.75-0.5,1.51-1.08,2.24-1.66c2.25-21.39-4.27-40.48-4.45-40.98
			c8.22,14.32,8.51,31.59,8.33,37.62c0.77-0.72,1.26-1.2,1.27-1.22c0.02-0.02,0.04-0.03,0.05-0.04c0.01-0.01,0.02-0.02,0.03-0.03
			c0.02-0.02,0.03-0.02,0.05-0.03c0.06-0.04,0.12-0.08,0.18-0.12c0.03-0.01,0.05-0.03,0.08-0.04c0.08-0.03,0.16-0.06,0.24-0.08
			c0.02,0,0.03-0.01,0.05-0.01c0.1-0.02,0.2-0.03,0.3-0.03c0.03,0,0.05,0.01,0.07,0.01c0.08,0,0.16,0.02,0.23,0.03
			c0.01,0.01,0.03,0.01,0.04,0.01l18.28,5.19c0.15-3.73,0.22-19.75-8.17-33.26c0.29,0.33,9.69,11.06,10.32,33.87l2.95,0.84
			c0.5,0.14,0.88,0.56,0.97,1.08c1.79,10.87,0.76,18.48,0.71,18.8c-0.01,0.07-0.03,0.12-0.04,0.18
			C768.07,252.28,768.31,252.35,768.54,252.43z M765.22,251.45c0.14-1.22,0.8-7.87-0.6-16.94l-20.69-5.88
			c0.19,3.5,0.27,11.1-1.72,18.35c-0.03,0.09-0.06,0.17-0.1,0.26c0.2,0.02,0.41,0.04,0.61,0.06c5.82,0.67,11.61,1.6,17.33,2.85
			C761.78,250.56,763.51,250.99,765.22,251.45z M739.6,246.26c1.7-6.2,1.79-12.82,1.67-16.48c-1.36,1.24-3.22,2.83-5.09,4.16
			c-0.11,1.91-0.65,7.34-3.08,12.43c2.17,0.17,4.33,0.37,6.5,0.6C739.54,246.74,739.53,246.5,739.6,246.26z M682.36,246.36
			c-2.43-5.09-2.96-10.51-3.07-12.42c-1.87-1.33-3.73-2.92-5.09-4.16c-0.12,3.66-0.03,10.29,1.67,16.48c0.07,0.24,0.06,0.48,0,0.7
			C678.03,246.73,680.19,246.53,682.36,246.36z M673.35,247.23c-0.04-0.08-0.07-0.16-0.1-0.25c-1.99-7.25-1.9-14.84-1.73-18.35
			l-20.68,5.88c-1.39,9.06-0.74,15.71-0.6,16.93c1.72-0.47,3.44-0.89,5.17-1.29c2.86-0.63,5.74-1.16,8.63-1.65
			c2.89-0.48,5.79-0.85,8.7-1.2C672.95,247.27,673.15,247.26,673.35,247.23z"/>
		<g id="XMLID_1_">
			<g>
				<path class="st8" d="M729.53,194.13v17.17h-12.17v-5.01h-2.74v23.17h4.14v12.96h-21.28v-12.96h4.13v-23.17h-2.73v5.01h-12.16
					v-17.17H729.53z M725.87,207.64v-9.87h-5.3h-9.6h-20.61v9.87h4.86v-5.01h10.05v30.47h-4.13v5.65h13.98v-5.65h-4.13v-30.47h10.05
					v5.01H725.87z"/>
				<polygon class="st1" points="725.87,197.77 725.87,207.64 721.02,207.64 721.02,202.63 710.97,202.63 710.97,233.1 
					715.11,233.1 715.11,238.75 701.13,238.75 701.13,233.1 705.26,233.1 705.26,202.63 695.22,202.63 695.22,207.64 690.36,207.64 
					690.36,197.77 710.97,197.77 720.57,197.77 				"/>
			</g>
			<g>
			</g>
		</g>
		<path class="st4" d="M630.13,268.88c1.77-0.4,4.17-0.91,7.11-1.48c-1.81,1.23-3.94,2.78-6.27,4.63L630.13,268.88z"/>
		<path class="st6" d="M695.07,315.93c0,0,0.5,3.19-3.97,4.56c-4.46,1.37-32.75,9.8-35.97,9.34c-3.23-0.46-11.41-5.92-11.41-5.92
			l-1.98-7.06l12.11,7.55L695.07,315.93z"/>
		<path class="st6" d="M720.41,315.31c0,0-0.36,3.21,4.16,4.38c4.52,1.17,33.14,8.36,36.35,7.77c3.2-0.6,11.14-6.41,11.14-6.41
			l1.68-7.14l-11.14,6.64L720.41,315.31z"/>
		<path class="st6" d="M627.83,310.05c0,0,3.92,7.84,10.25,5.12l4.52,1.66l-0.45,3.32l-9.5,1.2l-2.56-1.51L627.83,310.05z"/>
		<path class="st6" d="M788.27,307.9c0,0-6.41,8.18-12.74,5.47l-2.04,1.31l0.45,3.32l9.5,1.21l2.56-1.51L788.27,307.9z"/>
		<path class="st6" d="M689.19,369.49c0,0,23.22,11.71,49.51-4.22l-8.44-0.58c0,0-18.42,7.29-33.01,3.26L689.19,369.49z"/>
		<path class="st8" d="M712.73,347.92l1.61,1.91c0.04,0.05,3.61,4.3,7.97,8.62c2.9,2.88,6.41,4.33,10.43,4.33
			c1.37,0,2.81-0.18,4.27-0.53c1.35-0.33,2.82-0.68,4.32-1.04c5.43-1.3,11.58-2.77,14.56-3.61c0.59-0.17,1.25-0.32,1.94-0.48
			c3.97-0.92,9.41-2.18,12.29-7.95c2.17-4.33,5.09-9.95,7.26-14.08c-1.88,0.87-3.85,1.81-5.25,2.54c-2.16,1.13-4.98,1.68-8.63,1.68
			c-2.17,0-4.3-0.18-6.66-0.39c-4.71-0.43-12.69-1.37-12.77-1.38l-0.61-0.07l-0.48-0.39c-0.07-0.05-7.06-5.62-12.71-10.06
			c-0.23-0.19-0.44-0.36-0.63-0.52c-0.59-0.51-0.59-0.51-0.95-0.51c-1.81,0-7.08,1.63-18.61,5.21l-0.71,0.22l-0.69-0.26
			c-0.08-0.03-7.65-2.83-16.72-2.83c-0.74,0-1.48,0.02-2.2,0.06c-0.91,0.05-6.01,2.47-12.53,12.78l-0.42,0.66l-0.75,0.24
			c-0.11,0.04-11.33,3.66-23.23,7.06l-0.77,0.22l-0.73-0.34c-0.08-0.03-4.73-2.19-9.17-4.23c2.42,3.57,5.51,8.02,8.23,11.52
			c4.75,6.12,10.74,11.77,22.21,11.77c1.44,0,2.97-0.09,4.54-0.27c11.68-1.32,14.68-1.85,16.3-2.13c0.55-0.09,0.98-0.17,1.53-0.24
			c0.09-0.01,9.65-1.25,12.33-7.27c2.77-6.18,3.32-7.66,3.35-7.71l0.98-2.6c0,0,0.12-0.67,0.32-0.88c0,0.01,0,0.01,0,0.01l0.02,0.02
			C712.27,347.23,712.73,347.92,712.73,347.92z M640.01,231.17c-2.54,1.02-5.06,2.08-7.52,3.24c-2.47,1.13-4.9,2.34-7.21,3.69
			c-2.14,1.23-4.19,2.58-6,4.11c-0.08,0.46-0.15,0.96-0.21,1.43c-0.08,0.67-0.16,1.35-0.21,2.03c-0.12,1.36-0.17,2.72-0.18,4.09
			c-0.03,2.73,0.16,5.47,0.51,8.18c0.38,2.71,0.87,5.41,1.61,8.02c0.37,1.31,0.77,2.59,1.25,3.84c0.24,0.63,0.5,1.24,0.77,1.83
			c0.14,0.3,0.28,0.59,0.42,0.87l0.17,0.33c0.2,0.1,0.41,0.21,0.61,0.3l1.22,0.58c0.68,0.31,1.61,0.76,2.39,1.1
			c0.05-0.04,0.09-0.08,0.12-0.12l-2.25-8.58c0.48-0.13,4.76-1.24,12.13-2.64c-0.6-0.11-1.2-0.24-1.79-0.38
			c-1.68-0.42-3.34-0.93-4.94-1.58c-0.79-0.34-1.58-0.7-2.33-1.13c-0.75-0.43-1.48-0.91-2.05-1.56c8.1,2.65,24.84,1.45,39.72-0.09
			c13.61-1.4,27.25-2.31,40.96-2.34c13.71,0.03,27.36,0.94,40.96,2.34c14.89,1.53,31.63,2.74,39.73,0.09
			c-0.57,0.65-1.3,1.13-2.05,1.56c-0.75,0.42-1.53,0.79-2.33,1.13c-1.61,0.65-3.26,1.16-4.94,1.58c-0.25,0.06-0.5,0.12-0.75,0.17
			c8.09,1.5,12.79,2.72,13.29,2.85l-2.16,8.17c0.43-0.19,0.87-0.38,1.3-0.58l1.22-0.58c0.2-0.09,0.41-0.2,0.61-0.3l0.17-0.33
			c0.15-0.28,0.29-0.57,0.42-0.87c0.27-0.6,0.53-1.21,0.77-1.83c0.47-1.24,0.89-2.53,1.25-3.84c0.74-2.6,1.24-5.3,1.61-8.02
			c0.35-2.71,0.53-5.44,0.51-8.18c-0.01-1.37-0.06-2.74-0.18-4.09c-0.06-0.68-0.13-1.35-0.21-2.03c-0.06-0.47-0.14-0.98-0.21-1.43
			c-1.81-1.53-3.86-2.88-6-4.11c-2.32-1.35-4.74-2.56-7.22-3.69c-2.46-1.16-4.98-2.21-7.52-3.24c-1.27-0.51-2.55-1.01-3.83-1.49
			c-1.28-0.5-2.57-0.96-3.87-1.43c2.72,0.45,5.41,1.07,8.08,1.75c1.74,0.45,3.47,0.96,5.18,1.49c-12.21-31.92-41.41-52.7-73.28-52.7
			c-31.88,0-61.07,20.78-73.28,52.7c1.72-0.54,3.44-1.04,5.18-1.49c2.67-0.68,5.37-1.3,8.09-1.75c-1.3,0.47-2.59,0.94-3.87,1.43
			C642.56,230.15,641.29,230.65,640.01,231.17z M800.75,249.63c0.15,2.94,0.07,5.88-0.26,8.8c-0.31,2.92-0.86,5.81-1.63,8.68
			c-0.4,1.43-0.87,2.83-1.42,4.23c-0.28,0.7-0.57,1.39-0.9,2.09c-0.16,0.34-0.33,0.68-0.53,1.03l-0.29,0.52
			c-0.1,0.19-0.19,0.33-0.35,0.58l-0.3,0.46l-0.46,0.24c-0.5,0.26-0.9,0.45-1.35,0.66l-1.31,0.59c-0.88,0.37-1.76,0.73-2.64,1.07
			c-0.62,0.24-1.16,0.46-1.68,0.68l-1.46,5.53c-0.04-0.01-0.47-0.12-1.29-0.32l-0.08,0.58c1.61,0.84,4.76,2.54,5.84,3.43
			c2.17,1.79,2.32,4.62,1.84,9.92c-0.25,2.72-1.15,8.01-2.4,12.87c-2.16,8.37-3.31,9.35-4.79,9.73c-0.75,0.19-1.91,0.39-3.03,0.39
			c-2.28,0-5.4,0.06-7.49-0.44c-0.54,1.9-2.07,6.87-5.11,13.07c0.15-0.07,0.3-0.14,0.44-0.21c3.75-1.97,10.95-5.11,11.25-5.24
			l5.69-2.47l-2.91,5.48c-0.07,0.12-6.32,11.87-10.14,19.54c-3.8,7.6-10.92,9.25-15.19,10.23c-0.64,0.15-1.25,0.29-1.75,0.43
			c-3.06,0.86-9.26,2.34-14.72,3.65c-0.06,0.02-0.13,0.03-0.2,0.04c-3.36,2.08-7.03,3.93-11.05,5.45
			c-14.69,5.56-30.17,5.25-44.2,0.09c-2.28,0.29-5.28,0.65-9.27,1.11c-1.73,0.19-3.42,0.29-5.03,0.29
			c-13.37,0-20.46-6.79-25.63-13.44c-5.54-7.12-12.31-17.69-12.6-18.13l-3.93-6.13l6.64,2.99c3.18,1.43,12.63,5.8,15.33,7.06
			c0.22-0.06,0.43-0.12,0.65-0.19c-4.49-6.41-8.18-13.72-10.78-21.81c-2.21,0.67-5.62,1.18-8.27,1.18c-0.97,0-1.84-0.07-2.5-0.23
			c-1.48-0.34-3.17-1.77-5.48-9.88c-1.34-4.71-2.33-9.84-2.62-12.49c-0.57-5.16-0.47-7.93,1.68-9.71c1.29-1.08,5.66-3.37,6.56-3.84
			l-0.19-1.59c-13.86,8.15-22.17,15.35-22.34,15.49l-9.91,8.7l7.06-11.14c5.59-8.83,12.05-15.96,17.99-21.46
			c-0.25-0.1-0.47-0.2-0.72-0.3l-1.31-0.59c-0.45-0.21-0.86-0.4-1.35-0.66l-0.46-0.24l-0.3-0.46c-0.17-0.25-0.24-0.39-0.35-0.58
			l-0.29-0.52c-0.18-0.35-0.36-0.69-0.52-1.03c-0.33-0.69-0.63-1.39-0.9-2.09c-0.55-1.4-1.01-2.81-1.42-4.23
			c-0.78-2.87-1.33-5.76-1.63-8.68c-0.32-2.92-0.41-5.87-0.26-8.8c0.08-1.47,0.22-2.93,0.42-4.39c0.1-0.73,0.21-1.46,0.36-2.19
			c0.15-0.74,0.3-1.43,0.52-2.24l0.16-0.57l0.41-0.32c2.31-1.82,4.81-3.19,7.34-4.4c2.09-0.98,4.22-1.85,6.36-2.64
			c5.99-16.63,16.29-31.37,29.83-41.65c14-10.62,30.46-16.24,47.61-16.24c17.15,0,33.61,5.62,47.61,16.24
			c13.54,10.28,23.84,25.02,29.83,41.65c2.15,0.79,4.27,1.65,6.37,2.64c2.54,1.22,5.03,2.59,7.34,4.4l0.41,0.32l0.16,0.57
			c0.23,0.81,0.37,1.5,0.52,2.24c0.15,0.73,0.26,1.46,0.36,2.19C800.53,246.7,800.68,248.17,800.75,249.63z M788.65,298.06
			c0.46-5.09,0.06-6.19-0.46-6.61c-0.52-0.43-2.27-1.42-3.97-2.35l-2.8,19.62c-0.05,0.38-0.27,0.73-0.58,0.95l-4.01,2.8
			c-0.32,1.61-0.43,2.36-0.82,3.93c2.29,0.53,6.05,0.95,7.84,0.6C785.47,315.25,788.1,304.3,788.65,298.06z M783.45,280.26l3-11.38
			c-4.35-0.99-12.37-2.64-23.29-4.18c-5.57,4.01-11.68,7.21-17.67,9.77C763.84,276.26,777.32,278.91,783.45,280.26z M778.73,307.73
			l3.41-23.87c-1.52-0.33-3.46-0.73-5.78-1.18l-3.08,21.6c-0.06,0.38-0.27,0.73-0.58,0.95l-11.57,8.09
			c-0.27,0.19-0.62,0.28-0.95,0.25l-34.86-3.96c-0.56-0.06-1.02-0.45-1.19-0.98l-6.28-20.67c-1.68-0.43-6-1.44-9.78-1.44
			c-3.79,0-8.11,1.01-9.79,1.44l-6.28,20.67c-0.11,0.36-0.36,0.66-0.69,0.83c-0.1,0.06-0.22,0.1-0.35,0.13l-34.85,7.75
			c-0.11,0.02-0.2,0.03-0.31,0.03c-0.28,0-0.56-0.08-0.8-0.25l-11.56-8.09c-0.32-0.22-0.54-0.58-0.59-0.98l-3.12-25.28
			c-1.29,0.25-2.46,0.49-3.51,0.71c-0.74,0.41-1.47,0.82-2.19,1.22l3.31,26.79l16.8,11.77l42.39-9.43l6.26-20.62
			c0.16-0.52,0.59-0.9,1.12-0.98c1.59-0.25,2.97-0.39,4.15-0.39c1.16,0,2.56,0.13,4.14,0.39c0.53,0.08,0.96,0.46,1.12,0.98
			l6.42,21.13l42.63,4.85L778.73,307.73z M770.6,303.28l3.02-21.12c-8.51-1.55-20.95-3.42-36.19-4.59
			c-13.76,4.75-25.28,6.16-25.98,6.2l-0.8,0.06c4.39,0.38,8.52,1.56,8.73,1.62c0.46,0.14,0.81,0.49,0.95,0.94l6.24,20.53l33.41,3.8
			L770.6,303.28z M772.92,315.22l-1.42,0.99l-3.81,2.67l-4.13,2.89c-0.28,0.19-0.63,0.28-0.96,0.25l-41.08-4.67l-2.99-0.34
			c-0.55-0.06-1.02-0.45-1.18-0.99l-6.43-21.17c-1.07-0.15-2.03-0.22-2.83-0.22c-0.82,0-1.77,0.07-2.84,0.22l-6.24,20.56
			c-0.15,0.48-0.54,0.85-1.03,0.95l-43.79,9.75c-0.1,0.02-0.21,0.03-0.31,0.03c-0.28,0-0.56-0.08-0.8-0.25l-1.59-1.11l-4.77-3.33
			v-0.01l-1.93-1.35c0.14,0.43,0.29,0.86,0.44,1.28l-0.01,0.01c0.37,1.1,4.06,11.72,11.56,22.11c8.03-2.37,14.98-4.57,17.2-5.28
			c4.52-6.97,10.97-13.89,15.54-14.13c0.79-0.04,1.61-0.06,2.42-0.06c2.24,0,4.38,0.16,6.36,0.4c-1.69-1.53-2.03-3.33-2.27-4.12
			c0,0,5.84,4.57,13.28,3.61c7.44-0.96,12.06-5.25,12.06-5.25s-0.02,3.13-3.26,5.55c6.23-1.88,8.81-2.53,10.58-2.53
			c1.95,0,2.91,0.81,3.75,1.53c0.16,0.13,0.32,0.27,0.51,0.42c4.79,3.77,10.55,8.35,12.24,9.69c1.95,0.23,8.14,0.93,12.04,1.29
			c2.25,0.2,4.28,0.38,6.27,0.38c0.64,0,1.24-0.03,1.81-0.06c2.58-4.92,4.9-10.5,6.86-16.79
			C772.43,317.18,772.69,316.2,772.92,315.22z M757.76,263.2c-0.01-0.01-0.02-0.01-0.03-0.01c-3.3-0.24-6.6-0.47-9.91-0.66
			c-4.59-0.26-9.19-0.48-13.78-0.67c-0.27,0.4-0.81,1.18-1.59,2.24c-2.5,3.38-7.46,9.59-13.82,14.85c9-1.61,24.61-5.61,38.11-15.03
			C757.09,263.69,757.43,263.44,757.76,263.2z M727.64,264.14c0.38-0.47,0.74-0.93,1.05-1.35c-3.31,0.33-6.57,0.81-9.75,1.42
			c-10.9,2.04-20.97,5.43-29.35,8.91c5.94-0.29,12.18-0.46,18.69-0.46c3.94,0,7.77,0.07,11.5,0.18
			C722.99,269.75,725.69,266.6,727.64,264.14z M731.26,367.06c-4.54-0.33-8.67-2.22-12-5.52c-0.17-0.18-0.34-0.35-0.51-0.52
			c-1.61,0.32-3.25,0.56-4.92,0.71c-0.7,0.03-1.37,0.09-2.11,0.09l-1.09,0.01l-0.42-0.01c-4.43,6.59-14.27,7.88-14.73,7.93
			c-0.41,0.05-0.74,0.1-1.2,0.19c5.49,1.5,11.09,2.16,16.61,1.78C716.43,371.35,723.63,370.15,731.26,367.06z M713.71,359.54
			c1.06-0.08,2.13-0.22,3.21-0.38c-1.39-1.45-2.63-2.8-3.6-3.89c-0.47,1.09-1.11,2.53-1.94,4.37h0.25
			C712.3,359.64,713.03,359.57,713.71,359.54z M710.33,280.26c1.84-1.11,3.61-2.39,5.29-3.74c-2.41-0.04-4.85-0.07-7.34-0.07
			c-10.22,0-19.77,0.42-28.42,1.07c-8.68,4.24-13.99,7.73-14.11,7.82l-8.34,5.56l5.73-8.22c0.95-1.36,1.95-2.66,2.98-3.89
			c-9.61,1.07-17.62,2.35-23.6,3.45l3.06,24.83l10.54,7.38l33.46-7.44l6.26-20.63c0.1-0.34,0.33-0.63,0.63-0.8
			c0.1-0.06,0.2-0.11,0.32-0.14c0.19-0.05,3.54-1.01,7.4-1.48L710.33,280.26z M714.18,261.32c-2.33-0.04-4.66-0.06-6.99-0.06h-0.01
			c-3.42,0-6.84,0.04-10.27,0.11l-6.32,3c0,0-0.04,0.02-0.09,0.05c-0.95,0.46-9.25,4.65-17.06,12.12c7-3.68,17.29-8.49,29.39-12.21
			C706.46,263.2,710.26,262.18,714.18,261.32z M670.01,274.57c3.28-3.25,6.66-5.93,9.65-8.03c-11.51,2.67-22.1,6.6-31.38,10.87
			C654.31,276.43,661.62,275.41,670.01,274.57z M672.18,264.54c3.86-1.08,7.83-2.03,11.91-2.82c-5.85,0.21-11.7,0.49-17.54,0.81
			c-3.39,0.19-6.77,0.42-10.15,0.67c-1.69,0.13-3.37,0.27-5.05,0.45c-0.48,0.05-0.95,0.1-1.43,0.16c-4.4,2.64-21.3,13.24-32.9,27.11
			C628.3,283.09,647.94,271.32,672.18,264.54z M641.08,319.18c-0.22-0.7-0.43-1.41-0.63-2.12l-5.2-3.64
			c-0.33-0.23-0.54-0.58-0.59-0.98l-2.54-20.62c-1.88,1.01-4.05,2.24-4.63,2.73c-0.5,0.41-0.88,1.47-0.34,6.38
			c0.67,6.06,3.74,17.47,5.39,19.13C634.53,320.42,638.93,319.81,641.08,319.18z M637.23,267.4c-2.94,0.57-5.33,1.08-7.11,1.48
			l0.84,3.15C633.29,270.18,635.43,268.63,637.23,267.4z"/>
	</g>
</g>
<g>
	<path class="st12" d="M455.2,246.42c1.2,3.15,3.97,4.44,6.79,5.48c3.07,1.14,6.27,1.94,9.39,3.28c-1.18,0-2.36,0-3.54,0
		c-14.13,0-28.26,0.03-42.39-0.04c-1.76-0.01-2.78,0.52-3.73,2.02c-20.39,32.38-50.12,50.92-87.17,58.3
		c-17.71,3.53-35.63,4.78-53.57,1.91c-24.58-3.93-44.49-15.42-57.78-37.04c-4.28-6.96-7.01-14.58-8.45-22.6
		c-0.39-2.19-1.27-2.61-3.24-2.6c-9.87,0.08-19.74,0.04-29.61,0.04c-1.13,0-2.25,0-3.97,0c6.9-3.02,15.67-2.16,17.73-11.73
		c4.25,4.16,9.59,6.44,15.5,7.61c1.86,0.37,2.53,0.27,2.38-1.98c-0.36-5.38-0.29-10.78,0.25-16.18c0.21-2.14,1.03-2.48,2.88-2.45
		c5.71,0.09,11.43-0.07,17.14,0.08c2.3,0.06,3.06-0.56,3.01-2.94c-0.15-7.17,0.02-14.34-0.1-21.5c-0.04-2.13,0.51-2.85,2.74-2.81
		c7.17,0.14,14.34-0.02,21.5,0.1c1.96,0.03,2.45-0.58,2.42-2.46c-0.1-6.96,0.09-13.92-0.1-20.88c-0.07-2.68,0.54-3.52,3.38-3.49
		c15.58,0.15,31.17,0,46.75,0.14c2.77,0.03,3.5-0.7,3.42-3.44c-0.21-6.85-0.01-13.71-0.11-20.57c-0.03-1.97,0.48-2.7,2.58-2.68
		c8.93,0.11,17.87,0.12,26.8-0.01c2.3-0.03,2.71,0.81,2.7,2.88c-0.08,15.79,0.01,31.58-0.09,47.37c-0.01,2.37,0.48,3.21,3.04,3.14
		c6.96-0.19,13.92,0.02,20.88-0.11c2.15-0.04,2.84,0.53,2.79,2.75c-0.14,7.27-0.07,14.54-0.04,21.82c0,1.13-0.5,2.62,1.59,2.64
		c11.22,0.12,22.47,0.49,33.09-4.13c0.57-0.25,1.16-0.46,1.73-0.71c4.16-1.83,4.16-1.83,2-5.86c-6.7-12.48-4.97-30.5,3.9-40.71
		c0.88-1.01,1.44-2.07,3.14-0.72c8.81,7.02,16.07,15.06,18.26,26.57c0.43,2.23,1.73,1.52,3.01,1.26
		c10.56-2.13,20.61-1.15,30.03,4.54c1.72,1.04,1.65,1.75,0.89,3.34c-5.84,12.22-15.99,18.06-28.96,19.79
		c-1.75,0.23-3.58,0.73-5.26,0.44c-4.63-0.8-6.48,1.56-7.9,5.52c-1.38,3.88-3.52,7.48-5.55,11.67c10.97,0.92,20.95-0.54,29.28-8.18
		C455.37,244.25,454.59,245.46,455.2,246.42z"/>
	<path class="st12" d="M356.86,385.25c0,3.19,0.06,6.38-0.02,9.56c-0.07,3.24-1.54,4.78-4.42,4.82c-3.08,0.05-4.64-1.46-4.65-4.88
		c-0.04-20.15-0.04-40.31,0-60.46c0.01-3.49,1.48-5,4.52-5c3.05,0,4.53,1.53,4.55,4.98c0.05,8.81,0.02,17.62,0.02,26.48
		c1.46,0.17,1.89-0.97,2.56-1.63c3.88-3.75,7.65-7.62,11.58-11.33c2.23-2.1,5.15-2.07,6.97-0.22c1.68,1.71,1.64,4.46-0.5,6.71
		c-5.38,5.64-10.83,11.2-16.39,16.65c-1.58,1.55-1.88,2.39-0.09,4.09c5.19,4.94,10.14,10.12,15.19,15.22
		c0.66,0.66,1.35,1.31,1.89,2.06c1.56,2.14,1.36,4.87-0.55,6.46c-1.96,1.63-4.11,1.54-5.93-0.13c-3.45-3.15-6.79-6.41-10.11-9.7
		c-1.32-1.31-2.45-2.81-3.66-4.23C357.49,384.88,357.18,385.06,356.86,385.25z"/>
	<path class="st12" d="M323.18,399.83c-17.95,0.02-29.44-13.3-27.78-30.42c1.81-18.66,22.73-29.78,39.11-20.79
		c2.86,1.57,3.96,4.09,2.9,6.65c-0.92,2.2-3.7,3.04-6.72,1.89c-2.22-0.84-4.34-1.94-6.76-2.21c-9.83-1.09-18.49,6.16-19.45,16.32
		c-0.9,9.55,6.79,18.44,16.43,19.11c3.41,0.24,6.56-0.43,9.64-1.85c2.98-1.37,5.74-0.66,6.79,1.54c1.19,2.5,0.1,5.6-2.7,7.11
		C330.59,399.35,326.15,399.78,323.18,399.83z"/>
	<path class="st12" d="M443.31,381.87c0-3.94-0.23-7.9,0.04-11.83c0.91-13.09,12.82-23.96,25.88-23.82
		c3.46,0.04,5.27,1.43,5.44,4.22c0.19,2.91-1.59,4.67-5.08,5.05c-11.21,1.22-17.31,7.97-17.34,19.19
		c-0.01,6.65,0.02,13.3-0.01,19.94c-0.01,3.56-1.34,5.11-4.33,5.2c-3.11,0.09-4.67-1.51-4.74-5.18c-0.09-4.26-0.02-8.52-0.02-12.78
		C443.21,381.87,443.26,381.87,443.31,381.87z"/>
	<path class="st13" d="M277.16,285.39c1.57-0.94,5.03-0.42,3.93-3.49c-0.97-2.7-3.38-0.6-5.08-0.21c-6.65,1.53-13.34,2.77-20.2,2.73
		c-4.69,0.93-8.53-0.11-12.09-3.68c-5.15-5.18-9.13-10.99-12.02-17.63c-0.66-1.53-1.26-3.07-1.64-4.7
		c-0.46-1.96-0.15-3.32,2.35-3.02c0.72,0.09,1.45,0.01,2.18,0.01c52.53,0,105.05,0,157.57,0c0.85,0.04,1.06,0.48,0.69,1.21
		c-0.43,0.86-1.18,1.44-1.93,1.99c-23.9,17.43-49.66,30.82-79,36.51c-9.01,1.75-18.08,2.33-27.23,2.19c-1.29-0.05-2-0.94-2.7-1.85
		C280.08,292.24,277.6,289.3,277.16,285.39z"/>
	<path class="st14" d="M400.4,250.07c-7.17,2.67-14.66,2.68-22.11,2.36c-6.32-0.27-12.61-1.12-18.68-3.02
		c-3.07-0.96-6.19-1.95-8.37-4.53c-0.97-1.15-1.45-0.44-2.2,0.18c-11.27,9.22-33.76,10.21-45.74,1.67c-2.73-1.95-4-2.18-6.87-0.06
		c-4.73,3.49-10.76,4.15-16.52,4.94c-9.51,1.31-19.02,1.54-28.43-0.84c-3.04-0.77-6-1.81-8.23-4.14c-1.05-1.1-1.71-0.51-2.63,0.07
		c-3.56,2.24-7.43,3.62-11.64,3.99c-1.27-0.99-1.45-2.51-1.51-3.88c-0.17-3.91-1.34-7.91,0.85-11.66c1.35-0.04,2.7-0.11,4.04-0.11
		c51.92-0.01,103.83,0.05,155.75-0.05c11.28-0.02,21.99-2.61,31.71-8.66c2.15-1.34,3.07-2.13,0.77-4.64
		c-7.84-8.57-8.65-27.19-1.99-36.6c0.66-0.93,1.12-2.02,2.56-0.72c6.74,6.11,12.34,12.9,13.85,22.26c0.33,2.07,0.31,4.13,0.11,6.2
		c1.42,1.58,0.1,2.72-0.73,3.8c-3.09,4.03-6.38,7.92-9.93,11.54c-6.23,6.36-12.33,12.87-19.17,18.62
		C403.76,248.08,402.01,248.95,400.4,250.07z"/>
	<path class="st15" d="M284.4,296.92c1.12-1.15,2.55-0.68,3.84-0.66c20.45,0.2,39.69-5.04,58.31-13.01
		c16.65-7.13,32.02-16.46,46.35-27.51c5.41-0.73,10.84-0.16,16.26-0.32c2.05-0.06,4.11-0.03,6.16,0c0.7,0.01,1.55-0.1,1.4,1.06
		c-4.56,8.13-10.69,15.05-17.29,21.48c-11.34,11.05-24.54,19.38-39.23,25.32c-12.86,5.2-26.18,8.54-39.99,9.85
		c-4.63,0.44-9.28,0.74-13.92,1.11c-8.45-2.71-15.03-8.13-20.94-14.51C284.66,298.99,284.02,298.09,284.4,296.92z"/>
	<path class="st16" d="M400.4,250.07c7.33-6.52,14.45-13.26,21.28-20.31c4.38-4.53,8.49-9.29,12.41-14.22
		c0.67-0.84,1.3-1.57,1.01-2.7c5.85-1.79,11.68-3.62,17.94-3.3c4.41,0.22,8.61,1.09,12.69,2.8c2.01,0.84,2.4,1.74,1.13,3.69
		c-5.48,8.42-13.66,12.12-23.18,13.44c-3.8,0.53-7.64,0.86-11.47,0.18c-1.71-0.3-2.1,0.83-2.57,2.03
		c-2.22,5.72-4.96,11.19-7.72,16.66c-1.07,2.12-2.22,2.56-4.38,1.78c-2.84-1.01-5.78-1.77-8.26-3.54c-1.06-0.76-1.68-0.74-2.62,0.18
		C404.9,248.46,402.85,249.67,400.4,250.07z"/>
	<path class="st17" d="M284.4,296.92c4.92,6.91,11.72,11.54,19,15.58c0.98,0.54,1.92,1.15,2.88,1.73
		c-17.49,0.66-34.57-1.04-50.42-9.24c-8.04-4.16-15.34-9.37-21.34-16.24c1.47-0.51,2.95-0.41,4.44-0.05
		c6-0.01,11.99-0.03,17.99-0.04c2,0.14,3.74,1.08,5.55,1.79c6.47,2.55,13.32,3.36,20.1,4.53
		C283.19,295.62,283.8,296.27,284.4,296.92z"/>
	<path class="st15" d="M416.72,256.48c-0.85-1.06-2.06-0.76-3.15-0.76c-6.89-0.02-13.78,0-20.66,0.01
		c-53.16-0.01-106.32,0.01-159.48-0.07c-2.88,0-2.92,0.78-2.13,3.16c3.12,9.42,8.66,17.11,16,23.68c2.59,2.32,5.58,1.76,8.52,1.92
		c-5.02,1.09-10.09,0.42-15.14,0.4c-1.44-0.01-2.93-0.5-4.32-0.28c-4.26,0.66-6.62-1.4-8.56-4.93c-3.84-6.94-7.02-14.08-8.57-21.91
		c-0.4-2.03,0.13-2.62,2.09-2.58c3.74,0.08,7.47,0,11.21,0c60.42,0.01,120.83,0.01,181.25,0.09
		C414.72,255.21,416.67,253.95,416.72,256.48z"/>
	<path class="st18" d="M359.34,207.7c3.11,0,6.23,0.07,9.34-0.03c1.71-0.05,2.41,0.46,2.38,2.27c-0.08,6.23-0.09,12.45,0,18.68
		c0.03,1.85-0.77,2.27-2.43,2.25c-6.23-0.06-12.45-0.07-18.68,0c-1.71,0.02-2.41-0.51-2.39-2.3c0.07-6.23,0.08-12.45,0-18.68
		c-0.03-1.87,0.79-2.27,2.44-2.22C353.11,207.76,356.22,207.7,359.34,207.7z"/>
	<path class="st19" d="M279.49,230.85c-3.22,0-6.44-0.04-9.66,0.02c-1.45,0.03-2.05-0.5-2.04-1.98c0.04-6.44,0.05-12.87,0-19.31
		c-0.01-1.55,0.7-1.91,2.09-1.9c6.44,0.04,12.87,0.05,19.31,0c1.44-0.01,2.04,0.44,2.03,1.95c-0.05,6.44-0.05,12.87,0,19.31
		c0.01,1.55-0.68,1.96-2.08,1.93C285.93,230.82,282.71,230.85,279.49,230.85z"/>
	<path class="st20" d="M279.45,204.51c-3.01,0-6.02-0.07-9.02,0.03c-1.78,0.06-2.69-0.42-2.67-2.41c0.07-6.22,0.06-12.45,0-18.67
		c-0.02-1.71,0.6-2.43,2.36-2.41c6.22,0.06,12.45,0.07,18.67,0c1.93-0.02,2.48,0.79,2.46,2.62c-0.08,6.12-0.08,12.24,0.01,18.36
		c0.03,1.87-0.53,2.6-2.47,2.52C285.67,204.41,282.56,204.51,279.45,204.51z"/>
	<path class="st21" d="M317.56,219.02c0,3.11-0.08,6.22,0.03,9.32c0.07,1.84-0.49,2.58-2.44,2.54c-6.11-0.1-12.22-0.1-18.33,0
		c-1.95,0.03-2.46-0.68-2.44-2.53c0.09-6.11,0.08-12.22,0-18.34c-0.02-1.7,0.44-2.38,2.26-2.36c6.21,0.09,12.43,0.09,18.65,0
		c1.78-0.02,2.36,0.61,2.3,2.34C317.48,213,317.56,216.01,317.56,219.02z"/>
	<path class="st19" d="M332.53,177.77c-3.01,0-6.02-0.07-9.03,0.03c-1.66,0.05-2.43-0.35-2.4-2.22c0.09-6.23,0.08-12.46,0-18.68
		c-0.02-1.76,0.58-2.34,2.33-2.32c6.23,0.08,12.46,0.06,18.68,0.01c1.54-0.01,2.23,0.39,2.21,2.09c-0.08,6.33-0.07,12.66,0,18.99
		c0.02,1.63-0.52,2.18-2.14,2.13C338.96,177.7,335.74,177.77,332.53,177.77z"/>
	<path class="st19" d="M332.83,207.7c3.11,0,6.23,0.07,9.34-0.03c1.62-0.05,2.17,0.49,2.15,2.13c-0.08,6.33-0.08,12.66,0,18.99
		c0.02,1.69-0.66,2.1-2.21,2.09c-6.23-0.06-12.46-0.07-18.68,0.01c-1.75,0.02-2.35-0.55-2.33-2.31c0.08-6.23,0.09-12.46,0-18.68
		c-0.03-1.86,0.73-2.27,2.4-2.22C326.6,207.76,329.72,207.7,332.83,207.7z"/>
	<path class="st21" d="M264.48,219.4c0,3.11-0.07,6.22,0.03,9.32c0.05,1.63-0.57,2.16-2.17,2.15c-6.21-0.06-12.43-0.06-18.65,0
		c-1.69,0.02-2.41-0.46-2.39-2.28c0.08-6.21,0.08-12.43,0-18.65c-0.02-1.79,0.64-2.3,2.36-2.28c6.21,0.08,12.43,0.09,18.65-0.01
		c1.88-0.03,2.25,0.77,2.2,2.41C264.42,213.18,264.48,216.29,264.48,219.4z"/>
	<path class="st22" d="M317.57,193.04c0,3.01-0.05,6.02,0.02,9.03c0.04,1.61-0.29,2.48-2.2,2.45c-6.33-0.09-12.66-0.06-19-0.02
		c-1.46,0.01-2.02-0.49-2-1.98c0.05-6.54,0.05-13.08,0.01-19.62c-0.01-1.36,0.55-1.82,1.85-1.82c6.44,0.03,12.87,0.05,19.31-0.01
		c1.74-0.02,2.07,0.82,2.04,2.31C317.52,186.61,317.57,189.82,317.57,193.04z"/>
	<path class="st18" d="M344.29,193.04c0,3.11-0.06,6.23,0.03,9.34c0.05,1.64-0.59,2.16-2.19,2.14c-6.23-0.06-12.45-0.07-18.68,0
		c-1.75,0.02-2.36-0.58-2.34-2.34c0.08-6.33,0.07-12.66,0.01-18.99c-0.02-1.65,0.65-2.16,2.21-2.15c6.33,0.05,12.66,0.04,18.99,0
		c1.47-0.01,2.02,0.56,1.99,2.03C344.24,186.4,344.29,189.72,344.29,193.04z"/>
	<path class="st16" d="M228.31,235.16c0,5.19-0.15,10.38,0.67,15.54c-2.79,0.95-5.72,0.79-8.59,1.19c-1.64,0.23-2.22-0.64-2.37-2.09
		c-0.47-4.35-0.3-8.7-0.16-13.06c0.04-1.36,0.84-1.72,2.06-1.69C222.71,235.11,225.51,235.13,228.31,235.16z"/>
	<path class="st23" d="M282.59,294.97c-3.3,1.61-6.42-0.12-9.54-0.65c-5.66-0.96-11.29-2.2-16.1-5.66
		c6.78-0.8,13.61-1.35,20.22-3.26C278.97,288.58,280.78,291.77,282.59,294.97z"/>
	<path class="st24" d="M238.95,288.69c-1.48,0.02-2.96,0.04-4.44,0.05C235.98,287.73,237.47,288.1,238.95,288.69z"/>
	<path class="st12" d="M230.91,334.28c0-3.67-1.19-5.04-4.3-5.09c-3.31-0.06-4.61,1.34-4.62,5.09c-0.02,5.81-0.01,11.62-0.01,18.01
		c-1.12-0.75-1.8-1.19-2.46-1.64c-9.17-6.3-21.33-6.48-30.49-0.47c-9.47,6.22-13.79,16.8-11.5,28.16
		c3,14.84,16.52,23.91,31.58,21.19c12.84-2.32,21.78-12.85,21.79-25.7C230.92,360.64,230.92,347.46,230.91,334.28z M204.36,390.67
		c-9.28,0.37-17.65-7.63-18.08-17.26c-0.42-9.55,7.53-18,17.27-18.35c9.45-0.34,18.14,7.89,18.38,17.4
		C222.17,381.87,214.05,390.28,204.36,390.67z"/>
	<path class="st12" d="M432.88,356.78c-5.28-7.34-12.71-10.85-21.54-11.24c-10.45-0.46-20.88,6.54-25.31,16.55
		c-4.42,9.97-2.24,21.47,5.62,29.61c8.47,8.78,22.59,10.75,32.57,4.62c2.43-1.49,3.23-3.53,2.17-6.06
		c-1.05-2.51-3.17-3.11-5.69-2.33c-1.19,0.37-2.36,0.78-3.51,1.26c-3.7,1.54-7.45,1.55-12.16,0.29c1.08-0.77,1.61-1.09,2.07-1.49
		c8.19-7.02,16.37-14.05,24.55-21.08C435.71,363.43,436.05,361.18,432.88,356.78z M422.53,362.47
		c-7.86,6.62-15.65,13.32-23.37,20.09c-1.59,1.39-2.29,1.02-3.28-0.57c-1.82-2.93-2.62-6.06-2.48-8.38
		c0.09-8.63,3.65-13.9,10.39-17.07c6.74-3.17,12.89-1.71,18.69,2.48C424.17,360.25,424.18,361.08,422.53,362.47z"/>
	<path class="st12" d="M265.22,345.86c-15.85-0.91-29.48,11.06-29.08,26.7c-0.26,15.24,11.03,26.96,26.28,27.28
		c14.9,0.31,26.92-10.81,27.74-24.57C291.15,358.53,278.12,346.6,265.22,345.86z M263.23,390.68c-9.61-0.07-18-8.4-17.97-17.85
		c0.03-9.63,8.37-17.91,17.92-17.81c9.47,0.1,17.75,8.33,17.76,17.66C280.96,382.37,272.71,390.75,263.23,390.68z"/>
	<path class="st25" d="M289.64,268.19c3.56,0.05,6.47,3.09,6.37,6.65c-0.1,3.47-2.94,6.3-6.37,6.34c-3.56,0.04-6.46-2.88-6.46-6.51
		C283.19,270.97,286.02,268.14,289.64,268.19z"/>
	<path class="st26" d="M365.5,219.26c0,2.68,0.01,5.37-0.01,8.05c0,0.58,0.1,1.37-0.76,1.43c-1.08,0.09-1.03-0.8-1.03-1.5
		c-0.01-5.27-0.01-10.53,0-15.8c0-0.74,0.1-1.58,1.13-1.43c0.85,0.12,0.65,0.94,0.66,1.5C365.52,214.1,365.5,216.68,365.5,219.26z"
		/>
	<path class="st26" d="M354.89,219.39c0,2.68,0.01,5.37-0.01,8.05c0,0.61-0.02,1.35-0.88,1.33c-0.82-0.02-0.9-0.72-0.9-1.35
		c-0.01-5.37,0-10.74,0-16.11c0-0.67,0.2-1.32,0.96-1.34c0.87-0.02,0.83,0.76,0.83,1.36C354.91,214.02,354.9,216.7,354.89,219.39z"
		/>
	<path class="st26" d="M356.76,219.27c0-2.69-0.01-5.37,0.01-8.06c0-0.61,0.02-1.34,0.93-1.23c0.58,0.07,0.84,0.57,0.84,1.13
		c0.01,5.47,0.02,10.95,0.01,16.42c0,0.64-0.16,1.31-1.01,1.22c-0.86-0.09-0.77-0.84-0.77-1.43
		C356.75,224.64,356.76,221.96,356.76,219.27z"/>
	<path class="st12" d="M368.38,228.63c-1.39-2.49-1.35-15.97,0-18.26C368.38,216.46,368.38,222.55,368.38,228.63z"/>
	<path class="st12" d="M361.47,210.38c0,6.09,0,12.17,0,18.26c-0.24,0.01-0.47,0.01-0.71,0.02c0-6.09,0-12.18,0-18.26
		C361,210.39,361.24,210.39,361.47,210.38z"/>
	<path class="st12" d="M350.95,210.39c0,6.09,0,12.17,0,18.26c-0.25,0-0.5,0-0.75,0c0-6.09,0-12.17,0-18.26
		C350.45,210.39,350.7,210.39,350.95,210.39z"/>
	<path class="st27" d="M275.09,219.47c0,2.59,0.02,5.17-0.02,7.76c-0.01,0.66,0.21,1.62-0.94,1.55c-0.83-0.05-0.84-0.78-0.84-1.4
		c-0.01-5.28-0.01-10.56-0.01-15.83c0-0.73,0.02-1.62,1.03-1.56c1.08,0.07,0.76,1.07,0.76,1.71
		C275.12,214.29,275.1,216.88,275.09,219.47z"/>
	<path class="st27" d="M276.86,219.21c0-2.59-0.01-5.19,0.01-7.78c0-0.59-0.09-1.37,0.77-1.44c1.03-0.08,1.1,0.74,1.1,1.49
		c0.01,5.29,0.01,10.59,0,15.88c0,0.61,0.01,1.34-0.82,1.43c-1.13,0.12-1.04-0.78-1.05-1.47
		C276.84,224.61,276.86,221.91,276.86,219.21z"/>
	<path class="st27" d="M283.8,219.16c0-2.48-0.03-4.97,0.01-7.45c0.01-0.65-0.32-1.65,0.76-1.72c0.99-0.07,1.03,0.82,1.03,1.56
		c0.01,5.28,0.01,10.56-0.01,15.84c0,0.61-0.01,1.35-0.84,1.4c-1.16,0.07-0.93-0.9-0.94-1.55
		C283.78,224.54,283.8,221.85,283.8,219.16z"/>
	<path class="st28" d="M288.62,210.32c0,6.12,0,12.24,0,18.56C287.24,227.18,286.94,213.68,288.62,210.32z"/>
	<path class="st12" d="M281.22,209.65c1.15,1.84,0.77,3.29,0.79,4.64c0.05,4.34,0.02,8.68,0,13.02c0,0.56,0.14,1.34-0.79,1.36
		c-0.51,0.01-0.56-0.47-0.67-0.86C280.21,226.67,280.62,211.65,281.22,209.65z"/>
	<path class="st12" d="M271.25,210.29c0.61,2.68,0.23,5.43,0.29,8.15c0.06,3,0.01,5.99-0.01,8.99c0,0.5-0.02,1.08-0.63,1.25
		c-0.49,0.13-0.8-0.23-0.8-0.67c-0.02-5.9-0.01-11.81-0.01-17.71C270.48,210.29,270.86,210.29,271.25,210.29z"/>
	<path class="st29" d="M269.99,192.66c0-2.17-0.06-4.34,0.03-6.51c0.04-0.92-0.57-2.57,0.8-2.57c1.67-0.01,0.97,1.75,0.99,2.72
		c0.08,4.34,0.07,8.68,0.01,13.02c-0.01,0.94,0.49,2.53-0.85,2.6c-1.51,0.07-0.91-1.54-0.94-2.44
		C269.93,197.21,269.99,194.93,269.99,192.66z"/>
	<path class="st26" d="M273.28,192.74c0-2.59-0.01-5.18,0.01-7.77c0.01-0.71-0.02-1.59,1.06-1.48c0.85,0.09,0.73,0.89,0.73,1.47
		c0.02,5.18,0.02,10.35,0,15.53c0,0.58,0.13,1.38-0.71,1.48c-1.07,0.13-1.07-0.75-1.07-1.46
		C273.27,197.92,273.28,195.33,273.28,192.74z"/>
	<path class="st26" d="M278.75,193.04c0,2.49,0.01,4.98-0.01,7.47c-0.01,0.72-0.01,1.58-1.09,1.47c-0.84-0.09-0.77-0.86-0.77-1.46
		c-0.02-5.19-0.02-10.38,0-15.57c0-0.59-0.07-1.37,0.77-1.46c1.07-0.13,1.09,0.73,1.09,1.46
		C278.76,187.64,278.75,190.34,278.75,193.04z"/>
	<path class="st29" d="M280.2,192.66c0-2.38-0.02-4.76,0.01-7.13c0.01-0.78-0.24-1.94,0.86-2.02c1.25-0.09,0.95,1.13,0.95,1.86
		c0.04,4.96,0.03,9.92,0,14.89c0,0.67,0.2,1.69-0.8,1.71c-1.23,0.03-0.99-1.1-1.01-1.86C280.18,197.62,280.2,195.14,280.2,192.66z"
		/>
	<path class="st26" d="M283.81,192.47c0-2.59-0.01-5.18,0.01-7.77c0.01-0.62,0.07-1.32,0.97-1.23c0.63,0.07,0.8,0.61,0.8,1.14
		c0.01,5.38,0.02,10.77,0,16.15c0,0.65-0.17,1.31-1.01,1.22c-0.85-0.09-0.76-0.85-0.76-1.44
		C283.8,197.85,283.81,195.16,283.81,192.47z"/>
	<path class="st12" d="M288.59,183.62c0,6.07,0,12.15,0,18.22c-0.23,0.01-0.45,0.01-0.68,0.02c0-6.08,0-12.16,0-18.23
		C288.14,183.63,288.37,183.62,288.59,183.62z"/>
	<path class="st26" d="M308.75,219.5c0,2.69,0.01,5.37-0.01,8.06c0,0.62-0.08,1.31-0.98,1.21c-0.64-0.07-0.79-0.61-0.79-1.14
		c-0.01-5.47-0.01-10.95,0.01-16.42c0-0.66,0.25-1.3,1.05-1.21c0.86,0.09,0.72,0.87,0.73,1.45c0.02,2.69,0.01,5.37,0.01,8.06
		C308.76,219.5,308.75,219.5,308.75,219.5z"/>
	<path class="st26" d="M300.01,219.22c0-2.58-0.01-5.16,0.01-7.75c0.01-0.57-0.16-1.36,0.7-1.48c0.79-0.1,1.07,0.51,1.07,1.18
		c0.02,5.47,0.02,10.95,0.01,16.42c0,0.66-0.22,1.25-1.06,1.16c-0.69-0.08-0.71-0.67-0.71-1.17c-0.02-2.79-0.01-5.58-0.01-8.37
		C300.02,219.22,300.02,219.22,300.01,219.22z"/>
	<path class="st26" d="M315.62,219.23c0,2.69,0.01,5.37-0.01,8.06c0,0.58,0.12,1.37-0.73,1.45c-1.08,0.11-1.06-0.76-1.06-1.47
		c-0.01-5.27-0.01-10.54,0-15.8c0-0.73,0.08-1.58,1.11-1.47c0.85,0.09,0.68,0.91,0.68,1.48
		C315.64,214.07,315.62,216.65,315.62,219.23z"/>
	<path class="st12" d="M304.83,210.37c0,6.09,0,12.18,0,18.56C303.32,227.06,303.07,213.34,304.83,210.37z"/>
	<path class="st12" d="M297.89,210.39c0,6.08,0,12.17,0,18.25c-0.24,0-0.48,0-0.71,0c0-6.08,0-12.16,0-18.25
		C297.42,210.39,297.65,210.39,297.89,210.39z"/>
	<path class="st12" d="M310.9,228.64c0-6.09,0-12.18,0-18.26c0.25,0,0.5,0,0.75,0c0,6.09,0,12.18,0,18.27
		C311.4,228.64,311.15,228.64,310.9,228.64z"/>
	<path class="st27" d="M335.48,165.93c0,2.7,0.01,5.4-0.01,8.09c0,0.76-0.1,1.56-1.13,1.45c-0.86-0.09-0.74-0.88-0.74-1.47
		c-0.02-5.29-0.01-10.59,0-15.88c0-0.59-0.08-1.35,0.78-1.44c1.08-0.11,1.09,0.72,1.09,1.46
		C335.49,160.74,335.49,163.33,335.48,165.93z"/>
	<path class="st27" d="M340.54,165.91c0-2.59-0.01-5.17,0.01-7.76c0.01-0.57-0.15-1.36,0.72-1.46c1.08-0.11,1.06,0.75,1.06,1.47
		c0.01,5.28,0.01,10.56,0,15.83c0,0.74-0.07,1.58-1.1,1.47c-0.87-0.09-0.68-0.91-0.69-1.48
		C340.52,171.3,340.54,168.61,340.54,165.91z"/>
	<path class="st27" d="M331.83,166.16c0,2.59,0.02,5.18-0.01,7.76c-0.01,0.65,0.23,1.63-0.92,1.56c-0.77-0.05-0.87-0.76-0.87-1.41
		c0-5.38,0-10.76,0.01-16.15c0-0.64,0.14-1.31,0.99-1.24c0.88,0.07,0.78,0.82,0.79,1.4C331.84,160.77,331.83,163.46,331.83,166.16z"
		/>
	<path class="st12" d="M324.86,166.2c0,2.6,0.01,5.19-0.01,7.79c-0.01,0.62-0.08,1.34-0.96,1.23c-0.64-0.08-0.68-0.71-0.68-1.22
		c-0.01-5.3-0.02-10.6-0.01-15.89c0-0.61-0.02-1.39,0.83-1.4c0.85,0,0.83,0.78,0.83,1.39C324.87,160.8,324.86,163.5,324.86,166.2z"
		/>
	<path class="st12" d="M327.17,175.2c-0.77-1.23-0.39-2.68-0.4-4.03c-0.05-4.34-0.02-8.68,0-13.02c0-0.56-0.14-1.34,0.79-1.36
		c0.51-0.01,0.66,0.47,0.66,0.86c0.02,5.84,0.01,11.68,0.01,17.51C327.88,175.18,327.53,175.19,327.17,175.2z"/>
	<path class="st12" d="M338.73,175.75c-1.82-1.22-1.48-2.23-1.49-3.08c-0.03-4.75-0.02-9.51,0-14.26c0-0.59-0.11-1.36,0.59-1.6
		c0.66-0.23,0.89,0.38,0.89,0.91C338.73,163.53,338.73,169.35,338.73,175.75z"/>
	<path class="st27" d="M331.83,219.47c0,2.59,0.02,5.17-0.02,7.76c-0.01,0.66,0.21,1.62-0.94,1.55c-0.83-0.05-0.84-0.78-0.84-1.4
		c-0.01-5.28-0.01-10.56-0.01-15.83c0-0.73,0.02-1.62,1.03-1.56c1.08,0.07,0.76,1.07,0.76,1.71
		C331.86,214.29,331.83,216.88,331.83,219.47z"/>
	<path class="st27" d="M333.6,219.29c0-2.7-0.01-5.4,0.01-8.09c0-0.63,0.11-1.32,0.99-1.22c0.59,0.07,0.86,0.54,0.86,1.11
		c0.01,5.5,0.02,11,0.01,16.5c0,0.67-0.2,1.28-1.04,1.2c-0.86-0.08-0.82-0.81-0.82-1.4C333.59,224.68,333.6,221.99,333.6,219.29z"/>
	<path class="st27" d="M342.34,219.24c0,2.69,0.01,5.38-0.01,8.07c0,0.72,0.01,1.58-1.07,1.46c-0.87-0.1-0.71-0.89-0.72-1.46
		c-0.02-5.28-0.02-10.56,0-15.83c0-0.57-0.17-1.39,0.69-1.48c1.03-0.11,1.09,0.73,1.1,1.47
		C342.35,214.06,342.34,216.65,342.34,219.24z"/>
	<path class="st12" d="M324.86,219.56c0,2.6,0.01,5.19,0,7.79c0,0.61,0.03,1.39-0.81,1.41c-0.86,0.02-0.84-0.76-0.84-1.37
		c-0.01-5.3-0.01-10.59,0.01-15.89c0-0.61,0.06-1.34,0.94-1.25c0.64,0.07,0.69,0.69,0.7,1.21
		C324.86,214.16,324.85,216.86,324.86,219.56z"/>
	<path class="st12" d="M338.41,210.27c0.67,1.69,0.31,3.52,0.33,5.28c0.06,3.93,0.02,7.85-0.01,11.78c0,0.56,0.12,1.35-0.81,1.34
		c-0.5-0.01-0.64-0.49-0.64-0.89c-0.02-5.83-0.01-11.66-0.01-17.49C337.65,210.29,338.03,210.28,338.41,210.27z"/>
	<path class="st12" d="M326.75,209.91c1.7,0.75,1.52,1.55,1.52,2.22c0.02,4.86,0.04,9.72-0.01,14.58c-0.01,0.7,0.42,1.94-0.84,1.91
		c-0.96-0.02-0.65-1.12-0.65-1.76C326.74,221.33,326.75,215.81,326.75,209.91z"/>
	<path class="st26" d="M243.28,219.24c0-2.69-0.01-5.37,0.01-8.06c0-0.49-0.03-1.12,0.67-1.19c0.8-0.08,1.09,0.49,1.1,1.16
		c0.02,5.47,0.02,10.95,0.02,16.42c0,0.66-0.2,1.29-1.04,1.18c-0.86-0.11-0.74-0.87-0.74-1.45
		C243.26,224.61,243.28,221.93,243.28,219.24z"/>
	<path class="st26" d="M252.02,219.4c0,2.58,0.02,5.16-0.01,7.75c-0.01,0.67,0.18,1.61-0.9,1.62c-0.81,0.01-0.89-0.73-0.89-1.36
		c-0.01-5.37,0-10.74,0.01-16.11c0-0.67,0.21-1.32,0.97-1.33c0.87-0.01,0.82,0.77,0.82,1.37
		C252.03,214.03,252.02,216.72,252.02,219.4z"/>
	<path class="st26" d="M258.95,219.69c0,2.59,0.01,5.18-0.01,7.77c0,0.62-0.08,1.33-0.92,1.32c-0.82-0.01-0.93-0.69-0.93-1.33
		c-0.01-5.38,0-10.77,0-16.15c0-0.67,0.22-1.31,0.98-1.33c0.85-0.02,0.88,0.72,0.89,1.34C258.96,214.1,258.95,216.9,258.95,219.69z"
		/>
	<path class="st26" d="M260.74,219.26c0-2.69-0.01-5.37,0.01-8.06c0-0.49-0.05-1.12,0.65-1.21c0.8-0.1,1.11,0.47,1.11,1.14
		c0.02,5.47,0.03,10.95,0.02,16.42c0,0.65-0.18,1.3-1.03,1.2c-0.86-0.1-0.75-0.86-0.76-1.44
		C260.72,224.63,260.74,221.94,260.74,219.26z"/>
	<path class="st12" d="M254.94,210.38c0,6.09,0,12.18,0,18.26c-0.24,0.01-0.47,0.01-0.71,0.02c0-6.09,0-12.18,0-18.27
		C254.47,210.39,254.71,210.38,254.94,210.38z"/>
	<path class="st12" d="M247.19,228.64c0-6.09,0-12.17,0-18.26c0.25,0,0.5-0.01,0.75-0.01c0,6.09,0,12.18,0,18.27
		C247.69,228.64,247.44,228.64,247.19,228.64z"/>
	<path class="st30" d="M296.45,193.01c0-2.69-0.01-5.39,0.01-8.08c0-0.62,0.02-1.4,0.79-1.47c1.17-0.11,0.91,0.91,0.92,1.54
		c0.03,5.18,0.02,10.36,0,15.53c0,0.57,0.16,1.4-0.7,1.46c-1.05,0.07-1.01-0.84-1.01-1.54
		C296.43,197.98,296.44,195.49,296.45,193.01z"/>
	<path class="st27" d="M300.01,192.58c0-2.48-0.02-4.96,0.02-7.43c0.01-0.65-0.27-1.62,0.79-1.7c1.05-0.08,1,0.84,1,1.55
		c0.01,5.16,0.01,10.32,0,15.48c0,0.7,0.06,1.62-1,1.55c-1.06-0.08-0.78-1.05-0.79-1.7C299.99,197.74,300.01,195.16,300.01,192.58z"
		/>
	<path class="st30" d="M305.12,193.02c0,2.6,0.01,5.19-0.02,7.79c0,0.49,0,1.11-0.69,1.2c-0.85,0.11-1.08-0.51-1.08-1.15
		c-0.02-5.4-0.02-10.8-0.01-16.2c0-0.64,0.21-1.31,1.04-1.21c0.85,0.11,0.74,0.88,0.75,1.47
		C305.14,187.62,305.12,190.32,305.12,193.02z"/>
	<path class="st27" d="M308.75,192.76c0,2.68,0.01,5.37-0.01,8.05c0,0.62-0.05,1.32-0.96,1.22c-0.63-0.07-0.81-0.59-0.81-1.12
		c-0.01-5.47-0.01-10.94,0.01-16.41c0-0.55,0.24-1.05,0.85-1.08c0.89-0.04,0.9,0.68,0.91,1.29
		C308.77,187.39,308.76,190.08,308.75,192.76z"/>
	<path class="st30" d="M310.5,192.8c0-2.6-0.02-5.19,0.02-7.79c0.01-0.67-0.15-1.64,0.96-1.57c0.78,0.05,0.84,0.81,0.84,1.44
		c0.01,5.19,0.02,10.38,0,15.57c0,0.71,0.03,1.64-1.01,1.55c-1.04-0.09-0.78-1.07-0.79-1.73C310.48,197.78,310.5,195.29,310.5,192.8
		z"/>
	<path class="st27" d="M315.62,193.04c0,2.48,0.02,4.96-0.01,7.43c-0.01,0.65,0.21,1.62-0.93,1.55c-0.81-0.05-0.85-0.78-0.85-1.4
		c-0.01-5.26-0.01-10.53,0-15.79c0-0.62,0.04-1.36,0.85-1.4c1.14-0.06,0.92,0.9,0.93,1.56
		C315.64,187.68,315.62,190.36,315.62,193.04z"/>
	<path class="st26" d="M342.35,192.73c0,2.59,0.01,5.18-0.01,7.77c-0.01,0.71,0.02,1.59-1.06,1.48c-0.85-0.09-0.73-0.88-0.73-1.47
		c-0.02-5.18-0.02-10.36,0-15.53c0-0.58-0.13-1.38,0.71-1.48c1.07-0.13,1.07,0.75,1.07,1.46
		C342.36,187.55,342.35,190.14,342.35,192.73z"/>
	<path class="st26" d="M330.02,192.73c0-2.59-0.01-5.18,0.01-7.77c0.01-0.71-0.01-1.59,1.07-1.47c0.85,0.1,0.72,0.89,0.72,1.47
		c0.02,5.18,0.02,10.36,0,15.53c0,0.58,0.12,1.38-0.72,1.47c-1.08,0.12-1.06-0.76-1.06-1.47
		C330.01,197.91,330.02,195.32,330.02,192.73z"/>
	<path class="st29" d="M338.76,193.03c0,2.58,0.01,5.17-0.01,7.75c0,0.49-0.03,1.11-0.71,1.19c-0.84,0.1-1.07-0.53-1.07-1.16
		c-0.02-5.38-0.02-10.75,0-16.13c0-0.64,0.22-1.31,1.05-1.19c0.83,0.12,0.74,0.89,0.74,1.47c0.02,2.69,0.01,5.38,0.01,8.07
		C338.77,193.03,338.77,193.03,338.76,193.03z"/>
	<path class="st29" d="M326.74,192.73c0-2.59-0.01-5.17,0.01-7.76c0.01-0.58-0.1-1.35,0.73-1.48c0.83-0.13,1.05,0.54,1.06,1.17
		c0.02,5.38,0.02,10.75,0,16.13c0,0.64-0.23,1.3-1.06,1.17c-0.83-0.13-0.72-0.9-0.73-1.48C326.72,197.9,326.74,195.32,326.74,192.73
		z"/>
	<path class="st26" d="M333.61,192.43c0-2.49-0.01-4.98,0.01-7.47c0.01-0.59-0.07-1.37,0.77-1.46c1.07-0.12,1.09,0.73,1.09,1.46
		c0.01,5.19,0.01,10.38,0,15.57c0,0.72-0.02,1.58-1.09,1.46c-0.84-0.09-0.77-0.86-0.77-1.46
		C333.6,197.82,333.61,195.12,333.61,192.43z"/>
	<path class="st12" d="M324.87,192.97c0,2.59,0.01,5.17-0.01,7.76c0,0.51-0.04,1.12-0.69,1.21c-0.88,0.11-0.97-0.6-0.97-1.21
		c-0.02-5.28-0.02-10.55-0.01-15.83c0-0.62,0.02-1.4,0.84-1.39c0.81,0,0.83,0.78,0.83,1.4
		C324.88,187.59,324.87,190.28,324.87,192.97z"/>
	<path class="st31" d="M290.74,270.13c-0.22,2.02-0.94,4.29,2.64,3.3c0.97-0.27,0.95,1.08,0.78,1.85c-0.56,2.52-2.06,4.1-4.75,3.98
		c-2.46-0.11-4.09-1.47-4.38-3.99c-0.3-2.64,1-4.37,3.51-5.11C289.19,269.97,289.96,270.13,290.74,270.13z"/>
</g>
<g>
	<path class="st32" d="M1010.76,247.64c0,4.12,0.44,7.45,1.22,9.9c0.89,2.45,2,5.12,3.56,8.01c0.56,0.89,0.78,1.78,0.78,2.56
		c0,1.11-0.67,2.22-2.11,3.34l-7.01,4.67c-1,0.67-2,1-2.89,1c-1.11,0-2.22-0.56-3.34-1.56c-1.56-1.67-2.89-3.45-4-5.23
		c-1.11-1.89-2.22-4-3.45-6.56c-8.68,10.23-19.58,15.35-32.7,15.35c-9.34,0-16.8-2.67-22.25-8.01c-5.45-5.34-8.23-12.46-8.23-21.36
		c0-9.45,3.34-17.13,10.12-22.91c6.79-5.78,15.8-8.68,27.25-8.68c3.78,0,7.68,0.33,11.79,0.89s8.34,1.45,12.79,2.45v-8.12
		c0-8.45-1.78-14.35-5.23-17.8c-3.56-3.45-9.57-5.12-18.13-5.12c-3.89,0-7.9,0.44-12.01,1.45c-4.12,1-8.12,2.22-12.01,3.78
		c-1.78,0.78-3.11,1.22-3.89,1.45c-0.78,0.22-1.33,0.33-1.78,0.33c-1.56,0-2.34-1.11-2.34-3.45v-5.45c0-1.78,0.22-3.11,0.78-3.89
		c0.56-0.78,1.56-1.56,3.11-2.34c3.89-2,8.57-3.67,14.02-5.01c5.45-1.45,11.23-2.11,17.35-2.11c13.24,0,22.91,3,29.14,9.01
		c6.12,6.01,9.23,15.13,9.23,27.36v36.04H1010.76z M965.6,264.54c3.67,0,7.45-0.67,11.46-2s7.56-3.78,10.57-7.12
		c1.78-2.11,3.11-4.45,3.78-7.12s1.11-5.9,1.11-9.68v-4.67c-3.23-0.78-6.67-1.45-10.23-1.89c-3.56-0.44-7.01-0.67-10.46-0.67
		c-7.45,0-12.9,1.45-16.57,4.45c-3.67,3-5.45,7.23-5.45,12.79c0,5.23,1.33,9.12,4.12,11.79
		C956.59,263.21,960.48,264.54,965.6,264.54z M1054.92,276.56c-2,0-3.34-0.33-4.23-1.11c-0.89-0.67-1.67-2.22-2.34-4.34
		l-26.14-85.98c-0.67-2.22-1-3.67-1-4.45c0-1.78,0.89-2.78,2.67-2.78h10.9c2.11,0,3.56,0.33,4.34,1.11
		c0.89,0.67,1.56,2.22,2.22,4.34l18.69,73.64l17.35-73.64c0.56-2.22,1.22-3.67,2.11-4.34c0.89-0.67,2.45-1.11,4.45-1.11h8.9
		c2.11,0,3.56,0.33,4.45,1.11c0.89,0.67,1.67,2.22,2.11,4.34l17.58,74.53l19.24-74.53c0.67-2.22,1.45-3.67,2.22-4.34
		c0.89-0.67,2.34-1.11,4.34-1.11h10.34c1.78,0,2.78,0.89,2.78,2.78c0,0.56-0.11,1.11-0.22,1.78c-0.11,0.67-0.33,1.56-0.78,2.78
		l-26.81,85.98c-0.67,2.22-1.45,3.67-2.34,4.34c-0.89,0.67-2.34,1.11-4.23,1.11h-9.57c-2.11,0-3.56-0.33-4.45-1.11
		c-0.89-0.78-1.67-2.22-2.11-4.45l-17.24-71.75L1071.05,271c-0.56,2.22-1.22,3.67-2.11,4.45c-0.89,0.78-2.45,1.11-4.45,1.11H1054.92
		z M1197.86,279.56c-5.78,0-11.57-0.67-17.13-2c-5.56-1.33-9.9-2.78-12.79-4.45c-1.78-1-3-2.11-3.45-3.11
		c-0.44-1-0.67-2.11-0.67-3.11v-5.67c0-2.34,0.89-3.45,2.56-3.45c0.67,0,1.33,0.11,2,0.33c0.67,0.22,1.67,0.67,2.78,1.11
		c3.78,1.67,7.9,3,12.24,3.89c4.45,0.89,8.79,1.33,13.24,1.33c7.01,0,12.46-1.22,16.24-3.67c3.78-2.45,5.78-6.01,5.78-10.57
		c0-3.11-1-5.67-3-7.79s-5.78-4-11.23-5.78l-16.13-5.01c-8.12-2.56-14.13-6.34-17.8-11.35c-3.67-4.89-5.56-10.34-5.56-16.13
		c0-4.67,1-8.79,3-12.35c2-3.56,4.67-6.67,8.01-9.12c3.34-2.56,7.12-4.45,11.57-5.78c4.45-1.33,9.12-1.89,14.02-1.89
		c2.45,0,5.01,0.11,7.45,0.44c2.56,0.33,4.89,0.78,7.23,1.22c2.22,0.56,4.34,1.11,6.34,1.78c2,0.67,3.56,1.33,4.67,2
		c1.56,0.89,2.67,1.78,3.34,2.78c0.67,0.89,1,2.11,1,3.67v5.23c0,2.34-0.89,3.56-2.56,3.56c-0.89,0-2.34-0.44-4.23-1.33
		c-6.34-2.89-13.46-4.34-21.36-4.34c-6.34,0-11.35,1-14.79,3.11s-5.23,5.34-5.23,9.9c0,3.11,1.11,5.78,3.34,7.9
		c2.22,2.11,6.34,4.23,12.24,6.12l15.8,5.01c8.01,2.56,13.79,6.12,17.24,10.68c3.45,4.56,5.12,9.79,5.12,15.57
		c0,4.78-1,9.12-2.89,12.9c-2,3.78-4.67,7.12-8.12,9.79c-3.45,2.78-7.56,4.78-12.35,6.23
		C1208.76,278.78,1203.53,279.56,1197.86,279.56z"/>
	<g>
		<path class="st33" d="M1218.88,333.62c-36.6,27.03-89.77,41.38-135.48,41.38c-64.07,0-121.8-23.69-165.41-63.07
			c-3.45-3.11-0.33-7.34,3.78-4.89c47.16,27.36,105.34,43.94,165.52,43.94c40.6,0,85.21-8.45,126.25-25.81
			C1219.66,322.39,1224.89,329.17,1218.88,333.62z"/>
		<path class="st33" d="M1234.12,316.27c-4.67-6.01-30.92-2.89-42.83-1.45c-3.56,0.44-4.12-2.67-0.89-5.01
			c20.91-14.68,55.28-10.46,59.29-5.56c4,5.01-1.11,39.38-20.69,55.84c-3,2.56-5.9,1.22-4.56-2.11
			C1228.89,346.97,1238.79,322.16,1234.12,316.27z"/>
	</g>
</g>
</svg>
