<?xml version="1.0" encoding="utf-8"?>
<!-- Generator: Adobe Illustrator 23.0.1, SVG Export Plug-In . SVG Version: 6.00 Build 0)  -->
<svg version="1.1" id="Layer_1" xmlns="http://www.w3.org/2000/svg" xmlns:xlink="http://www.w3.org/1999/xlink" x="0px" y="0px"
	 viewBox="0 0 1280 500" style="enable-background:new 0 0 1280 500;" xml:space="preserve">
<style type="text/css">
	.st0{fill:url(#SVGID_1_);}
	.st1{fill:url(#SVGID_2_);}
	.st2{fill:url(#SVGID_3_);}
	.st3{fill:url(#SVGID_4_);}
	.st4{fill:url(#SVGID_5_);}
	.st5{fill:#FFFFFF;}
</style>
<g>
	<linearGradient id="SVGID_1_" gradientUnits="userSpaceOnUse" x1="0" y1="250" x2="1280" y2="250">
		<stop  offset="0" style="stop-color:#F1633D"/>
		<stop  offset="1" style="stop-color:#F7981D"/>
	</linearGradient>
	<rect class="st0" width="1280" height="500"/>
	<linearGradient id="SVGID_2_" gradientUnits="userSpaceOnUse" x1="640" y1="490" x2="640" y2="10">
		<stop  offset="0" style="stop-color:#FFFFFF"/>
		<stop  offset="1" style="stop-color:#F1F2F2"/>
	</linearGradient>
	<rect x="10" y="10" class="st1" width="1260" height="480"/>
	<linearGradient id="SVGID_3_" gradientUnits="userSpaceOnUse" x1="955" y1="490" x2="955" y2="10">
		<stop  offset="0" style="stop-color:#231F20"/>
		<stop  offset="1" style="stop-color:#333132"/>
	</linearGradient>
	<rect x="640" y="10" class="st2" width="630" height="480"/>
	<g>
		<linearGradient id="SVGID_4_" gradientUnits="userSpaceOnUse" x1="273.0121" y1="250" x2="415.6361" y2="250">
			<stop  offset="0" style="stop-color:#F1633D"/>
			<stop  offset="1" style="stop-color:#F7981D"/>
		</linearGradient>
		<path class="st3" d="M415.64,337.94h-49.85L303.1,207.86h-30.09v-45.79h61.12l62.01,130.08h19.49L415.64,337.94z M370.18,330.94
			h38.45l0-31.79h-16.91l-62.01-130.08h-49.7v31.79h27.49L370.18,330.94z"/>
		<linearGradient id="SVGID_5_" gradientUnits="userSpaceOnUse" x1="243.3451" y1="281.9539" x2="322.9486" y2="281.9539">
			<stop  offset="0" style="stop-color:#F1633D"/>
			<stop  offset="1" style="stop-color:#F7981D"/>
		</linearGradient>
		<path class="st4" d="M295.22,337.94h-51.88l53.05-111.97l26.56,54.43L295.22,337.94z M254.41,330.94h36.42l24.34-50.51
			l-18.69-38.3L254.41,330.94z"/>
	</g>
	<g>
		<path class="st5" d="M955,140.03c-56.9,0-103.03,46.13-103.03,103.03c0,45.52,29.52,84.14,70.46,97.77
			c5.15,0.95,7.04-2.24,7.04-4.96c0-2.46-0.1-10.57-0.14-19.18c-28.66,6.23-34.71-12.16-34.71-12.16
			c-4.69-11.91-11.44-15.08-11.44-15.08c-9.35-6.39,0.7-6.26,0.7-6.26c10.35,0.73,15.79,10.62,15.79,10.62
			c9.19,15.75,24.1,11.2,29.98,8.56c0.92-6.66,3.59-11.21,6.54-13.78c-22.89-2.6-46.94-11.44-46.94-50.92
			c0-11.25,4.03-20.44,10.62-27.66c-1.07-2.6-4.6-13.07,1-27.27c0,0,8.65-2.77,28.34,10.56c8.22-2.28,17.03-3.43,25.79-3.47
			c8.76,0.04,17.58,1.18,25.81,3.47c19.67-13.33,28.31-10.56,28.31-10.56c5.61,14.19,2.08,24.67,1.01,27.27
			c6.61,7.22,10.6,16.41,10.6,27.66c0,39.57-24.1,48.29-47.05,50.84c3.7,3.2,6.99,9.47,6.99,19.08c0,13.79-0.12,24.88-0.12,28.28
			c0,2.74,1.85,5.96,7.08,4.94c40.92-13.64,70.4-52.25,70.4-97.75C1058.03,186.16,1011.9,140.03,955,140.03z"/>
		<path class="st5" d="M890.99,287.96c-0.23,0.51-1.03,0.67-1.77,0.31c-0.75-0.34-1.17-1.03-0.92-1.55
			c0.22-0.53,1.03-0.67,1.77-0.32C890.82,286.74,891.25,287.45,890.99,287.96L890.99,287.96z M889.72,287.02"/>
		<path class="st5" d="M895.17,292.62c-0.49,0.45-1.45,0.24-2.1-0.48c-0.67-0.72-0.8-1.68-0.3-2.14c0.51-0.45,1.44-0.24,2.11,0.48
			C895.55,291.2,895.68,292.16,895.17,292.62L895.17,292.62z M894.18,291.56"/>
		<path class="st5" d="M899.23,298.55c-0.63,0.44-1.66,0.03-2.3-0.89c-0.63-0.92-0.63-2.02,0.01-2.46c0.64-0.44,1.66-0.04,2.3,0.86
			C899.87,297,899.87,298.1,899.23,298.55L899.23,298.55z M899.23,298.55"/>
		<path class="st5" d="M904.79,304.28c-0.56,0.62-1.77,0.45-2.65-0.39c-0.9-0.83-1.15-2.01-0.59-2.63c0.57-0.62,1.78-0.45,2.67,0.39
			C905.12,302.48,905.39,303.67,904.79,304.28L904.79,304.28z M904.79,304.28"/>
		<path class="st5" d="M912.47,307.61c-0.25,0.81-1.41,1.17-2.57,0.83c-1.17-0.35-1.93-1.3-1.69-2.11c0.24-0.81,1.41-1.19,2.58-0.83
			C911.95,305.85,912.71,306.79,912.47,307.61L912.47,307.61z M912.47,307.61"/>
		<path class="st5" d="M920.9,308.23c0.03,0.85-0.96,1.55-2.19,1.57c-1.23,0.03-2.23-0.66-2.24-1.5c0-0.86,0.97-1.55,2.2-1.58
			C919.9,306.7,920.9,307.39,920.9,308.23L920.9,308.23z M920.9,308.23"/>
		<path class="st5" d="M928.75,306.9c0.15,0.83-0.7,1.68-1.92,1.91c-1.2,0.22-2.3-0.29-2.46-1.11c-0.15-0.85,0.72-1.7,1.91-1.92
			C927.5,305.55,928.59,306.05,928.75,306.9L928.75,306.9z M928.75,306.9"/>
	</g>
</g>
</svg>
