<?xml version="1.0" encoding="utf-8"?>
<!-- Generator: Adobe Illustrator 23.0.1, SVG Export Plug-In . SVG Version: 6.00 Build 0)  -->
<svg version="1.1" id="Layer_1" xmlns="http://www.w3.org/2000/svg" xmlns:xlink="http://www.w3.org/1999/xlink" x="0px" y="0px"
	 viewBox="0 0 1280 500" style="enable-background:new 0 0 1280 500;" xml:space="preserve">
<style type="text/css">
	.st0{fill:url(#SVGID_1_);}
	.st1{fill:#770D29;}
	.st2{fill:url(#SVGID_2_);}
	.st3{fill:#FFFFFF;stroke:#FFFFFF;stroke-width:0.5;}
	.st4{fill:none;stroke:#FFEB88;stroke-width:8.5;stroke-miterlimit:10;}
	.st5{fill:#FFFFFF;}
	.st6{fill:#7A1613;}
	.st7{fill:#004062;}
</style>
<radialGradient id="SVGID_1_" cx="640" cy="250" r="485.8498" gradientUnits="userSpaceOnUse">
	<stop  offset="0" style="stop-color:#FFFFFF"/>
	<stop  offset="0.439" style="stop-color:#FFFFFF"/>
	<stop  offset="0.5092" style="stop-color:#E6ECF0"/>
	<stop  offset="0.6743" style="stop-color:#B0C2D1"/>
	<stop  offset="0.8171" style="stop-color:#88A3BA"/>
	<stop  offset="0.9304" style="stop-color:#7091AC"/>
	<stop  offset="1" style="stop-color:#678AA7"/>
</radialGradient>
<rect class="st0" width="1280" height="500"/>
<g>
	<path class="st1" d="M857.1,202h-43.8c-21-76.1-90.8-132.1-173.6-132.1c-82.8,0-152.5,55.9-173.6,132.1h-43.3v97h43.6
		c21.3,75.6,90.8,131.1,173.3,131.1c82.5,0,152-55.5,173.3-131.1h44V202z"/>
	<linearGradient id="SVGID_2_" gradientUnits="userSpaceOnUse" x1="351.2748" y1="250" x2="689.9603" y2="250">
		<stop  offset="0" style="stop-color:#FFFFFF"/>
		<stop  offset="1" style="stop-color:#003F62"/>
	</linearGradient>
	<path class="st2" d="M809.1,250c0,93.5-75.8,169.3-169.4,169.3c-93.5,0-169.3-75.8-169.3-169.3c0-93.5,75.8-169.3,169.3-169.3
		C733.3,80.7,809.1,156.5,809.1,250z"/>
	<path class="st3" d="M683.7,82.4c-91.8-24.2-186.2,30.7-210.4,122.5C449,296.7,504,391.1,595.7,415.3
		c91.8,24.2,186.2-30.7,210.4-122.5C830.4,201.1,775.5,106.7,683.7,82.4z M574.5,399.4c-7.1-4.8-13.4-10.8-19-17.7
		c-10.4-12.8-17.8-28.3-22.7-44.8c0.7,0.3,1.3,0.6,2,0.9c13.1,5.5,26.4,10.2,39.8,14.4c0,1.1,0.1,2.2,0.1,3.3
		c0.4,7.9,1.1,15.7,2.5,23.2c1.4,7.5,3.4,14.8,6.7,21c1.3,2.5,2.9,4.8,4.6,6.8c-1.5-0.5-3-1-4.4-1.5
		C580.8,403.3,577.6,401.5,574.5,399.4z M476.9,271.5c-2.4-17.5-1.8-35.3,1.4-52.6c2.4,3.2,5.3,5.9,8.2,8.3
		c5.9,4.9,12.3,8.9,18.7,12.6c5.5,3.1,11.2,6,16.9,8.7c-1.1,7.8-1.8,15.6-2.1,23.5c-2.5,0-5,0-7.5,0.2c-6.6,0.3-13.2,1-19.9,2.7
		c-3.3,0.9-6.6,2-9.9,3.8c-1.4,0.8-2.8,1.8-4.1,3.1C477.9,278.3,477.4,274.9,476.9,271.5z M514.8,142c0.5,1.6,1.2,3.1,2,4.5
		c1.9,3.2,4.3,5.8,6.8,8.2c5,4.7,10.4,8.6,16.1,12.1c2.3,1.4,4.5,2.7,6.8,4c-3.5,6.9-6.7,14-9.5,21.2c-6.3-0.5-12.6-0.7-18.9-0.7
		c-7.5,0-15,0.4-22.5,1.7c-3.7,0.7-7.5,1.6-11.2,3.2c5.7-17,14.2-33.1,25-47.4C511.1,146.5,512.9,144.2,514.8,142z M525.1,130.8
		c0.1-0.1,0.3-0.2,0.5-0.3c2.4-1.4,5.3-2.4,8.3-3.2c6-1.5,12.3-2.2,18.6-2.6c8.5-0.4,17-0.3,25.6,0.2
		c-10.9,11.8-20.4,25.2-28.3,39.6c-0.1,0.1-0.1,0.3-0.2,0.4c-2.2-1.3-4.4-2.7-6.6-4c-5.3-3.4-10.5-7.2-14.9-11.4
		c-2.2-2.1-4.2-4.4-5.6-6.9c-1.4-2.4-2.1-4.9-1.6-6.9c0.1-0.3,0.2-0.6,0.3-0.9C522.4,133.5,523.7,132.1,525.1,130.8z M594.2,89.6
		c5.2-1.5,10.5-2.7,15.9-3.7c-0.1,0.3-0.2,0.6-0.3,0.9c-0.3,1.2-0.3,2.4-0.1,3.4c0.2,1,0.6,2,1,2.8c0.7,1.3,1.5,2.4,2.3,3.4
		c-10.2,5.9-19.7,13.3-28.4,21.8c-0.6,0.6-1.2,1.2-1.8,1.8c-10.1-0.9-20.3-1.4-30.6-1c-5.3,0.3-10.7,0.7-16,1.8
		c6.8-5.6,13.9-10.6,21.5-15.1C569.2,98.9,581.4,93.5,594.2,89.6z M729.9,330.8c1.5,0.9,3.1,1.8,4.6,2.8c5.4,3.5,10.7,7.2,15.4,11.7
		c2.3,2.3,4.5,4.7,6.2,7.5c1.6,2.7,2.8,6.1,1.9,9.3c-0.9,3.2-3.5,5.6-6.3,7.2c-2.8,1.6-5.9,2.7-9.1,3.5c-6.3,1.6-12.7,2.2-19.2,2.6
		c-8.3,0.4-16.6,0.1-24.8-0.5c11.9-12.6,22.1-27.1,30.5-42.6C729.4,331.8,729.6,331.3,729.9,330.8z M728.1,331.9
		c-8.6,15.7-19.2,30.2-31.4,42.8c-3.9-0.3-7.9-0.7-11.8-1.1c-12.2-1.4-24.2-3.5-36.2-5.9c2.8-4.9,5.4-9.9,7.9-15
		c7.1-14.2,13.1-29.1,18.6-44.3c0.2-0.5,0.3-1,0.5-1.5c8.2,2.9,16.3,5.9,24.3,9.3c9.8,4.2,19.6,8.8,28.8,14.1
		C728.6,330.8,728.4,331.3,728.1,331.9z M598.4,409.3c-5.4-1.5-9.5-6.2-12.3-12.1c-2.9-5.9-4.6-12.9-5.8-20.2
		c-1.2-7.6-1.8-15.6-1.9-23.6c10.1,3.1,20.4,5.9,30.6,8.5c12.1,3,24.3,5.6,36.6,7.8c-0.6,0.9-1.1,1.9-1.7,2.8
		c-4.1,6.6-8.5,12.8-13.2,18.5c-4.7,5.7-9.9,10.8-15.4,14.4c-2.8,1.8-5.6,3.2-8.5,3.9C603.9,410,601,410,598.4,409.3z M609.4,358
		c-10.4-2.9-20.8-6.2-31-9.7c0-5.7,0.2-11.5,0.6-17.2c0.9-15.7,3-31.5,5.7-47.2c0-0.1,0.1-0.2,0.1-0.4c14.1,2.4,28.2,5.3,42.1,8.8
		c16.2,4,32.3,8.7,48.1,14.2c-5.7,15.6-12.1,30.9-19.5,45.5c-2.6,5.2-5.4,10.3-8.3,15.3C634.4,364.6,621.8,361.5,609.4,358z
		 M525.6,272.1c0.3-7,0.9-14.1,1.9-21.1c5.9,2.7,12,5.2,18,7.7c12.1,4.8,24.4,9.1,36.8,13.1c-0.4,2.3-0.8,4.5-1.2,6.8
		c-9.7-1.8-19.5-3.4-29.3-4.6C543,273,534.3,272.3,525.6,272.1z M481.1,207c0.1-0.3,0.2-0.6,0.2-0.9c0.9-1.7,3-3.3,5.5-4.4
		c3-1.3,6.4-2.2,9.8-2.9c6.9-1.3,14.2-1.7,21.4-1.7c5.6,0,11.2,0.1,16.8,0.4c-2.6,7.2-4.9,14.5-6.9,21.9c-2,7.5-3.6,15-4.8,22.7
		c-5-2.5-10-5.2-14.9-8c-6.2-3.6-12.3-7.6-17.7-12.1c-2.7-2.3-5.2-4.7-7.1-7.3c-1.6-2.2-2.7-4.6-2.6-6.5
		C480.9,207.7,481,207.3,481.1,207z M533.5,220.8c2-7.8,4.5-15.5,7.3-23c6.9,0.5,13.8,1.1,20.7,2c12.7,1.5,25.4,3.4,38,5.7
		c-3.3,10-6.3,20.2-9,30.4c-2.7,10.3-5.1,20.7-7.2,31.1c-12.1-4.3-24.1-8.8-35.8-13.8c-6.4-2.7-12.7-5.5-18.9-8.5
		C529.7,236.6,531.4,228.7,533.5,220.8z M615.8,94.5c-1-1.1-1.9-2.3-2.5-3.5c-0.6-1.2-0.9-2.6-0.6-3.6c0.2-0.8,0.7-1.5,1.5-2.2
		c10.9-1.7,22.1-2.4,33.4-1.8c-5.5,1-10.9,2.5-16.2,4.4c-5.2,1.9-10.3,4.2-15.3,6.9C616,94.6,615.9,94.5,615.8,94.5z M741.8,118.4
		c0.3,1,0.4,2,0.1,3.1c-0.5,1.7-1.7,3-3.1,3.8c-0.8,0.5-1.7,1-2.6,1.3c-2.7-4.4-5.6-8.5-8.8-12.5c-3.9-4.8-8.3-9.3-13-13.2
		C724.3,105.9,733.4,111.8,741.8,118.4z M758.6,220.6c0.3-17.5-1.3-35-5.4-51.8c7.5,3.5,14.8,7.4,21.9,11.8
		c5.5,3.5,10.8,7.2,15.5,11.7c2.3,2.2,4.5,4.7,6.2,7.5c1.7,2.7,2.8,6.1,1.9,9.3c-0.9,3.2-3.5,5.6-6.3,7.2c-2.8,1.6-5.9,2.6-9.1,3.5
		c-6.3,1.6-12.8,2.2-19.2,2.5c-1.9,0.1-3.7,0.1-5.6,0.1C758.6,221.8,758.6,221.2,758.6,220.6z M757.5,220.3c0,0.7-0.1,1.4-0.1,2.2
		c-10.7,0.1-21.4-0.8-32-2c-8.7-1-17.2-2.4-25.8-3.9c0.1-0.6,0.2-1.2,0.3-1.8c2.7-15.9,4.8-31.8,5.7-47.7c0.3-5.6,0.5-11.1,0.5-16.7
		c11.6,3.8,23.1,8,34.4,12.7c3.6,1.6,7.3,3.2,10.9,4.9C755.8,184.8,757.8,202.5,757.5,220.3z M594.9,237c2.7-10.4,5.8-20.6,9.1-30.8
		c14.6,2.7,29.1,5.9,43.5,9.5c16.4,4.1,32.6,8.7,48.7,13.9c-2.1,10.8-4.6,21.5-7.4,32.1c-2.9,10.7-6,21.3-9.5,31.8
		c-16.5-3.4-32.9-7.5-49.2-12c-14.3-4-28.5-8.4-42.5-13.2C589.7,257.9,592.1,247.4,594.9,237z M648.8,213.2
		c-14.4-4-29-7.6-43.6-10.8c0.6-1.9,1.3-3.8,2-5.7c13.9,4.6,27.9,8.6,42.1,12.1c16.2,4,32.5,7.4,49,9.9c-0.6,3.2-1.2,6.3-1.8,9.5
		C680.8,222.6,664.8,217.7,648.8,213.2z M635.3,132.3c10.6,2,21.1,4.3,31.6,6.9c12.6,3.2,25.2,6.7,37.6,10.7
		c0.1,5.6,0,11.3-0.3,17.1c-0.8,16.4-2.8,33-5.6,49.4c-16.5-3-32.9-7-49.1-11.5c-13.7-3.9-27.3-8.2-40.7-13.1
		c0.1-0.2,0.2-0.4,0.2-0.7c5.4-15,11.4-29.8,18.4-43.8C630,142.3,632.6,137.2,635.3,132.3z M668.6,85.7c1.5,0.3,3,0.6,4.4,0.9
		c-2.5,0.9-5,2.1-7.4,3.6c-5.9,3.8-11.3,9.2-16.2,15c-1.8,2.1-3.5,4.3-5.2,6.6c-2-0.9-4.1-1.8-6-2.7c-5.4-2.6-10.7-5.4-15.6-8.9
		c-1.1-0.8-2.2-1.6-3.2-2.4c4.1-2.3,8.4-4.3,12.7-6c8.2-3.2,16.7-5.3,25.2-6C661.1,85.5,664.9,85.5,668.6,85.7z M651.3,108.1
		c4.6-5.7,9.6-10.9,15-14.7c2.7-1.9,5.5-3.3,8.4-4.1c2.8-0.8,5.7-1,8.3-0.3c5.4,1.3,9.7,5.9,12.7,11.7c3,5.9,5,12.9,6.3,20.1
		c0.4,2.4,0.8,4.8,1.1,7.2c-10.5-1.3-20.9-3.6-31.1-6.5c-8.3-2.4-16.5-5.1-24.5-8.4C648.7,111.4,650,109.8,651.3,108.1z
		 M671.8,123.7c10.3,2.5,20.8,4.4,31.4,5.4c0.6,4.7,0.9,9.5,1.2,14.3c0.1,1.5,0.1,3,0.1,4.6c-11.9-4.2-24-8-36.2-11.4
		c-10.2-2.9-20.6-5.5-31-7.8c2.7-4.5,5.4-8.9,8.4-13.2C654.2,118.9,662.9,121.5,671.8,123.7z M699.2,218.8c9,1.4,18,2.5,27,3.4
		c10.4,1,20.8,1.6,31.2,1.4c-0.3,9.5-1.2,19.1-2.6,28.6c-7.4-3.7-15-7.1-22.6-10.3c-11.5-4.8-23.1-9.3-34.8-13.5
		C698,225.3,698.6,222,699.2,218.8z M741.9,162.9c-11.7-5.3-23.6-10-35.7-14.3c0-6.5-0.3-13-0.9-19.3c0.8,0.1,1.6,0.1,2.4,0.2
		c6.1,0.4,12.2,0.6,18.3,0c2.9-0.3,5.8-0.7,8.7-1.6c6.9,10.9,12.1,23.1,15.8,35.9c0.3,1.2,0.6,2.3,0.9,3.5
		C748.2,165.8,745,164.4,741.9,162.9z M706,98.1c7.2,4.7,13.8,10.6,19.5,17.4c3.2,3.7,6.1,7.8,8.8,12c-2.9,0.9-5.8,1.3-8.7,1.5
		c-6.1,0.5-12.1,0.2-18.1-0.4c-0.8-0.1-1.5-0.2-2.3-0.3c-0.3-2.7-0.6-5.4-1-8c-1.2-7.5-3.1-14.8-6.2-21.1c-1.3-2.6-2.8-5-4.6-7.1
		c2.2,0.7,4.3,1.5,6.5,2.4C701.9,95.6,704,96.8,706,98.1z M616.2,99.7c1.5,1.4,3.1,2.6,4.8,3.7c5.2,3.5,10.6,6.3,16.2,8.8
		c1.7,0.8,3.5,1.5,5.2,2.2c-2.3,3.2-4.4,6.4-6.5,9.8c-0.8,1.3-1.6,2.6-2.4,3.9c-13.8-3-27.8-5.4-41.9-7.1c-0.8-0.1-1.6-0.2-2.4-0.3
		C597.5,112.5,606.5,105.4,616.2,99.7z M590.8,125.9c13.6,1.3,27.1,3.2,40.6,5.7c-2.5,4.3-4.9,8.8-7.2,13.3
		c-7.4,14.6-13.9,29.8-19.5,45.4c-9.4-3.5-18.7-7.3-27.8-11.4c-7.7-3.4-15.2-7.1-22.5-11.2c0-0.1,0.1-0.2,0.1-0.2
		c8.3-15.4,18.4-29.7,30.1-42.1C586.6,125.6,588.7,125.7,590.8,125.9z M574.8,184.6c9.3,3.9,18.6,7.4,28.1,10.6
		c-0.7,2.1-1.4,4.1-2.1,6.2c-12.7-2.7-25.5-5-38.4-6.8c-6.5-0.9-13-1.6-19.6-2.2c2.6-6.5,5.4-12.8,8.5-19
		C559,177.6,566.8,181.2,574.8,184.6z M586.6,273.2c14.3,4.5,28.7,8.5,43.2,12.1c16.2,4,32.4,7.6,48.8,10.5
		c-1.1,3.1-2.1,6.3-3.3,9.4c-15.5-5.9-31.3-11-47.2-15.5c-14.1-3.9-28.3-7.4-42.6-10.2C585.8,277.3,586.2,275.3,586.6,273.2z
		 M701.3,315.9c-8.2-3.7-16.6-7.1-25.1-10.4c1.1-3.2,2.2-6.3,3.3-9.6c12.3,2.2,24.6,4.1,37,5.5c8.2,1,16.4,1.7,24.6,2.2
		c-3.5,9-7.5,17.8-12.1,26.3C720.1,324.8,710.7,320.1,701.3,315.9z M715.8,300c-11.9-1.7-23.8-3.8-35.6-6.2
		c3.4-10.5,6.6-21.1,9.4-31.8c2.8-10.6,5.3-21.3,7.5-32.1c11.4,3.7,22.8,7.8,34,12.2c8,3.2,15.9,6.6,23.7,10.4
		c-1.3,8.5-3.1,17-5.2,25.3c-2.2,8.4-4.9,16.7-8,24.8C732.9,302.1,724.3,301.1,715.8,300z M750.4,278.1c2.2-8.3,4-16.7,5.3-25.1
		c5.1,2.5,10.1,5.1,15,7.9c6.3,3.7,12.5,7.6,18.2,12.3c2.8,2.3,5.5,4.9,7.7,7.8c1.1,1.5,2.1,3.1,2.7,4.8c0.6,1.7,0.9,3.7,0.4,5.5
		c-0.5,1.8-1.6,3.4-3,4.6c-1.4,1.2-3,2.1-4.7,2.9c-3.4,1.5-7,2.4-10.6,3c-7.2,1.3-14.6,1.6-21.9,1.7c-5.6,0-11.3-0.2-16.9-0.6
		C745.6,294.7,748.3,286.5,750.4,278.1z M800.4,286.4c-0.6-1.8-1.6-3.4-2.7-4.8c-2.2-3-4.9-5.5-7.7-7.9c-5.7-4.7-11.9-8.7-18.2-12.4
		c-5.3-3-10.6-5.9-16-8.6c1.5-9.6,2.4-19.4,2.8-29.1c2.2,0,4.4-0.1,6.7-0.2c6.5-0.4,13-1,19.3-2.7c3.2-0.8,6.3-1.9,9.1-3.5
		c2.8-1.6,5.4-4,6.3-7.2c0.2-0.7,0.3-1.3,0.3-2c6.5,25.4,7.1,52.6,0.5,79.7C800.7,287.3,800.6,286.8,800.4,286.4z M798.1,200.6
		c-1.7-2.8-3.8-5.3-6.2-7.6c-4.7-4.5-10-8.3-15.5-11.9c-7.5-4.8-15.3-9-23.3-12.9c-0.4-1.5-0.7-3-1.1-4.5
		c-3.6-12.9-8.6-25.3-15.3-36.5c1-0.4,1.9-0.8,2.8-1.4c1.3-0.9,2.6-2.2,3.1-3.9c0.3-1,0.2-2,0-3c26.6,21.1,46.1,49.9,55.8,82.1
		C798.2,200.8,798.1,200.7,798.1,200.6z M482.7,295.9c-1.4-2.4-2.1-4.9-1.5-6.9c0.5-2,2.3-3.8,4.7-5.2c2.4-1.4,5.3-2.4,8.3-3.2
		c5.9-1.5,12.2-2.2,18.5-2.6c2.4-0.1,4.8-0.2,7.1-0.2c0,0,0,0,0,0c-0.2,16.5,1.4,32.9,5.1,48.6c-7.5-3.7-14.8-7.8-21.8-12.2
		c-5.3-3.4-10.5-7.1-14.9-11.4C486.1,300.6,484.1,298.3,482.7,295.9z M525.4,277.7c8.5,0.1,17,0.6,25.6,1.4
		c9.8,0.9,19.6,2.2,29.3,3.7c-2.7,16.2-4.6,32.6-5.4,48.8c-0.2,5.2-0.3,10.3-0.3,15.4c-12.8-4.5-25.4-9.5-37.7-15
		c-2.1-0.9-4.1-1.9-6.1-2.8C526.7,312.6,525,295.2,525.4,277.7z M608.8,411.6c2.6-0.9,5.1-2.3,7.6-3.9c5.8-4,11-9.4,15.8-15.3
		c5.6-6.9,10.5-14.5,15.1-22.5c12.7,2.2,25.4,4,38.3,5.2c3.3,0.3,6.5,0.6,9.8,0.8c-0.5,0.5-1,1-1.5,1.5
		c-13.4,13.1-28.9,23.7-45.5,29.8c-8.3,3.1-16.9,5-25.5,5.5c-2.4,0.2-4.7,0.2-7.1,0.1C613.5,412.5,611.1,412.1,608.8,411.6z
		 M649.6,409.3c16.9-6.6,32.4-17.6,45.7-31c0.7-0.7,1.4-1.5,2.2-2.2c9,0.5,18,0.7,27,0.2c6.5-0.4,13-1.1,19.3-2.7
		c3-0.8,5.9-1.8,8.6-3.3c-32.2,29.7-75.5,46.2-120.6,44C637.7,413.3,643.7,411.6,649.6,409.3z M757.2,353.5
		c-1.7-2.8-3.8-5.3-6.1-7.6c-4.7-4.5-10-8.3-15.4-11.8c-1.9-1.2-3.7-2.3-5.6-3.4c4.6-8.6,8.7-17.6,12.2-26.8
		c6.1,0.3,12.2,0.5,18.3,0.5c7.3-0.1,14.7-0.5,22-1.8c3.6-0.7,7.2-1.6,10.6-3.1c1.7-0.8,3.3-1.7,4.7-2.9c0.3-0.3,0.6-0.6,0.9-0.9
		c-7.8,26.7-21.9,49.9-40.1,68.7c0.2-0.5,0.4-0.9,0.5-1.4C759.9,359.6,758.8,356.2,757.2,353.5z M497.7,332.9
		c-4.1-7.1-7.7-14.6-10.7-22.2c4.1,3.5,8.4,6.5,12.9,9.3c8.7,5.5,17.8,10.1,27.1,14.3c0.1,0.3,0.2,0.7,0.3,1.1
		c5.3,18.3,13.8,35.6,25.6,49.5c3.7,4.3,7.7,8.3,12,11.9c-16.6-8.4-31.3-19.4-43.9-32.3C512,354.8,504.2,344.2,497.7,332.9z"/>
	<path class="st4" d="M683.5,85c-89.8-23.7-182.4,30.4-206.2,120.8C453.5,296.2,507.1,389,597,412.7
		c89.8,23.7,182.4-30.5,206.2-120.8C827.1,201.6,773.4,108.8,683.5,85z"/>
	<rect x="429.5" y="208.6" class="st5" width="420.8" height="83.8"/>
	<g>
		<path class="st6" d="M787.1,262L787.1,262c0-1.2,0.9-2.1,2.1-2.1c1.2,0,2.1,0.9,2.1,2.1v0c0,1.1-0.9,2.1-2.1,2.1
			C788.1,264.1,787.1,263.1,787.1,262z M791.1,262L791.1,262c0-1-0.8-1.9-1.8-1.9c-1,0-1.8,0.9-1.8,1.9v0c0,1,0.8,1.9,1.8,1.9
			C790.3,263.8,791.1,263,791.1,262z M788.4,260.8h1c0.5,0,0.8,0.2,0.8,0.7c0,0.3-0.2,0.6-0.5,0.6l0.6,0.8h-0.5l-0.5-0.7h-0.4v0.7
			h-0.4V260.8z M789.3,261.9c0.3,0,0.4-0.1,0.4-0.3c0-0.2-0.2-0.3-0.4-0.3h-0.5v0.7H789.3z"/>
	</g>
	<g>
		<path class="st1" d="M487.6,259.6h2.3l-0.1,20.6h-2.3L487.6,259.6z"/>
		<path class="st1" d="M500.5,259.6h2.2l13,16.5l0-16.5h2.3v20.6h-1.8l-13.3-16.9l-0.1,16.9h-2.2L500.5,259.6z"/>
		<path class="st1" d="M533.8,261.8h-6.9v-2.2h16.2l0,2.1h-6.9v18.5h-2.4L533.8,261.8z"/>
		<path class="st1" d="M552.1,259.5H567v2.1h-12.6l0,7l11.3,0l0,2.1l-11.2,0l0,7.2l12.7,0l0,2.1h-15.1V259.5z"/>
		<path class="st1" d="M576.4,259.6h8.3c3.1,0,5.2,0.7,6.6,2.1c0.6,0.6,1.5,2.4,1.5,3.8l0,0c0,3.4-2,5.6-5.6,6.3l6.3,8.4l-2.9,0
			l-6-8h-5.9l0,8h-2.3L576.4,259.6z M584.5,270.1c4.4,0,5.9-2,5.9-4.5l0,0c-0.3-2-1.2-3.9-5.8-3.9l-5.9,0l0,8.3L584.5,270.1z"/>
		<path class="st1" d="M602.3,259.6h2.2l13,16.6l0-16.6h2.3l0,20.6h-1.9l-13.3-16.9l0,16.9h-2.3L602.3,259.6z"/>
		<path class="st1" d="M637.8,259.4h2.2l9.4,20.8h-2.5l-2.4-5.4l-11.3,0l-2.4,5.4h-2.4L637.8,259.4z M643.6,272.7l-4.7-10.5
			l-4.7,10.5H643.6z"/>
		<path class="st1" d="M660.9,261.7l-6.9,0v-2.2h16.2v2.2h-6.9l0,18.5h-2.3L660.9,261.7z"/>
		<path class="st1" d="M679.3,259.6h2.3v20.6h-2.3V259.6z"/>
		<path class="st1" d="M691.4,270L691.4,270c0-5.7,4.3-10.7,10.4-10.7c6.6,0,10.7,5,10.7,10.6l0,0c0.2,6.2-5.5,12.2-13.2,10.5
			C695,279.3,691.5,275.2,691.4,270z M710,269.9L710,269.9c0-5.2-3.8-8.6-8.1-8.5c-5.1,0.1-8.1,4-8.1,8.5v0.1c0,4.9,3.3,7.5,5.9,8.3
			C705.3,279.7,710.2,275.2,710,269.9z"/>
		<path class="st1" d="M721.9,259.6h2.2l13,16.5l0-16.5h2.3v20.6h-1.9l-13.3-16.9l0,16.9h-2.3L721.9,259.6z"/>
		<path class="st1" d="M757.5,259.4h2.2l9.4,20.8h-2.5l-2.5-5.5l-11.2,0l-2.5,5.4H748L757.5,259.4z M763.2,272.6l-4.7-10.5
			l-4.7,10.5L763.2,272.6z"/>
		<path class="st1" d="M777.7,259.6h2.3l0,18.5l11.6,0l0,2.1h-13.9V259.6z"/>
	</g>
	<g>
		<path class="st7" d="M452.6,226.4h-10V220h27.3v6.4h-10v25.1h-7.3V226.4z"/>
		<path class="st7" d="M472.5,235.8L472.5,235.8c0-9,7.4-16.4,17.6-16.4c10.2,0,17.5,7.2,17.5,16.2v0.1c0,8.9-7.4,16.3-17.6,16.3
			C479.9,252,472.5,244.8,472.5,235.8z M500,235.8L500,235.8c0-5.5-4.1-10-10-10c-5.8,0-9.9,4.4-9.9,9.8v0.1c0,5.4,4.1,9.9,10,9.9
			C496,245.6,500,241.2,500,235.8z"/>
		<path class="st7" d="M523.3,219.8h6.7l14.1,31.7h-7.6l-3-7.1h-14l-3,7.1h-7.4L523.3,219.8z M530.9,238.3l-4.4-10.2l-4.4,10.2
			H530.9z"/>
		<path class="st7" d="M546.5,246.9l4.3-4.9c3,2.3,6.1,3.8,9.9,3.8c3,0,4.8-1.1,4.8-3v-0.1c0-1.8-1.1-2.7-6.6-4
			c-6.6-1.6-10.9-3.4-10.9-9.6V229c0-5.7,4.8-9.5,11.6-9.5c4.8,0,8.9,1.4,12.3,4l-3.8,5.2c-2.9-1.9-5.8-3.1-8.6-3.1
			c-2.8,0-4.2,1.2-4.2,2.7v0.1c0,2.1,1.4,2.7,7.1,4.1c6.7,1.7,10.5,4,10.5,9.4v0.1c0,6.2-5,9.8-12.1,9.8
			C555.5,251.9,550.4,250.2,546.5,246.9z"/>
		<path class="st7" d="M585.9,226.4h-10V220h27.3v6.4h-10v25.1h-7.3V226.4z"/>
		<path class="st7" d="M608.8,220h7.8l8.7,13.3l8.7-13.3h7.8v31.5h-7.2v-20.5l-9.3,13.4h-0.2l-9.2-13.3v20.4h-7.1V220z"/>
		<path class="st7" d="M661,219.8h6.7l14.1,31.7h-7.6l-3-7.1h-14l-3,7.1h-7.4L661,219.8z M668.6,238.3l-4.4-10.2l-4.4,10.2H668.6z"
			/>
		<path class="st7" d="M684.2,246.9l4.3-4.9c3,2.3,6.1,3.8,9.9,3.8c3,0,4.8-1.1,4.8-3v-0.1c0-1.8-1.1-2.7-6.6-4
			c-6.6-1.6-10.9-3.4-10.9-9.6V229c0-5.7,4.8-9.5,11.6-9.5c4.8,0,8.9,1.4,12.3,4l-3.8,5.2c-2.9-1.9-5.8-3.1-8.6-3.1
			c-2.8,0-4.2,1.2-4.2,2.7v0.1c0,2.1,1.4,2.7,7.1,4.1c6.7,1.7,10.5,4,10.5,9.4v0.1c0,6.2-5,9.8-12.1,9.8
			C693.2,251.9,688.2,250.2,684.2,246.9z"/>
		<path class="st7" d="M723.6,226.4h-10V220h27.3v6.4h-10v25.1h-7.3V226.4z"/>
		<path class="st7" d="M746.5,220h24.9v6.2h-17.7v6.4h15.6v6.2h-15.6v6.6h17.9v6.2h-25.1V220z"/>
		<path class="st7" d="M778.1,220h15.1c4.2,0,7.4,1.1,9.6,3.2c1.8,1.8,2.8,4.2,2.8,7.2v0.1c0,5.1-2.9,8.3-7.1,9.8l8.1,11.2h-8.5
			l-7.1-10.1h-5.7v10.1h-7.3V220z M792.7,235.3c3.5,0,5.6-1.8,5.6-4.4v-0.1c0-3-2.2-4.5-5.7-4.5h-7.2v9H792.7z"/>
		<path class="st7" d="M809.9,246.9l4.3-4.9c3,2.3,6.1,3.8,9.9,3.8c3,0,4.8-1.1,4.8-3v-0.1c0-1.8-1.1-2.7-6.6-4
			c-6.6-1.6-10.9-3.4-10.9-9.6V229c0-5.7,4.8-9.5,11.6-9.5c4.8,0,8.9,1.4,12.3,4l-3.8,5.2c-2.9-1.9-5.8-3.1-8.6-3.1
			c-2.8,0-4.2,1.2-4.2,2.7v0.1c0,2.1,1.4,2.7,7.1,4.1c6.7,1.7,10.5,4,10.5,9.4v0.1c0,6.2-5,9.8-12.1,9.8
			C818.9,251.9,813.9,250.2,809.9,246.9z"/>
	</g>
</g>
</svg>
